SplineFontDB: 3.2
FontName: Agave-Regular
FullName: Agave Regular
FamilyName: Agave
Weight: Regular
Copyright: (c) 2013-2021 type agaric <agaric@protonmail.com>
Version: 38
ItalicAngle: 0
UnderlinePosition: -384
UnderlineWidth: 128
Ascent: 1536
Descent: 512
InvalidEm: 0
sfntRevision: 0x00260000
LayerCount: 2
Layer: 0 1 "Back" 1
Layer: 1 1 "Fore" 0
XUID: [1021 439 1587787360 15211728]
UniqueID: 4109859
StyleMap: 0x0040
FSType: 0
OS2Version: 0
OS2_WeightWidthSlopeOnly: 1
OS2_UseTypoMetrics: 1
CreationTime: 1368797729
ModificationTime: 1648572044
PfmFamily: 49
TTFWeight: 400
TTFWidth: 5
LineGap: 0
VLineGap: 0
Panose: 2 11 5 9 3 6 4 2 2 3
OS2TypoAscent: 1536
OS2TypoAOffset: 0
OS2TypoDescent: -512
OS2TypoDOffset: 0
OS2TypoLinegap: 0
OS2WinAscent: 1536
OS2WinAOffset: 0
OS2WinDescent: 512
OS2WinDOffset: 0
HheadAscent: 1536
HheadAOffset: 0
HheadDescent: -512
HheadDOffset: 0
OS2SubXSize: 1403
OS2SubYSize: 1224
OS2SubXOff: 0
OS2SubYOff: 120
OS2SupXSize: 1403
OS2SupYSize: 1224
OS2SupXOff: 0
OS2SupYOff: 648
OS2StrikeYSize: 128
OS2StrikeYPos: 512
OS2CapHeight: 1280
OS2XHeight: 1024
OS2FamilyClass: 2057
OS2Vendor: 'agrc'
MarkAttachClasses: 1
DEI: 91125

StartChar: zero
Encoding: 48 48 0
Width: 1024
VWidth: 0
Flags: MW
LayerCount: 2
Fore
SplineSet
512 1296 m 128,-1,1
 712 1296 712 1296 828 1120 c 128,-1,2
 944 944 944 944 944 640 c 128,-1,3
 944 336 944 336 828 160 c 128,-1,4
 712 -16 712 -16 512 -16 c 128,-1,5
 312 -16 312 -16 196 160 c 128,-1,6
 80 336 80 336 80 640 c 128,-1,7
 80 944 80 944 196 1120 c 128,-1,0
 312 1296 312 1296 512 1296 c 128,-1,1
512 1139 m 128,-1,9
 394 1139 394 1139 326 1005 c 128,-1,10
 258 871 258 871 258 640 c 128,-1,11
 258 409 258 409 326 275 c 128,-1,12
 394 141 394 141 512 141 c 128,-1,13
 630 141 630 141 698 275 c 128,-1,14
 766 409 766 409 766 640 c 128,-1,15
 766 871 766 871 698 1005 c 128,-1,8
 630 1139 630 1139 512 1139 c 128,-1,9
427 768 m 1,16,-1
 597 768 l 1,17,-1
 597 512 l 1,18,-1
 427 512 l 1,19,-1
 427 768 l 1,16,-1
EndSplineSet
EndChar

StartChar: one
Encoding: 49 49 1
Width: 1024
VWidth: 0
Flags: MW
LayerCount: 2
Fore
SplineSet
512 1280 m 1,0,-1
 682 1280 l 1,1,-1
 682 0 l 1,2,-1
 512 0 l 1,3,-1
 512 1040 l 1,4,-1
 280 808 l 1,5,-1
 160 928 l 1,6,-1
 512 1280 l 1,0,-1
EndSplineSet
EndChar

StartChar: two
Encoding: 50 50 2
Width: 1024
VWidth: 0
Flags: MW
LayerCount: 2
Fore
SplineSet
512 1296 m 128,-1,1
 677 1296 677 1296 778.5 1194 c 128,-1,2
 880 1092 880 1092 880 948 c 0,3,4
 880 910 880 910 868 871 c 128,-1,5
 856 832 856 832 841 800.5 c 128,-1,6
 826 769 826 769 790.5 719.5 c 128,-1,7
 755 670 755 670 729.5 638 c 128,-1,8
 704 606 704 606 649 540 c 2,9,-1
 332 157 l 1,10,-1
 896 157 l 1,11,-1
 896 0 l 1,12,-1
 128 0 l 1,13,-1
 128 157 l 1,14,-1
 528 640 l 2,15,16
 598 725 598 725 628.5 764.5 c 128,-1,17
 659 804 659 804 684.5 855 c 128,-1,18
 710 906 710 906 710 948 c 0,19,20
 710 1019 710 1019 654.5 1079 c 128,-1,21
 599 1139 599 1139 512 1139 c 128,-1,22
 425 1139 425 1139 369.5 1079 c 128,-1,23
 314 1019 314 1019 314 948 c 1,24,-1
 144 948 l 1,25,26
 144 1092 144 1092 245.5 1194 c 128,-1,0
 347 1296 347 1296 512 1296 c 128,-1,1
EndSplineSet
EndChar

StartChar: three
Encoding: 51 51 3
Width: 1024
VWidth: 0
Flags: MW
LayerCount: 2
Fore
SplineSet
370 1288 m 0,0,1
 620 1288 620 1288 750 1209 c 128,-1,2
 880 1130 880 1130 880 946 c 0,3,4
 880 893 880 893 862.5 849 c 128,-1,5
 845 805 845 805 820 780 c 128,-1,6
 795 755 795 755 770 737.5 c 128,-1,7
 745 720 745 720 727.5 714 c 2,8,-1
 710 708 l 1,9,10
 718 705 718 705 731.5 699 c 128,-1,11
 745 693 745 693 780 668 c 128,-1,12
 815 643 815 643 841.5 610 c 128,-1,13
 868 577 868 577 890 517 c 128,-1,14
 912 457 912 457 912 384 c 0,15,16
 912 276 912 276 874.5 199 c 128,-1,17
 837 122 837 122 764 77 c 128,-1,18
 691 32 691 32 592.5 12 c 128,-1,19
 494 -8 494 -8 363 -8 c 0,20,21
 299 -8 299 -8 240 -4 c 128,-1,22
 181 -0 181 -0 154.5 4 c 2,23,-1
 128 8 l 1,24,-1
 128 157 l 1,25,-1
 363 157 l 2,26,27
 548 157 548 157 645 209.5 c 128,-1,28
 742 262 742 262 742 384 c 0,29,30
 742 489 742 489 666.5 550 c 128,-1,31
 591 611 591 611 461 611 c 2,32,-1
 288 611 l 1,33,-1
 288 768 l 1,34,-1
 449 768 l 2,35,36
 570 768 570 768 640 816 c 128,-1,37
 710 864 710 864 710 946 c 0,38,39
 710 1041 710 1041 623.5 1082 c 128,-1,40
 537 1123 537 1123 370 1123 c 2,41,-1
 160 1123 l 1,42,-1
 160 1272 l 1,43,44
 240 1288 240 1288 370 1288 c 0,0,1
EndSplineSet
EndChar

StartChar: four
Encoding: 52 52 4
Width: 1024
VWidth: 0
Flags: MW
LayerCount: 2
Fore
SplineSet
598 1280 m 1,0,-1
 800 1280 l 1,1,-1
 800 413 l 1,2,-1
 960 413 l 1,3,-1
 960 256 l 1,4,-1
 800 256 l 1,5,-1
 800 0 l 1,6,-1
 630 0 l 1,7,-1
 630 256 l 1,8,-1
 64 256 l 1,9,-1
 64 413 l 1,10,-1
 598 1280 l 1,0,-1
630 413 m 1,11,-1
 630 1008 l 1,12,-1
 264 413 l 1,13,-1
 630 413 l 1,11,-1
EndSplineSet
EndChar

StartChar: five
Encoding: 53 53 5
Width: 1024
VWidth: 0
Flags: MW
LayerCount: 2
Fore
SplineSet
330 1123 m 1,0,-1
 330 797 l 1,1,-1
 512 797 l 2,2,3
 697 797 697 797 804.5 705.5 c 128,-1,4
 912 614 912 614 912 456 c 0,5,6
 912 328 912 328 874.5 237 c 128,-1,7
 837 146 837 146 764 93 c 128,-1,8
 691 40 691 40 592.5 16 c 128,-1,9
 494 -8 494 -8 363 -8 c 0,10,11
 299 -8 299 -8 240 -4 c 128,-1,12
 181 -0 181 -0 154.5 4 c 2,13,-1
 128 8 l 1,14,-1
 128 157 l 1,15,-1
 363 157 l 2,16,17
 548 157 548 157 645 226 c 128,-1,18
 742 295 742 295 742 456 c 0,19,20
 742 541 742 541 680.5 590.5 c 128,-1,21
 619 640 619 640 512 640 c 2,22,-1
 160 640 l 1,23,-1
 160 1280 l 1,24,-1
 864 1280 l 1,25,-1
 864 1123 l 1,26,-1
 330 1123 l 1,0,-1
EndSplineSet
EndChar

StartChar: six
Encoding: 54 54 6
Width: 1024
VWidth: 0
Flags: MW
LayerCount: 2
Fore
SplineSet
512 1280 m 1,0,-1
 706 1280 l 1,1,-1
 430 781 l 1,2,3
 469 784 469 784 512 784 c 0,4,5
 697 784 697 784 804.5 676.5 c 128,-1,6
 912 569 912 569 912 384 c 128,-1,7
 912 199 912 199 804.5 91.5 c 128,-1,8
 697 -16 697 -16 512 -16 c 128,-1,9
 327 -16 327 -16 219.5 91.5 c 128,-1,10
 112 199 112 199 112 384 c 0,11,12
 112 555 112 555 160 643 c 2,13,-1
 512 1280 l 1,0,-1
512 627 m 0,14,15
 382 627 382 627 332 574 c 128,-1,16
 282 521 282 521 282 384 c 0,17,18
 282 271 282 271 344 206 c 128,-1,19
 406 141 406 141 512 141 c 128,-1,20
 618 141 618 141 680 206 c 128,-1,21
 742 271 742 271 742 384 c 128,-1,22
 742 497 742 497 680 562 c 128,-1,23
 618 627 618 627 512 627 c 0,14,15
EndSplineSet
EndChar

StartChar: seven
Encoding: 55 55 7
Width: 1024
VWidth: 0
Flags: MW
LayerCount: 2
Fore
SplineSet
928 1280 m 1,0,-1
 928 1123 l 1,1,-1
 512 0 l 1,2,-1
 331 0 l 1,3,-1
 747 1123 l 1,4,-1
 96 1123 l 1,5,-1
 96 1280 l 1,6,-1
 928 1280 l 1,0,-1
EndSplineSet
EndChar

StartChar: eight
Encoding: 56 56 8
Width: 1024
VWidth: 0
Flags: MW
LayerCount: 2
Fore
SplineSet
112 970 m 0,0,1
 112 1121 112 1121 219.5 1208.5 c 128,-1,2
 327 1296 327 1296 512 1296 c 128,-1,3
 697 1296 697 1296 804.5 1208.5 c 128,-1,4
 912 1121 912 1121 912 970 c 0,5,6
 912 923 912 923 887.5 878 c 128,-1,7
 863 833 863 833 828 802.5 c 128,-1,8
 793 772 793 772 758 747.5 c 128,-1,9
 723 723 723 723 698.5 711.5 c 2,10,-1
 674 700 l 1,11,12
 685 695 685 695 703 685 c 128,-1,13
 721 675 721 675 767.5 641.5 c 128,-1,14
 814 608 814 608 850 571.5 c 128,-1,15
 886 535 886 535 915 478 c 128,-1,16
 944 421 944 421 944 363 c 0,17,18
 944 187 944 187 828 85.5 c 128,-1,19
 712 -16 712 -16 512 -16 c 128,-1,20
 312 -16 312 -16 196 85.5 c 128,-1,21
 80 187 80 187 80 363 c 0,22,23
 80 421 80 421 108 477.5 c 128,-1,24
 136 534 136 534 175.5 572.5 c 128,-1,25
 215 611 215 611 254.5 641 c 128,-1,26
 294 671 294 671 322 685.5 c 2,27,-1
 350 700 l 1,28,29
 340 704 340 704 324 712 c 128,-1,30
 308 720 308 720 267 747 c 128,-1,31
 226 774 226 774 194.5 803 c 128,-1,32
 163 832 163 832 137.5 877.5 c 128,-1,33
 112 923 112 923 112 970 c 0,0,1
282 970 m 0,34,35
 282 935 282 935 305.5 901.5 c 128,-1,36
 329 868 329 868 363 845 c 128,-1,37
 397 822 397 822 431 803.5 c 128,-1,38
 465 785 465 785 488.5 776.5 c 2,39,-1
 512 768 l 2,40,41
 517 770 517 770 525 773 c 128,-1,42
 533 776 533 776 557 786.5 c 128,-1,43
 581 797 581 797 603 808.5 c 128,-1,44
 625 820 625 820 651.5 838 c 128,-1,45
 678 856 678 856 697 875 c 128,-1,46
 716 894 716 894 729 919 c 128,-1,47
 742 944 742 944 742 970 c 0,48,49
 742 1048 742 1048 680 1093.5 c 128,-1,50
 618 1139 618 1139 512 1139 c 128,-1,51
 406 1139 406 1139 344 1093.5 c 128,-1,52
 282 1048 282 1048 282 970 c 0,34,35
512 632 m 1,53,54
 507 630 507 630 497.5 626 c 128,-1,55
 488 622 488 622 460.5 608 c 128,-1,56
 433 594 433 594 408.5 578.5 c 128,-1,57
 384 563 384 563 353.5 538.5 c 128,-1,58
 323 514 323 514 301.5 489 c 128,-1,59
 280 464 280 464 265 430.5 c 128,-1,60
 250 397 250 397 250 363 c 0,61,62
 250 268 250 268 320.5 212.5 c 128,-1,63
 391 157 391 157 512 157 c 128,-1,64
 633 157 633 157 703.5 212.5 c 128,-1,65
 774 268 774 268 774 363 c 0,66,67
 774 409 774 409 747 454 c 128,-1,68
 720 499 720 499 681.5 530 c 128,-1,69
 643 561 643 561 604.5 585 c 128,-1,70
 566 609 566 609 539 620.5 c 2,71,-1
 512 632 l 1,53,54
EndSplineSet
EndChar

StartChar: nine
Encoding: 57 57 9
Width: 1024
VWidth: 0
Flags: MW
LayerCount: 2
Fore
SplineSet
512 0 m 1,0,-1
 318 0 l 1,1,-1
 594 499 l 1,2,3
 555 496 555 496 512 496 c 0,4,5
 327 496 327 496 219.5 603.5 c 128,-1,6
 112 711 112 711 112 896 c 128,-1,7
 112 1081 112 1081 219.5 1188.5 c 128,-1,8
 327 1296 327 1296 512 1296 c 128,-1,9
 697 1296 697 1296 804.5 1188.5 c 128,-1,10
 912 1081 912 1081 912 896 c 0,11,12
 912 725 912 725 864 637 c 2,13,-1
 512 0 l 1,0,-1
512 653 m 0,14,15
 642 653 642 653 692 706 c 128,-1,16
 742 759 742 759 742 896 c 0,17,18
 742 1009 742 1009 680 1074 c 128,-1,19
 618 1139 618 1139 512 1139 c 128,-1,20
 406 1139 406 1139 344 1074 c 128,-1,21
 282 1009 282 1009 282 896 c 128,-1,22
 282 783 282 783 344 718 c 128,-1,23
 406 653 406 653 512 653 c 0,14,15
EndSplineSet
EndChar

StartChar: exclam
Encoding: 33 33 11
Width: 1024
VWidth: 0
Flags: MW
LayerCount: 2
Fore
SplineSet
419 1280 m 1,0,-1
 605 1280 l 1,1,-1
 597 512 l 1,2,-1
 427 512 l 1,3,-1
 419 1280 l 1,0,-1
384 256 m 1,4,-1
 640 256 l 1,5,-1
 640 0 l 1,6,-1
 384 0 l 1,7,-1
 384 256 l 1,4,-1
EndSplineSet
EndChar

StartChar: quotedbl
Encoding: 34 34 12
Width: 1024
VWidth: 0
Flags: MW
LayerCount: 2
Fore
SplineSet
264 1280 m 1,0,-1
 434 1280 l 1,1,-1
 422 768 l 1,2,-1
 275 768 l 1,3,-1
 264 1280 l 1,0,-1
590 1280 m 1,4,-1
 760 1280 l 1,5,-1
 749 768 l 1,6,-1
 602 768 l 1,7,-1
 590 1280 l 1,4,-1
EndSplineSet
EndChar

StartChar: numbersign
Encoding: 35 35 13
Width: 1024
VWidth: 0
Flags: MW
LayerCount: 2
Fore
SplineSet
244 1280 m 1,0,-1
 390 1280 l 1,1,-1
 390 951 l 1,2,-1
 634 951 l 1,3,-1
 634 1280 l 1,4,-1
 780 1280 l 1,5,-1
 780 951 l 1,6,-1
 960 951 l 1,7,-1
 960 805 l 1,8,-1
 780 805 l 1,9,-1
 780 475 l 1,10,-1
 960 475 l 1,11,-1
 960 329 l 1,12,-1
 780 329 l 1,13,-1
 780 0 l 1,14,-1
 634 0 l 1,15,-1
 634 329 l 1,16,-1
 390 329 l 1,17,-1
 390 0 l 1,18,-1
 244 0 l 1,19,-1
 244 329 l 1,20,-1
 64 329 l 1,21,-1
 64 475 l 1,22,-1
 244 475 l 1,23,-1
 244 805 l 1,24,-1
 64 805 l 1,25,-1
 64 951 l 1,26,-1
 244 951 l 1,27,-1
 244 1280 l 1,0,-1
634 805 m 1,28,-1
 390 805 l 1,29,-1
 390 475 l 1,30,-1
 634 475 l 1,31,-1
 634 805 l 1,28,-1
EndSplineSet
EndChar

StartChar: dollar
Encoding: 36 36 14
Width: 1024
VWidth: 0
Flags: MW
LayerCount: 2
Fore
SplineSet
427 1437 m 1,0,-1
 597 1437 l 1,1,-1
 597 1188 l 1,2,3
 615 1189 615 1189 642 1189 c 0,4,5
 703 1189 703 1189 758.5 1185 c 128,-1,6
 814 1181 814 1181 839 1177 c 2,7,-1
 864 1173 l 1,8,-1
 864 1024 l 1,9,-1
 576 1024 l 1,10,-1
 576 694 l 1,11,12
 636 678 636 678 675 665 c 128,-1,13
 714 652 714 652 763.5 627.5 c 128,-1,14
 813 603 813 603 842 575 c 128,-1,15
 871 547 871 547 891.5 502.5 c 128,-1,16
 912 458 912 458 912 403 c 0,17,18
 912 276 912 276 832 205 c 128,-1,19
 752 134 752 134 597 108 c 1,20,-1
 597 -157 l 1,21,-1
 427 -157 l 1,22,-1
 427 92 l 1,23,24
 403 91 403 91 363 91 c 0,25,26
 299 91 299 91 240 95 c 128,-1,27
 181 99 181 99 154.5 103 c 2,28,-1
 128 107 l 1,29,-1
 128 256 l 1,30,-1
 448 256 l 1,31,-1
 448 586 l 1,32,33
 388 602 388 602 349 615 c 128,-1,34
 310 628 310 628 260.5 652.5 c 128,-1,35
 211 677 211 677 182 705 c 128,-1,36
 153 733 153 733 132.5 777.5 c 128,-1,37
 112 822 112 822 112 877 c 0,38,39
 112 1006 112 1006 192 1077.5 c 128,-1,40
 272 1149 272 1149 427 1174 c 1,41,-1
 427 1437 l 1,0,-1
448 1010 m 1,42,43
 282 980 282 980 282 877 c 0,44,45
 282 821 282 821 324.5 787.5 c 128,-1,46
 367 754 367 754 448 729 c 1,47,-1
 448 1010 l 1,42,43
576 551 m 1,48,-1
 576 272 l 1,49,50
 742 303 742 303 742 403 c 0,51,52
 742 459 742 459 699.5 492.5 c 128,-1,53
 657 526 657 526 576 551 c 1,48,-1
EndSplineSet
EndChar

StartChar: percent
Encoding: 37 37 15
Width: 1024
VWidth: 0
Flags: MW
LayerCount: 2
Fore
SplineSet
128 1280 m 1,0,-1
 339 1280 l 1,1,-1
 339 960 l 1,2,-1
 128 960 l 1,3,-1
 128 1280 l 1,0,-1
766 1280 m 1,4,-1
 960 1280 l 1,5,-1
 258 0 l 1,6,-1
 64 0 l 1,7,-1
 766 1280 l 1,4,-1
685 320 m 1,8,-1
 896 320 l 1,9,-1
 896 0 l 1,10,-1
 685 0 l 1,11,-1
 685 320 l 1,8,-1
EndSplineSet
EndChar

StartChar: ampersand
Encoding: 38 38 16
Width: 1024
VWidth: 0
Flags: MW
LayerCount: 2
Fore
SplineSet
503 1288 m 0,0,1
 538 1288 538 1288 569.5 1284 c 128,-1,2
 601 1280 601 1280 615.5 1276 c 2,3,-1
 630 1272 l 1,4,-1
 630 1123 l 1,5,-1
 503 1123 l 2,6,7
 402 1123 402 1123 350 1082.5 c 128,-1,8
 298 1042 298 1042 298 946 c 0,9,10
 298 864 298 864 332.5 816 c 128,-1,11
 367 768 367 768 425 768 c 2,12,-1
 630 768 l 1,13,-1
 630 987 l 1,14,-1
 800 987 l 1,15,-1
 800 768 l 1,16,-1
 960 768 l 1,17,-1
 960 611 l 1,18,-1
 800 611 l 1,19,-1
 800 321 l 2,20,21
 800 224 800 224 841 182.5 c 128,-1,22
 882 141 882 141 960 141 c 1,23,-1
 960 -8 l 1,24,25
 730 -8 730 -8 662 142 c 1,26,-1
 512 -8 l 1,27,28
 292 -8 292 -8 178 81.5 c 128,-1,29
 64 171 64 171 64 380 c 0,30,31
 64 449 64 449 81.5 508 c 128,-1,32
 99 567 99 567 124 602 c 128,-1,33
 149 637 149 637 174 662.5 c 128,-1,34
 199 688 199 688 216.5 698 c 2,35,-1
 234 708 l 1,36,37
 230 710 230 710 222.5 715 c 128,-1,38
 215 720 215 720 197 740 c 128,-1,39
 179 760 179 760 165 784.5 c 128,-1,40
 151 809 151 809 139.5 852.5 c 128,-1,41
 128 896 128 896 128 946 c 0,42,43
 128 1131 128 1131 223.5 1209.5 c 128,-1,44
 319 1288 319 1288 503 1288 c 0,0,1
385 611 m 2,45,46
 315 611 315 611 274.5 549 c 128,-1,47
 234 487 234 487 234 380 c 128,-1,48
 234 273 234 273 308.5 211 c 128,-1,49
 383 149 383 149 512 149 c 2,50,-1
 659 149 l 1,51,52
 630 218 630 218 630 321 c 2,53,-1
 630 611 l 1,54,-1
 385 611 l 2,45,46
EndSplineSet
EndChar

StartChar: quotesingle
Encoding: 39 39 17
Width: 1024
VWidth: 0
Flags: MW
LayerCount: 2
Fore
SplineSet
427 1280 m 1,0,-1
 597 1280 l 1,1,-1
 585 768 l 1,2,-1
 439 768 l 1,3,-1
 427 1280 l 1,0,-1
EndSplineSet
EndChar

StartChar: parenleft
Encoding: 40 40 18
Width: 1024
VWidth: 0
Flags: MW
LayerCount: 2
Fore
SplineSet
662 1437 m 1,0,-1
 854 1437 l 1,1,2
 847 1432 847 1432 834 1421.5 c 128,-1,3
 821 1411 821 1411 783.5 1373.5 c 128,-1,4
 746 1336 746 1336 712.5 1292 c 128,-1,5
 679 1248 679 1248 637.5 1174.5 c 128,-1,6
 596 1101 596 1101 566.5 1020 c 128,-1,7
 537 939 537 939 516.5 826 c 128,-1,8
 496 713 496 713 496 591 c 128,-1,9
 496 469 496 469 515.5 356.5 c 128,-1,10
 535 244 535 244 567 161.5 c 128,-1,11
 599 79 599 79 637 7.5 c 128,-1,12
 675 -64 675 -64 713 -111 c 128,-1,13
 751 -158 751 -158 783 -192 c 128,-1,14
 815 -226 815 -226 834.5 -241 c 2,15,-1
 854 -256 l 1,16,-1
 662 -256 l 1,17,18
 655 -251 655 -251 642 -240.5 c 128,-1,19
 629 -230 629 -230 592.5 -192.5 c 128,-1,20
 556 -155 556 -155 523 -111 c 128,-1,21
 490 -67 490 -67 449 6.5 c 128,-1,22
 408 80 408 80 379 161.5 c 128,-1,23
 350 243 350 243 330 356 c 128,-1,24
 310 469 310 469 310 591 c 128,-1,25
 310 713 310 713 329.5 825.5 c 128,-1,26
 349 938 349 938 380 1020.5 c 128,-1,27
 411 1103 411 1103 448.5 1174.5 c 128,-1,28
 486 1246 486 1246 523.5 1293 c 128,-1,29
 561 1340 561 1340 592 1373.5 c 128,-1,30
 623 1407 623 1407 642.5 1422 c 2,31,-1
 662 1437 l 1,0,-1
EndSplineSet
EndChar

StartChar: asterisk
Encoding: 42 42 19
Width: 1024
VWidth: 0
Flags: MW
LayerCount: 2
Fore
SplineSet
439 1097 m 1,0,-1
 585 1097 l 1,1,-1
 581 746 l 1,2,-1
 915 858 l 1,3,-1
 960 719 l 1,4,-1
 625 614 l 1,5,-1
 835 332 l 1,6,-1
 717 246 l 1,7,-1
 512 534 l 1,8,-1
 307 246 l 1,9,-1
 189 332 l 1,10,-1
 399 614 l 1,11,-1
 64 719 l 1,12,-1
 109 858 l 1,13,-1
 443 746 l 1,14,-1
 439 1097 l 1,0,-1
EndSplineSet
EndChar

StartChar: plus
Encoding: 43 43 20
Width: 1024
VWidth: 0
Flags: MW
LayerCount: 2
Fore
SplineSet
427 1088 m 1,0,-1
 597 1088 l 1,1,-1
 597 719 l 1,2,-1
 960 719 l 1,3,-1
 960 561 l 1,4,-1
 597 561 l 1,5,-1
 597 192 l 1,6,-1
 427 192 l 1,7,-1
 427 561 l 1,8,-1
 64 561 l 1,9,-1
 64 719 l 1,10,-1
 427 719 l 1,11,-1
 427 1088 l 1,0,-1
EndSplineSet
EndChar

StartChar: comma
Encoding: 44 44 21
Width: 1024
VWidth: 0
Flags: MW
LayerCount: 2
Fore
SplineSet
384 416 m 1,0,-1
 640 416 l 1,1,-1
 640 160 l 2,2,3
 640 153 640 153 639 141.5 c 128,-1,4
 638 130 638 130 631.5 95.5 c 128,-1,5
 625 61 625 61 613 28 c 128,-1,6
 601 -5 601 -5 574.5 -48.5 c 128,-1,7
 548 -92 548 -92 512 -128 c 2,8,-1
 384 -256 l 1,9,-1
 256 -140 l 1,10,-1
 384 -12 l 2,11,12
 441 45 441 45 473 88 c 128,-1,13
 505 131 505 131 508.5 145.5 c 2,14,-1
 512 160 l 1,15,-1
 384 160 l 1,16,-1
 384 416 l 1,0,-1
EndSplineSet
EndChar

StartChar: hyphen
Encoding: 45 45 22
Width: 1024
VWidth: 0
Flags: MW
LayerCount: 2
Fore
SplineSet
192 719 m 1,0,-1
 832 719 l 1,1,-1
 832 561 l 1,2,-1
 192 561 l 1,3,-1
 192 719 l 1,0,-1
EndSplineSet
EndChar

StartChar: period
Encoding: 46 46 23
Width: 1024
VWidth: 0
Flags: MW
LayerCount: 2
Fore
SplineSet
640 0 m 1,0,-1
 384 0 l 1,1,-1
 384 320 l 1,2,-1
 640 320 l 1,3,-1
 640 0 l 1,0,-1
EndSplineSet
EndChar

StartChar: colon
Encoding: 58 58 24
Width: 1024
VWidth: 0
Flags: MW
LayerCount: 2
Fore
SplineSet
384 1184 m 1,0,-1
 640 1184 l 1,1,-1
 640 864 l 1,2,-1
 384 864 l 1,3,-1
 384 1184 l 1,0,-1
384 416 m 1,4,-1
 640 416 l 1,5,-1
 640 96 l 1,6,-1
 384 96 l 1,7,-1
 384 416 l 1,4,-1
EndSplineSet
EndChar

StartChar: semicolon
Encoding: 59 59 25
Width: 1024
VWidth: 0
Flags: MW
LayerCount: 2
Fore
SplineSet
384 1184 m 1,0,-1
 640 1184 l 1,1,-1
 640 864 l 1,2,-1
 384 864 l 1,3,-1
 384 1184 l 1,0,-1
384 416 m 1,4,-1
 640 416 l 1,5,-1
 640 159.994140625 l 2,6,7
 639.989840404 153.482227107 639.989840404 153.482227107 639.230824777 141.932849677 c 128,-1,8
 638.47180915 130.383472248 638.47180915 130.383472248 631.553550223 95.8824784475 c 128,-1,9
 624.635291296 61.3814846473 624.635291296 61.3814846473 612.607152902 28.2723653025 c 128,-1,10
 600.579014508 -4.83675404242 600.579014508 -4.83675404242 574.209643973 -48.4982403025 c 128,-1,11
 547.840273437 -92.1597265625 547.840273437 -92.1597265625 512 -128 c 2,12,-1
 384 -256 l 1,13,-1
 256 -140 l 1,14,-1
 384 -12 l 2,15,16
 441 45 441 45 473 88 c 128,-1,17
 505 131 505 131 508.5 145.5 c 2,18,-1
 512 160 l 1,19,-1
 384 160 l 1,20,-1
 384 416 l 1,4,-1
EndSplineSet
EndChar

StartChar: less
Encoding: 60 60 26
Width: 1024
VWidth: 0
Flags: MW
LayerCount: 2
Fore
SplineSet
836 1167 m 1,0,-1
 928 1024 l 1,1,-1
 331 640 l 1,2,-1
 928 256 l 1,3,-1
 836 113 l 1,4,-1
 96 589 l 1,5,-1
 96 691 l 1,6,-1
 836 1167 l 1,0,-1
EndSplineSet
EndChar

StartChar: equal
Encoding: 61 61 27
Width: 1024
VWidth: 0
Flags: MW
LayerCount: 2
Fore
SplineSet
96 925 m 1,0,-1
 928 925 l 1,1,-1
 928 768 l 1,2,-1
 96 768 l 1,3,-1
 96 925 l 1,0,-1
96 512 m 1,4,-1
 928 512 l 1,5,-1
 928 355 l 1,6,-1
 96 355 l 1,7,-1
 96 512 l 1,4,-1
EndSplineSet
EndChar

StartChar: question
Encoding: 63 63 28
Width: 1024
VWidth: 0
Flags: MW
LayerCount: 2
Fore
SplineSet
160 1272 m 1,0,1
 262 1288 262 1288 427 1288 c 0,2,3
 647 1288 647 1288 763.5 1211.5 c 128,-1,4
 880 1135 880 1135 880 964 c 0,5,6
 880 828 880 828 781 748.5 c 128,-1,7
 682 669 682 669 512 669 c 1,8,-1
 512 512 l 1,9,-1
 342 512 l 1,10,-1
 342 805 l 1,11,12
 522 805 522 805 616 842 c 128,-1,13
 710 879 710 879 710 964 c 0,14,15
 710 1050 710 1050 638 1086.5 c 128,-1,16
 566 1123 566 1123 427 1123 c 2,17,-1
 160 1123 l 1,18,-1
 160 1272 l 1,0,1
384 256 m 1,19,-1
 640 256 l 1,20,-1
 640 0 l 1,21,-1
 384 0 l 1,22,-1
 384 256 l 1,19,-1
EndSplineSet
EndChar

StartChar: at
Encoding: 64 64 29
Width: 1024
VWidth: 0
Flags: MW
LayerCount: 2
Fore
SplineSet
586 1296 m 0,0,1
 759 1296 759 1296 859.5 1217.5 c 128,-1,2
 960 1139 960 1139 960 1004 c 2,3,-1
 960 512 l 2,4,5
 960 430 960 430 928.5 398 c 128,-1,6
 897 366 897 366 814 366 c 2,7,-1
 627 366 l 2,8,9
 502 366 502 366 430 447.5 c 128,-1,10
 358 529 358 529 358 670 c 0,11,12
 358 783 358 783 430 848.5 c 128,-1,13
 502 914 502 914 627 914 c 2,14,-1
 814 914 l 1,15,-1
 814 1004 l 2,16,17
 814 1072 814 1072 753 1111 c 128,-1,18
 692 1150 692 1150 586 1150 c 0,19,20
 408 1150 408 1150 313 1029 c 128,-1,21
 218 908 218 908 218 640 c 0,22,23
 218 503 218 503 246 406.5 c 128,-1,24
 274 310 274 310 329.5 253.5 c 128,-1,25
 385 197 385 197 458.5 171.5 c 128,-1,26
 532 146 532 146 631 146 c 2,27,-1
 896 146 l 1,28,-1
 896 8 l 1,29,30
 795 -8 795 -8 631 -8 c 0,31,32
 520 -8 520 -8 432 12.5 c 128,-1,33
 344 33 344 33 271 80.5 c 128,-1,34
 198 128 198 128 149.5 202 c 128,-1,35
 101 276 101 276 74.5 386 c 128,-1,36
 48 496 48 496 48 640 c 0,37,38
 48 786 48 786 72.5 897 c 128,-1,39
 97 1008 97 1008 141.5 1083.5 c 128,-1,40
 186 1159 186 1159 253 1206.5 c 128,-1,41
 320 1254 320 1254 401.5 1275 c 128,-1,42
 483 1296 483 1296 586 1296 c 0,0,1
627 768 m 2,43,44
 574 768 574 768 543 742 c 128,-1,45
 512 716 512 716 512 670 c 0,46,47
 512 597 512 597 543 554.5 c 128,-1,48
 574 512 574 512 627 512 c 2,49,-1
 814 512 l 1,50,-1
 814 768 l 1,51,-1
 627 768 l 2,43,44
EndSplineSet
EndChar

StartChar: A
Encoding: 65 65 30
Width: 1024
VWidth: 0
Flags: MW
LayerCount: 2
Fore
SplineSet
410 1280 m 1,0,-1
 614 1280 l 1,1,-1
 992 0 l 1,2,-1
 815 0 l 1,3,-1
 729 291 l 1,4,-1
 295 291 l 1,5,-1
 209 0 l 1,6,-1
 32 0 l 1,7,-1
 410 1280 l 1,0,-1
512 1103 m 1,8,-1
 482 926 l 1,9,-1
 341 448 l 1,10,-1
 683 448 l 1,11,-1
 542 926 l 1,12,-1
 512 1103 l 1,8,-1
EndSplineSet
EndChar

StartChar: B
Encoding: 66 66 31
Width: 1024
VWidth: 0
Flags: MW
LayerCount: 2
Fore
SplineSet
128 1280 m 1,0,-1
 384 1280 l 2,1,2
 609 1280 609 1280 728.5 1201 c 128,-1,3
 848 1122 848 1122 848 946 c 0,4,5
 848 893 848 893 830.5 849 c 128,-1,6
 813 805 813 805 788 780 c 128,-1,7
 763 755 763 755 738 737.5 c 128,-1,8
 713 720 713 720 695.5 714 c 2,9,-1
 678 708 l 1,10,11
 689 705 689 705 707 699 c 128,-1,12
 725 693 725 693 770.5 668 c 128,-1,13
 816 643 816 643 851.5 610 c 128,-1,14
 887 577 887 577 915.5 517 c 128,-1,15
 944 457 944 457 944 384 c 0,16,17
 944 278 944 278 906 203 c 128,-1,18
 868 128 868 128 793 84 c 128,-1,19
 718 40 718 40 618 20 c 128,-1,20
 518 -0 518 -0 384 0 c 2,21,-1
 128 0 l 1,22,-1
 128 1280 l 1,0,-1
298 1123 m 1,23,-1
 298 768 l 1,24,-1
 384 768 l 2,25,26
 520 768 520 768 599 816 c 128,-1,27
 678 864 678 864 678 946 c 128,-1,28
 678 1028 678 1028 599 1075.5 c 128,-1,29
 520 1123 520 1123 384 1123 c 2,30,-1
 298 1123 l 1,23,-1
298 611 m 1,31,-1
 298 157 l 1,32,-1
 384 157 l 2,33,34
 481 157 481 157 548 166.5 c 128,-1,35
 615 176 615 176 668.5 200.5 c 128,-1,36
 722 225 722 225 748 270.5 c 128,-1,37
 774 316 774 316 774 384 c 128,-1,38
 774 452 774 452 748 497.5 c 128,-1,39
 722 543 722 543 668.5 567.5 c 128,-1,40
 615 592 615 592 548 601.5 c 128,-1,41
 481 611 481 611 384 611 c 2,42,-1
 298 611 l 1,31,-1
EndSplineSet
EndChar

StartChar: C
Encoding: 67 67 32
Width: 1024
VWidth: 0
Flags: MW
LayerCount: 2
Fore
SplineSet
665 1288 m 0,0,1
 729 1288 729 1288 786.5 1284 c 128,-1,2
 844 1280 844 1280 870 1276 c 2,3,-1
 896 1272 l 1,4,-1
 896 1123 l 1,5,-1
 665 1123 l 2,6,7
 491 1123 491 1123 390.5 993.5 c 128,-1,8
 290 864 290 864 290 640 c 0,9,10
 290 380 290 380 385.5 268.5 c 128,-1,11
 481 157 481 157 665 157 c 2,12,-1
 896 157 l 1,13,-1
 896 8 l 1,14,15
 808 -8 808 -8 665 -8 c 0,16,17
 532 -8 532 -8 433.5 25.5 c 128,-1,18
 335 59 335 59 261 133 c 128,-1,19
 187 207 187 207 149.5 334 c 128,-1,20
 112 461 112 461 112 640 c 0,21,22
 112 940 112 940 260.5 1114 c 128,-1,23
 409 1288 409 1288 665 1288 c 0,0,1
EndSplineSet
EndChar

StartChar: D
Encoding: 68 68 33
Width: 1024
VWidth: 0
Flags: MW
LayerCount: 2
Fore
SplineSet
128 1280 m 1,0,-1
 384 1280 l 2,1,2
 518 1280 518 1280 618 1247 c 128,-1,3
 718 1214 718 1214 793 1140.5 c 128,-1,4
 868 1067 868 1067 906 942 c 128,-1,5
 944 817 944 817 944 640 c 128,-1,6
 944 463 944 463 906 338 c 128,-1,7
 868 213 868 213 793 139.5 c 128,-1,8
 718 66 718 66 618 33 c 128,-1,9
 518 0 518 0 384 0 c 2,10,-1
 128 0 l 1,11,-1
 128 1280 l 1,0,-1
298 1123 m 1,12,-1
 298 157 l 1,13,-1
 384 157 l 2,14,15
 476 157 476 157 544 182 c 128,-1,16
 612 207 612 207 663 262.5 c 128,-1,17
 714 318 714 318 740 412.5 c 128,-1,18
 766 507 766 507 766 640 c 128,-1,19
 766 773 766 773 740 867.5 c 128,-1,20
 714 962 714 962 663 1017.5 c 128,-1,21
 612 1073 612 1073 544 1098 c 128,-1,22
 476 1123 476 1123 384 1123 c 2,23,-1
 298 1123 l 1,12,-1
EndSplineSet
EndChar

StartChar: E
Encoding: 69 69 34
Width: 1024
VWidth: 0
Flags: MW
LayerCount: 2
Fore
SplineSet
160 1280 m 1,0,-1
 896 1280 l 1,1,-1
 896 1123 l 1,2,-1
 330 1123 l 1,3,-1
 330 768 l 1,4,-1
 832 768 l 1,5,-1
 832 611 l 1,6,-1
 330 611 l 1,7,-1
 330 157 l 1,8,-1
 896 157 l 1,9,-1
 896 0 l 1,10,-1
 160 0 l 1,11,-1
 160 1280 l 1,0,-1
EndSplineSet
EndChar

StartChar: F
Encoding: 70 70 35
Width: 1024
VWidth: 0
Flags: MW
LayerCount: 2
Fore
SplineSet
160 1280 m 1,0,-1
 896 1280 l 1,1,-1
 896 1123 l 1,2,-1
 330 1123 l 1,3,-1
 330 768 l 1,4,-1
 864 768 l 1,5,-1
 864 611 l 1,6,-1
 330 611 l 1,7,-1
 330 0 l 1,8,-1
 160 0 l 1,9,-1
 160 1280 l 1,0,-1
EndSplineSet
EndChar

StartChar: G
Encoding: 71 71 36
Width: 1024
VWidth: 0
Flags: MW
LayerCount: 2
Fore
SplineSet
640 1288 m 0,0,1
 707 1288 707 1288 771 1284 c 128,-1,2
 835 1280 835 1280 865.5 1276 c 2,3,-1
 896 1272 l 1,4,-1
 896 1123 l 1,5,-1
 640 1123 l 2,6,7
 452 1123 452 1123 355 996 c 128,-1,8
 258 869 258 869 258 640 c 0,9,10
 258 505 258 505 279 408.5 c 128,-1,11
 300 312 300 312 341.5 256 c 128,-1,12
 383 200 383 200 438 174.5 c 128,-1,13
 493 149 493 149 567 149 c 0,14,15
 660 149 660 149 709 174 c 128,-1,16
 758 199 758 199 758 256 c 2,17,-1
 758 611 l 1,18,-1
 512 611 l 1,19,-1
 512 768 l 1,20,-1
 928 768 l 1,21,-1
 928 256 l 2,22,23
 928 114 928 114 836 53 c 128,-1,24
 744 -8 744 -8 567 -8 c 0,25,26
 450 -8 450 -8 363 25.5 c 128,-1,27
 276 59 276 59 211 133 c 128,-1,28
 146 207 146 207 113 334 c 128,-1,29
 80 461 80 461 80 640 c 0,30,31
 80 944 80 944 224.5 1116 c 128,-1,32
 369 1288 369 1288 640 1288 c 0,0,1
EndSplineSet
EndChar

StartChar: H
Encoding: 72 72 37
Width: 1024
VWidth: 0
Flags: MW
LayerCount: 2
Fore
SplineSet
96 1280 m 1,0,-1
 266 1280 l 1,1,-1
 266 768 l 1,2,-1
 758 768 l 1,3,-1
 758 1280 l 1,4,-1
 928 1280 l 1,5,-1
 928 0 l 1,6,-1
 758 0 l 1,7,-1
 758 611 l 1,8,-1
 266 611 l 1,9,-1
 266 0 l 1,10,-1
 96 0 l 1,11,-1
 96 1280 l 1,0,-1
EndSplineSet
EndChar

StartChar: I
Encoding: 73 73 38
Width: 1024
VWidth: 0
Flags: MW
LayerCount: 2
Fore
SplineSet
160 1280 m 1,0,-1
 864 1280 l 1,1,-1
 864 1123 l 1,2,-1
 597 1123 l 1,3,-1
 597 157 l 1,4,-1
 864 157 l 1,5,-1
 864 0 l 1,6,-1
 160 0 l 1,7,-1
 160 157 l 1,8,-1
 427 157 l 1,9,-1
 427 1123 l 1,10,-1
 160 1123 l 1,11,-1
 160 1280 l 1,0,-1
EndSplineSet
EndChar

StartChar: J
Encoding: 74 74 39
Width: 1024
VWidth: 0
Flags: MW
LayerCount: 2
Fore
SplineSet
192 1280 m 1,0,-1
 832 1280 l 1,1,-1
 832 526 l 2,2,3
 832 378 832 378 798 273.5 c 128,-1,4
 764 169 764 169 697 108 c 128,-1,5
 630 47 630 47 541 19.5 c 128,-1,6
 452 -8 452 -8 332 -8 c 0,7,8
 276 -8 276 -8 225 -4 c 128,-1,9
 174 -0 174 -0 151 4 c 2,10,-1
 128 8 l 1,11,-1
 128 157 l 1,12,-1
 332 157 l 2,13,14
 494 157 494 157 578 242 c 128,-1,15
 662 327 662 327 662 526 c 2,16,-1
 662 1123 l 1,17,-1
 192 1123 l 1,18,-1
 192 1280 l 1,0,-1
EndSplineSet
EndChar

StartChar: K
Encoding: 75 75 40
Width: 1024
VWidth: 0
Flags: MW
LayerCount: 2
Fore
SplineSet
732 1280 m 1,0,-1
 928 1280 l 1,1,-1
 477 681 l 1,2,-1
 960 0 l 1,3,-1
 752 0 l 1,4,-1
 298 640 l 1,5,-1
 298 0 l 1,6,-1
 128 0 l 1,7,-1
 128 1280 l 1,8,-1
 298 1280 l 1,9,-1
 298 704 l 1,10,-1
 732 1280 l 1,0,-1
EndSplineSet
EndChar

StartChar: L
Encoding: 76 76 41
Width: 1024
VWidth: 0
Flags: MW
LayerCount: 2
Fore
SplineSet
160 1280 m 1,0,-1
 330 1280 l 1,1,-1
 330 157 l 1,2,-1
 896 157 l 1,3,-1
 896 0 l 1,4,-1
 160 0 l 1,5,-1
 160 1280 l 1,0,-1
EndSplineSet
EndChar

StartChar: M
Encoding: 77 77 42
Width: 1024
VWidth: 0
Flags: MW
LayerCount: 2
Fore
SplineSet
64 1280 m 1,0,-1
 221 1280 l 1,1,-1
 512 728 l 1,2,-1
 803 1280 l 1,3,-1
 960 1280 l 1,4,-1
 960 0 l 1,5,-1
 803 0 l 1,6,-1
 803 768 l 1,7,-1
 817 1024 l 1,8,-1
 698 768 l 1,9,-1
 563 512 l 1,10,-1
 461 512 l 1,11,-1
 326 768 l 1,12,-1
 207 1024 l 1,13,-1
 221 768 l 1,14,-1
 221 0 l 1,15,-1
 64 0 l 1,16,-1
 64 1280 l 1,0,-1
EndSplineSet
EndChar

StartChar: N
Encoding: 78 78 43
Width: 1024
VWidth: 0
Flags: MW
LayerCount: 2
Fore
SplineSet
96 1280 m 1,0,-1
 300 1280 l 1,1,-1
 651 512 l 1,2,-1
 762 256 l 1,3,-1
 758 512 l 1,4,-1
 758 1280 l 1,5,-1
 928 1280 l 1,6,-1
 928 0 l 1,7,-1
 723 0 l 1,8,-1
 373 768 l 1,9,-1
 262 1024 l 1,10,-1
 266 768 l 1,11,-1
 266 0 l 1,12,-1
 96 0 l 1,13,-1
 96 1280 l 1,0,-1
EndSplineSet
EndChar

StartChar: O
Encoding: 79 79 44
Width: 1024
VWidth: 0
Flags: MW
LayerCount: 2
Fore
SplineSet
80 640 m 128,-1,1
 80 821 80 821 109.5 949.5 c 128,-1,2
 139 1078 139 1078 196.5 1153 c 128,-1,3
 254 1228 254 1228 331 1262 c 128,-1,4
 408 1296 408 1296 512 1296 c 128,-1,5
 616 1296 616 1296 693 1262 c 128,-1,6
 770 1228 770 1228 827.5 1153 c 128,-1,7
 885 1078 885 1078 914.5 949.5 c 128,-1,8
 944 821 944 821 944 640 c 128,-1,9
 944 459 944 459 914.5 330.5 c 128,-1,10
 885 202 885 202 827.5 127 c 128,-1,11
 770 52 770 52 693 18 c 128,-1,12
 616 -16 616 -16 512 -16 c 128,-1,13
 408 -16 408 -16 331 18 c 128,-1,14
 254 52 254 52 196.5 127 c 128,-1,15
 139 202 139 202 109.5 330.5 c 128,-1,0
 80 459 80 459 80 640 c 128,-1,1
512 1139 m 128,-1,17
 451 1139 451 1139 405.5 1113 c 128,-1,18
 360 1087 360 1087 326.5 1030 c 128,-1,19
 293 973 293 973 275.5 875.5 c 128,-1,20
 258 778 258 778 258 640 c 128,-1,21
 258 502 258 502 275.5 404.5 c 128,-1,22
 293 307 293 307 326.5 250 c 128,-1,23
 360 193 360 193 405.5 167 c 128,-1,24
 451 141 451 141 512 141 c 128,-1,25
 573 141 573 141 618.5 167 c 128,-1,26
 664 193 664 193 697.5 250 c 128,-1,27
 731 307 731 307 748.5 404.5 c 128,-1,28
 766 502 766 502 766 640 c 128,-1,29
 766 778 766 778 748.5 875.5 c 128,-1,30
 731 973 731 973 697.5 1030 c 128,-1,31
 664 1087 664 1087 618.5 1113 c 128,-1,16
 573 1139 573 1139 512 1139 c 128,-1,17
EndSplineSet
EndChar

StartChar: P
Encoding: 80 80 45
Width: 1024
VWidth: 0
Flags: MW
LayerCount: 2
Fore
SplineSet
160 1280 m 1,0,-1
 604 1280 l 2,1,2
 761 1280 761 1280 852.5 1177 c 128,-1,3
 944 1074 944 1074 944 896 c 128,-1,4
 944 718 944 718 825 615 c 128,-1,5
 706 512 706 512 500 512 c 2,6,-1
 330 512 l 1,7,-1
 330 0 l 1,8,-1
 160 0 l 1,9,-1
 160 1280 l 1,0,-1
330 1123 m 1,10,-1
 330 669 l 1,11,-1
 500 669 l 2,12,13
 627 669 627 669 700.5 730 c 128,-1,14
 774 791 774 791 774 896 c 128,-1,15
 774 1001 774 1001 728.5 1062 c 128,-1,16
 683 1123 683 1123 604 1123 c 2,17,-1
 330 1123 l 1,10,-1
EndSplineSet
EndChar

StartChar: Q
Encoding: 81 81 46
Width: 1024
VWidth: 0
Flags: MW
LayerCount: 2
Fore
SplineSet
512 1296 m 128,-1,1
 772 1296 772 1296 874 1163.5 c 128,-1,2
 976 1031 976 1031 976 697 c 0,3,4
 976 391 976 391 891.5 258 c 128,-1,5
 807 125 807 125 597 106 c 1,6,-1
 597 -157 l 1,7,-1
 427 -157 l 1,8,-1
 427 106 l 1,9,10
 217 125 217 125 132.5 258 c 128,-1,11
 48 391 48 391 48 697 c 0,12,13
 48 1031 48 1031 150 1163.5 c 128,-1,0
 252 1296 252 1296 512 1296 c 128,-1,1
512 1139 m 128,-1,15
 346 1139 346 1139 281.5 1042.5 c 128,-1,16
 217 946 217 946 218 697 c 0,17,18
 219 473 219 473 269.5 377 c 128,-1,19
 320 281 320 281 448 266 c 1,20,-1
 448 697 l 1,21,-1
 576 697 l 1,22,-1
 576 266 l 1,23,24
 704 281 704 281 755 377 c 128,-1,25
 806 473 806 473 806 697 c 0,26,27
 806 946 806 946 742 1042.5 c 128,-1,14
 678 1139 678 1139 512 1139 c 128,-1,15
EndSplineSet
EndChar

StartChar: R
Encoding: 82 82 47
Width: 1024
VWidth: 0
Flags: MW
LayerCount: 2
Fore
SplineSet
128 1280 m 1,0,-1
 572 1280 l 2,1,2
 739 1280 739 1280 825.5 1203 c 128,-1,3
 912 1126 912 1126 912 946 c 0,4,5
 912 700 912 700 686 636 c 1,6,-1
 960 0 l 1,7,-1
 775 0 l 1,8,-1
 512 611 l 1,9,-1
 298 611 l 1,10,-1
 298 0 l 1,11,-1
 128 0 l 1,12,-1
 128 1280 l 1,0,-1
298 1123 m 1,13,-1
 298 768 l 1,14,-1
 468 768 l 2,15,16
 602 768 602 768 672 809 c 128,-1,17
 742 850 742 850 742 946 c 0,18,19
 742 1041 742 1041 698.5 1082 c 128,-1,20
 655 1123 655 1123 572 1123 c 2,21,-1
 298 1123 l 1,13,-1
EndSplineSet
EndChar

StartChar: S
Encoding: 83 83 48
Width: 1024
VWidth: 0
Flags: MW
LayerCount: 2
Fore
SplineSet
652 1288 m 0,0,1
 719 1288 719 1288 780 1284 c 128,-1,2
 841 1280 841 1280 868.5 1276 c 2,3,-1
 896 1272 l 1,4,-1
 896 1123 l 1,5,-1
 652 1123 l 2,6,7
 474 1123 474 1123 382 1080.5 c 128,-1,8
 290 1038 290 1038 290 939 c 0,9,10
 290 891 290 891 312.5 854 c 128,-1,11
 335 817 335 817 372.5 792 c 128,-1,12
 410 767 410 767 459.5 746.5 c 128,-1,13
 509 726 509 726 563 707 c 128,-1,14
 617 688 617 688 671 668 c 128,-1,15
 725 648 725 648 774.5 619.5 c 128,-1,16
 824 591 824 591 861.5 554.5 c 128,-1,17
 899 518 899 518 921.5 463.5 c 128,-1,18
 944 409 944 409 944 341 c 0,19,20
 944 208 944 208 887.5 133 c 128,-1,21
 831 58 831 58 704.5 25 c 128,-1,22
 578 -8 578 -8 352 -8 c 0,23,24
 282 -8 282 -8 218 -4 c 128,-1,25
 154 -0 154 -0 125 4 c 2,26,-1
 96 8 l 1,27,-1
 96 157 l 1,28,-1
 352 157 l 2,29,30
 585 157 585 157 675.5 197 c 128,-1,31
 766 237 766 237 766 341 c 0,32,33
 766 389 766 389 743.5 426 c 128,-1,34
 721 463 721 463 683.5 488 c 128,-1,35
 646 513 646 513 596.5 533.5 c 128,-1,36
 547 554 547 554 493 573 c 128,-1,37
 439 592 439 592 385 612 c 128,-1,38
 331 632 331 632 281.5 660.5 c 128,-1,39
 232 689 232 689 194.5 725.5 c 128,-1,40
 157 762 157 762 134.5 816.5 c 128,-1,41
 112 871 112 871 112 939 c 0,42,43
 112 1127 112 1127 249.5 1207.5 c 128,-1,44
 387 1288 387 1288 652 1288 c 0,0,1
EndSplineSet
EndChar

StartChar: T
Encoding: 84 84 49
Width: 1024
VWidth: 0
Flags: MW
LayerCount: 2
Fore
SplineSet
64 1280 m 1,0,-1
 960 1280 l 1,1,-1
 960 1123 l 1,2,-1
 597 1123 l 1,3,-1
 597 0 l 1,4,-1
 427 0 l 1,5,-1
 427 1123 l 1,6,-1
 64 1123 l 1,7,-1
 64 1280 l 1,0,-1
EndSplineSet
EndChar

StartChar: U
Encoding: 85 85 50
Width: 1024
VWidth: 0
Flags: MW
LayerCount: 2
Fore
SplineSet
96 1280 m 1,0,-1
 266 1280 l 1,1,-1
 266 576 l 2,2,3
 266 331 266 331 319.5 236 c 128,-1,4
 373 141 373 141 512 141 c 128,-1,5
 651 141 651 141 704.5 236 c 128,-1,6
 758 331 758 331 758 576 c 2,7,-1
 758 1280 l 1,8,-1
 928 1280 l 1,9,-1
 928 576 l 2,10,11
 928 406 928 406 907 295.5 c 128,-1,12
 886 185 886 185 836.5 114 c 128,-1,13
 787 43 787 43 709 13.5 c 128,-1,14
 631 -16 631 -16 512 -16 c 128,-1,15
 393 -16 393 -16 315 13.5 c 128,-1,16
 237 43 237 43 187.5 114 c 128,-1,17
 138 185 138 185 117 295.5 c 128,-1,18
 96 406 96 406 96 576 c 2,19,-1
 96 1280 l 1,0,-1
EndSplineSet
EndChar

StartChar: V
Encoding: 86 86 51
Width: 1024
VWidth: 0
Flags: MW
LayerCount: 2
Fore
SplineSet
32 1280 m 1,0,-1
 209 1280 l 1,1,-1
 482 354 l 1,2,-1
 512 177 l 1,3,-1
 542 354 l 1,4,-1
 815 1280 l 1,5,-1
 992 1280 l 1,6,-1
 614 0 l 1,7,-1
 410 0 l 1,8,-1
 32 1280 l 1,0,-1
EndSplineSet
EndChar

StartChar: W
Encoding: 87 87 52
Width: 1024
VWidth: 0
Flags: MW
LayerCount: 2
Fore
SplineSet
32 1280 m 1,0,-1
 189 1280 l 1,1,-1
 267 245 l 1,2,-1
 461 768 l 1,3,-1
 563 768 l 1,4,-1
 757 245 l 1,5,-1
 835 1280 l 1,6,-1
 992 1280 l 1,7,-1
 896 0 l 1,8,-1
 692 0 l 1,9,-1
 512 486 l 1,10,-1
 332 0 l 1,11,-1
 128 0 l 1,12,-1
 32 1280 l 1,0,-1
EndSplineSet
EndChar

StartChar: X
Encoding: 88 88 53
Width: 1024
VWidth: 0
Flags: MW
LayerCount: 2
Fore
SplineSet
32 1280 m 1,0,-1
 230 1280 l 1,1,-1
 512 790 l 1,2,-1
 794 1280 l 1,3,-1
 992 1280 l 1,4,-1
 611 640 l 1,5,-1
 992 0 l 1,6,-1
 794 0 l 1,7,-1
 512 490 l 1,8,-1
 230 0 l 1,9,-1
 32 0 l 1,10,-1
 413 640 l 1,11,-1
 32 1280 l 1,0,-1
EndSplineSet
EndChar

StartChar: Y
Encoding: 89 89 54
Width: 1024
VWidth: 0
Flags: MW
LayerCount: 2
Fore
SplineSet
32 1280 m 1,0,-1
 223 1280 l 1,1,-1
 512 700 l 1,2,-1
 801 1280 l 1,3,-1
 992 1280 l 1,4,-1
 597 512 l 1,5,-1
 597 0 l 1,6,-1
 427 0 l 1,7,-1
 427 512 l 1,8,-1
 32 1280 l 1,0,-1
EndSplineSet
EndChar

StartChar: Z
Encoding: 90 90 55
Width: 1024
VWidth: 0
Flags: MW
LayerCount: 2
Fore
SplineSet
896 1280 m 1,0,-1
 896 1123 l 1,1,-1
 283 157 l 1,2,-1
 928 157 l 1,3,-1
 928 0 l 1,4,-1
 96 0 l 1,5,-1
 96 157 l 1,6,-1
 709 1123 l 1,7,-1
 128 1123 l 1,8,-1
 128 1280 l 1,9,-1
 896 1280 l 1,0,-1
EndSplineSet
EndChar

StartChar: bracketleft
Encoding: 91 91 56
Width: 1024
VWidth: 0
Flags: MW
LayerCount: 2
Fore
SplineSet
822 1280 m 1,0,-1
 512 1280 l 1,1,-1
 512 -99 l 1,2,-1
 822 -99 l 1,3,-1
 822 -256 l 1,4,-1
 342 -256 l 1,5,-1
 342 1437 l 1,6,-1
 822 1437 l 1,7,-1
 822 1280 l 1,0,-1
EndSplineSet
EndChar

StartChar: asciicircum
Encoding: 94 94 57
Width: 1024
VWidth: 0
Flags: MW
LayerCount: 2
Fore
SplineSet
410 1280 m 1,0,-1
 614 1280 l 1,1,-1
 960 640 l 1,2,-1
 767 640 l 1,3,-1
 512 1111 l 1,4,-1
 257 640 l 1,5,-1
 64 640 l 1,6,-1
 410 1280 l 1,0,-1
EndSplineSet
EndChar

StartChar: underscore
Encoding: 95 95 58
Width: 1024
VWidth: 0
Flags: MW
LayerCount: 2
Fore
SplineSet
85 -99 m 1,0,-1
 939 -99 l 1,1,-1
 939 -256 l 1,2,-1
 85 -256 l 1,3,-1
 85 -99 l 1,0,-1
EndSplineSet
EndChar

StartChar: grave
Encoding: 96 96 59
Width: 1024
VWidth: 0
Flags: MW
LayerCount: 2
Fore
SplineSet
275 1141 m 1,0,-1
 395 1261 l 1,1,-1
 749 891 l 1,2,-1
 645 787 l 1,3,-1
 275 1141 l 1,0,-1
EndSplineSet
EndChar

StartChar: a
Encoding: 97 97 60
Width: 1024
VWidth: 0
Flags: MW
LayerCount: 2
Fore
SplineSet
416 1032 m 0,0,1
 686 1032 686 1032 791 958.5 c 128,-1,2
 896 885 896 885 896 696 c 2,3,-1
 896 256 l 2,4,5
 896 112 896 112 840 56 c 128,-1,6
 784 0 784 0 640 0 c 2,7,-1
 452 0 l 2,8,9
 294 0 294 0 203 88 c 128,-1,10
 112 176 112 176 112 328 c 0,11,12
 112 450 112 450 203 520.5 c 128,-1,13
 294 591 294 591 452 591 c 2,14,-1
 726 591 l 1,15,-1
 726 696 l 2,16,17
 726 792 726 792 658.5 829.5 c 128,-1,18
 591 867 591 867 416 867 c 2,19,-1
 224 867 l 1,20,-1
 224 1016 l 1,21,22
 297 1032 297 1032 416 1032 c 0,0,1
452 433 m 2,23,24
 373 433 373 433 327.5 405 c 128,-1,25
 282 377 282 377 282 328 c 0,26,27
 282 249 282 249 327.5 203 c 128,-1,28
 373 157 373 157 452 157 c 2,29,-1
 640 157 l 2,30,31
 689 157 689 157 707.5 178.5 c 128,-1,32
 726 200 726 200 726 256 c 2,33,-1
 726 433 l 1,34,-1
 452 433 l 2,23,24
EndSplineSet
EndChar

StartChar: b
Encoding: 98 98 61
Width: 1024
VWidth: 0
Flags: MW
LayerCount: 2
Fore
SplineSet
128 1280 m 1,0,-1
 298 1280 l 1,1,-1
 298 979 l 1,2,3
 403 1024 403 1024 512 1024 c 0,4,5
 697 1024 697 1024 804.5 893 c 128,-1,6
 912 762 912 762 912 536 c 0,7,8
 912 288 912 288 793 144 c 128,-1,9
 674 0 674 0 468 0 c 2,10,-1
 384 0 l 2,11,12
 240 0 240 0 184 56 c 128,-1,13
 128 112 128 112 128 256 c 2,14,-1
 128 1280 l 1,0,-1
512 867 m 0,15,16
 402 867 402 867 298 814 c 1,17,-1
 298 256 l 2,18,19
 298 210 298 210 321 183.5 c 128,-1,20
 344 157 344 157 384 157 c 2,21,-1
 468 157 l 2,22,23
 595 157 595 157 668.5 259 c 128,-1,24
 742 361 742 361 742 536 c 0,25,26
 742 690 742 690 680.5 778.5 c 128,-1,27
 619 867 619 867 512 867 c 0,15,16
EndSplineSet
EndChar

StartChar: c
Encoding: 99 99 62
Width: 1024
VWidth: 0
Flags: MW
LayerCount: 2
Fore
SplineSet
642 1032 m 0,0,1
 703 1032 703 1032 758.5 1028 c 128,-1,2
 814 1024 814 1024 839 1020 c 2,3,-1
 864 1016 l 1,4,-1
 864 867 l 1,5,-1
 642 867 l 2,6,7
 475 867 475 867 378.5 771.5 c 128,-1,8
 282 676 282 676 282 512 c 0,9,10
 282 321 282 321 374 239 c 128,-1,11
 466 157 466 157 642 157 c 2,12,-1
 864 157 l 1,13,-1
 864 8 l 1,14,15
 779 -8 779 -8 642 -8 c 0,16,17
 544 -8 544 -8 465 8.5 c 128,-1,18
 386 25 386 25 319 63 c 128,-1,19
 252 101 252 101 207 160.5 c 128,-1,20
 162 220 162 220 137 308.5 c 128,-1,21
 112 397 112 397 112 512 c 0,22,23
 112 751 112 751 257.5 891.5 c 128,-1,24
 403 1032 403 1032 642 1032 c 0,0,1
EndSplineSet
EndChar

StartChar: d
Encoding: 100 100 63
Width: 1024
VWidth: 0
Flags: MW
LayerCount: 2
Fore
SplineSet
896 1280 m 1,0,-1
 896 256 l 2,1,2
 896 112 896 112 840 56 c 128,-1,3
 784 0 784 0 640 0 c 2,4,-1
 556 0 l 2,5,6
 350 0 350 0 231 131 c 128,-1,7
 112 262 112 262 112 488 c 0,8,9
 112 736 112 736 219.5 880 c 128,-1,10
 327 1024 327 1024 512 1024 c 0,11,12
 621 1024 621 1024 726 979 c 1,13,-1
 726 1280 l 1,14,-1
 896 1280 l 1,0,-1
512 867 m 0,15,16
 405 867 405 867 343.5 765 c 128,-1,17
 282 663 282 663 282 488 c 0,18,19
 282 334 282 334 355.5 245.5 c 128,-1,20
 429 157 429 157 556 157 c 2,21,-1
 640 157 l 2,22,23
 680 157 680 157 703 183.5 c 128,-1,24
 726 210 726 210 726 256 c 2,25,-1
 726 814 l 1,26,27
 622 867 622 867 512 867 c 0,15,16
EndSplineSet
EndChar

StartChar: e
Encoding: 101 101 64
Width: 1024
VWidth: 0
Flags: MW
LayerCount: 2
Fore
SplineSet
561 -8 m 0,0,1
 353 -8 353 -8 232.5 131.5 c 128,-1,2
 112 271 112 271 112 512 c 0,3,4
 112 755 112 755 221 897.5 c 128,-1,5
 330 1040 330 1040 512 1040 c 128,-1,6
 694 1040 694 1040 803 937.5 c 128,-1,7
 912 835 912 835 912 660 c 2,8,-1
 912 591 l 2,9,10
 912 502 912 502 875 467.5 c 128,-1,11
 838 433 838 433 742 433 c 2,12,-1
 290 433 l 1,13,14
 290 427 290 427 290.5 417 c 128,-1,15
 291 407 291 407 296.5 378.5 c 128,-1,16
 302 350 302 350 311 324 c 128,-1,17
 320 298 320 298 340.5 266 c 128,-1,18
 361 234 361 234 388.5 211 c 128,-1,19
 416 188 416 188 461 172.5 c 128,-1,20
 506 157 506 157 561 157 c 2,21,-1
 832 157 l 1,22,-1
 832 8 l 1,23,24
 728 -8 728 -8 561 -8 c 0,0,1
742 591 m 1,25,-1
 742 660 l 2,26,27
 742 763 742 763 680.5 823 c 128,-1,28
 619 883 619 883 512 883 c 0,29,30
 467 883 467 883 430 867 c 128,-1,31
 393 851 393 851 370.5 825 c 128,-1,32
 348 799 348 799 331.5 768 c 128,-1,33
 315 737 315 737 307.5 706 c 128,-1,34
 300 675 300 675 295.5 649 c 128,-1,35
 291 623 291 623 290.5 607 c 2,36,-1
 290 591 l 1,37,-1
 742 591 l 1,25,-1
EndSplineSet
EndChar

StartChar: f
Encoding: 102 102 65
Width: 1024
VWidth: 0
Flags: MW
LayerCount: 2
Fore
SplineSet
928 1272 m 1,0,-1
 928 1123 l 1,1,-1
 720 1123 l 2,2,3
 596 1123 596 1123 554 1083.5 c 128,-1,4
 512 1044 512 1044 512 925 c 1,5,-1
 928 925 l 1,6,-1
 928 768 l 1,7,-1
 512 768 l 1,8,-1
 512 0 l 1,9,-1
 342 0 l 1,10,-1
 342 768 l 1,11,-1
 96 768 l 1,12,-1
 96 925 l 1,13,-1
 342 925 l 1,14,15
 342 1031 342 1031 358.5 1097 c 128,-1,16
 375 1163 375 1163 418 1207.5 c 128,-1,17
 461 1252 461 1252 533 1270 c 128,-1,18
 605 1288 605 1288 720 1288 c 0,19,20
 777 1288 777 1288 829 1284 c 128,-1,21
 881 1280 881 1280 904.5 1276 c 2,22,-1
 928 1272 l 1,0,-1
EndSplineSet
EndChar

StartChar: g
Encoding: 103 103 66
Width: 1024
VWidth: 0
Flags: MW
LayerCount: 2
Fore
SplineSet
556 1024 m 2,0,-1
 640 1024 l 2,1,2
 784 1024 784 1024 840 968 c 128,-1,3
 896 912 896 912 896 768 c 2,4,-1
 896 120 l 2,5,6
 896 -83 896 -83 773 -173.5 c 128,-1,7
 650 -264 650 -264 416 -264 c 0,8,9
 363 -264 363 -264 315 -260 c 128,-1,10
 267 -256 267 -256 245.5 -252 c 2,11,-1
 224 -248 l 1,12,-1
 224 -99 l 1,13,-1
 416 -99 l 2,14,15
 568 -99 568 -99 647 -48.5 c 128,-1,16
 726 2 726 2 726 120 c 2,17,-1
 726 256 l 1,18,-1
 512 256 l 2,19,20
 327 256 327 256 219.5 357.5 c 128,-1,21
 112 459 112 459 112 634 c 0,22,23
 112 815 112 815 231 919.5 c 128,-1,24
 350 1024 350 1024 556 1024 c 2,0,-1
556 867 m 2,25,26
 429 867 429 867 355.5 804.5 c 128,-1,27
 282 742 282 742 282 634 c 0,28,29
 282 531 282 531 343.5 472 c 128,-1,30
 405 413 405 413 512 413 c 2,31,-1
 726 413 l 1,32,-1
 726 768 l 2,33,34
 726 814 726 814 703 840.5 c 128,-1,35
 680 867 680 867 640 867 c 2,36,-1
 556 867 l 2,25,26
EndSplineSet
EndChar

StartChar: h
Encoding: 104 104 67
Width: 1024
VWidth: 0
Flags: MW
LayerCount: 2
Fore
SplineSet
128 1280 m 1,0,-1
 298 1280 l 1,1,-1
 298 979 l 1,2,3
 403 1024 403 1024 512 1024 c 0,4,5
 700 1024 700 1024 798 939.5 c 128,-1,6
 896 855 896 855 896 658 c 2,7,-1
 896 0 l 1,8,-1
 726 0 l 1,9,-1
 726 658 l 2,10,11
 723 771 723 771 669.5 819 c 128,-1,12
 616 867 616 867 512 867 c 0,13,14
 402 867 402 867 298 814 c 1,15,-1
 298 0 l 1,16,-1
 128 0 l 1,17,-1
 128 1280 l 1,0,-1
EndSplineSet
EndChar

StartChar: i
Encoding: 105 105 68
Width: 1024
VWidth: 0
Flags: MW
LayerCount: 2
Fore
SplineSet
326 1374 m 1,0,-1
 627 1374 l 1,1,-1
 627 1188 l 1,2,-1
 326 1188 l 1,3,-1
 326 1374 l 1,0,-1
160 925 m 1,4,-1
 597 925 l 1,5,-1
 597 157 l 1,6,-1
 896 157 l 1,7,-1
 896 0 l 1,8,-1
 128 0 l 1,9,-1
 128 157 l 1,10,-1
 427 157 l 1,11,-1
 427 768 l 1,12,-1
 160 768 l 1,13,-1
 160 925 l 1,4,-1
EndSplineSet
EndChar

StartChar: j
Encoding: 106 106 69
Width: 1024
VWidth: 0
Flags: MW
LayerCount: 2
Fore
SplineSet
529 1374 m 1,0,-1
 830 1374 l 1,1,-1
 830 1188 l 1,2,-1
 529 1188 l 1,3,-1
 529 1374 l 1,0,-1
192 925 m 1,4,-1
 800 925 l 1,5,-1
 800 120 l 2,6,7
 800 -87 800 -87 677.5 -175.5 c 128,-1,8
 555 -264 555 -264 320 -264 c 0,9,10
 267 -264 267 -264 219 -260 c 128,-1,11
 171 -256 171 -256 149.5 -252 c 2,12,-1
 128 -248 l 1,13,-1
 128 -99 l 1,14,-1
 320 -99 l 2,15,16
 472 -99 472 -99 551 -48.5 c 128,-1,17
 630 2 630 2 630 120 c 2,18,-1
 630 768 l 1,19,-1
 192 768 l 1,20,-1
 192 925 l 1,4,-1
EndSplineSet
EndChar

StartChar: k
Encoding: 107 107 70
Width: 1024
VWidth: 0
Flags: MW
LayerCount: 2
Fore
SplineSet
128 1280 m 1,0,-1
 298 1280 l 1,1,-1
 298 656 l 1,2,-1
 672 1024 l 1,3,-1
 896 1024 l 1,4,-1
 492 627 l 1,5,-1
 960 0 l 1,6,-1
 764 0 l 1,7,-1
 298 624 l 1,8,-1
 298 0 l 1,9,-1
 128 0 l 1,10,-1
 128 1280 l 1,0,-1
EndSplineSet
EndChar

StartChar: l
Encoding: 108 108 71
Width: 1024
VWidth: 0
Flags: MW
LayerCount: 2
Fore
SplineSet
160 1280 m 1,0,-1
 597 1280 l 1,1,-1
 597 157 l 1,2,-1
 896 157 l 1,3,-1
 896 0 l 1,4,-1
 128 0 l 1,5,-1
 128 157 l 1,6,-1
 427 157 l 1,7,-1
 427 1123 l 1,8,-1
 160 1123 l 1,9,-1
 160 1280 l 1,0,-1
EndSplineSet
EndChar

StartChar: m
Encoding: 109 109 72
Width: 1024
VWidth: 0
Flags: MW
LayerCount: 2
Fore
SplineSet
327 1032 m 0,0,1
 368 1032 368 1032 402.5 1025 c 128,-1,2
 437 1018 437 1018 458 1007.5 c 128,-1,3
 479 997 479 997 493.5 987 c 128,-1,4
 508 977 508 977 514 970 c 2,5,-1
 520 963 l 1,6,7
 523 966 523 966 528 970.5 c 128,-1,8
 533 975 533 975 550.5 987 c 128,-1,9
 568 999 568 999 587.5 1008 c 128,-1,10
 607 1017 607 1017 636.5 1024.5 c 128,-1,11
 666 1032 666 1032 697 1032 c 0,12,13
 820 1032 820 1032 890 962.5 c 128,-1,14
 960 893 960 893 960 768 c 2,15,-1
 960 0 l 1,16,-1
 803 0 l 1,17,-1
 803 768 l 2,18,19
 803 827 803 827 774.5 860.5 c 128,-1,20
 746 894 746 894 697 894 c 0,21,22
 668 894 668 894 641.5 882 c 128,-1,23
 615 870 615 870 603 858 c 2,24,-1
 591 846 l 1,25,-1
 591 0 l 1,26,-1
 433 0 l 1,27,-1
 433 768 l 2,28,29
 433 826 433 826 405 860 c 128,-1,30
 377 894 377 894 327 894 c 0,31,32
 298 894 298 894 271.5 882 c 128,-1,33
 245 870 245 870 233 858 c 2,34,-1
 221 846 l 1,35,-1
 221 0 l 1,36,-1
 64 0 l 1,37,-1
 64 936 l 1,38,39
 68 940 68 940 75.5 946.5 c 128,-1,40
 83 953 83 953 109.5 969.5 c 128,-1,41
 136 986 136 986 164.5 998.5 c 128,-1,42
 193 1011 193 1011 237 1021.5 c 128,-1,43
 281 1032 281 1032 327 1032 c 0,0,1
EndSplineSet
EndChar

StartChar: n
Encoding: 110 110 73
Width: 1024
VWidth: 0
Flags: MW
LayerCount: 2
Fore
SplineSet
896 0 m 1,0,-1
 726 0 l 1,1,-1
 726 658 l 2,2,3
 726 779 726 779 671.5 831 c 128,-1,4
 617 883 617 883 512 883 c 0,5,6
 453 883 453 883 399.5 872 c 128,-1,7
 346 861 346 861 322 850 c 2,8,-1
 298 839 l 1,9,-1
 298 0 l 1,10,-1
 128 0 l 1,11,-1
 128 936 l 1,12,13
 134 940 134 940 145.5 947 c 128,-1,14
 157 954 157 954 195 972 c 128,-1,15
 233 990 233 990 274.5 1004 c 128,-1,16
 316 1018 316 1018 381 1029 c 128,-1,17
 446 1040 446 1040 512 1040 c 0,18,19
 700 1040 700 1040 798 952 c 128,-1,20
 896 864 896 864 896 658 c 2,21,-1
 896 0 l 1,0,-1
EndSplineSet
EndChar

StartChar: o
Encoding: 111 111 74
Width: 1024
VWidth: 0
Flags: MW
LayerCount: 2
Fore
SplineSet
80 512 m 128,-1,1
 80 658 80 658 109.5 761 c 128,-1,2
 139 864 139 864 196.5 924.5 c 128,-1,3
 254 985 254 985 331 1012.5 c 128,-1,4
 408 1040 408 1040 512 1040 c 128,-1,5
 616 1040 616 1040 693 1012.5 c 128,-1,6
 770 985 770 985 827.5 924.5 c 128,-1,7
 885 864 885 864 914.5 761 c 128,-1,8
 944 658 944 658 944 512 c 128,-1,9
 944 366 944 366 914.5 263 c 128,-1,10
 885 160 885 160 827.5 99.5 c 128,-1,11
 770 39 770 39 693 11.5 c 128,-1,12
 616 -16 616 -16 512 -16 c 128,-1,13
 408 -16 408 -16 331 11.5 c 128,-1,14
 254 39 254 39 196.5 99.5 c 128,-1,15
 139 160 139 160 109.5 263 c 128,-1,0
 80 366 80 366 80 512 c 128,-1,1
512 883 m 128,-1,17
 384 883 384 883 317 797.5 c 128,-1,18
 250 712 250 712 250 512 c 128,-1,19
 250 312 250 312 317 226.5 c 128,-1,20
 384 141 384 141 512 141 c 128,-1,21
 640 141 640 141 707 226.5 c 128,-1,22
 774 312 774 312 774 512 c 128,-1,23
 774 712 774 712 707 797.5 c 128,-1,16
 640 883 640 883 512 883 c 128,-1,17
EndSplineSet
EndChar

StartChar: p
Encoding: 112 112 75
Width: 1024
VWidth: 0
Flags: MW
LayerCount: 2
Fore
SplineSet
384 1024 m 2,0,-1
 512 1024 l 2,1,2
 697 1024 697 1024 804.5 922.5 c 128,-1,3
 912 821 912 821 912 646 c 0,4,5
 912 465 912 465 793 360.5 c 128,-1,6
 674 256 674 256 468 256 c 2,7,-1
 298 256 l 1,8,-1
 298 -256 l 1,9,-1
 128 -256 l 1,10,-1
 128 768 l 2,11,12
 128 912 128 912 184 968 c 128,-1,13
 240 1024 240 1024 384 1024 c 2,0,-1
384 867 m 2,14,15
 344 867 344 867 321 840.5 c 128,-1,16
 298 814 298 814 298 768 c 2,17,-1
 298 413 l 1,18,-1
 468 413 l 2,19,20
 595 413 595 413 668.5 475.5 c 128,-1,21
 742 538 742 538 742 646 c 0,22,23
 742 749 742 749 680.5 808 c 128,-1,24
 619 867 619 867 512 867 c 2,25,-1
 384 867 l 2,14,15
EndSplineSet
EndChar

StartChar: q
Encoding: 113 113 76
Width: 1024
VWidth: 0
Flags: MW
LayerCount: 2
Fore
SplineSet
556 1024 m 2,0,-1
 640 1024 l 2,1,2
 784 1024 784 1024 840 968 c 128,-1,3
 896 912 896 912 896 768 c 2,4,-1
 896 -256 l 1,5,-1
 726 -256 l 1,6,-1
 726 256 l 1,7,-1
 512 256 l 2,8,9
 327 256 327 256 219.5 357.5 c 128,-1,10
 112 459 112 459 112 634 c 0,11,12
 112 815 112 815 231 919.5 c 128,-1,13
 350 1024 350 1024 556 1024 c 2,0,-1
556 867 m 2,14,15
 429 867 429 867 355.5 804.5 c 128,-1,16
 282 742 282 742 282 634 c 0,17,18
 282 531 282 531 343.5 472 c 128,-1,19
 405 413 405 413 512 413 c 2,20,-1
 726 413 l 1,21,-1
 726 768 l 2,22,23
 726 814 726 814 703 840.5 c 128,-1,24
 680 867 680 867 640 867 c 2,25,-1
 556 867 l 2,14,15
EndSplineSet
EndChar

StartChar: r
Encoding: 114 114 77
Width: 1024
VWidth: 0
Flags: MW
LayerCount: 2
Fore
SplineSet
928 658 m 1,0,-1
 758 658 l 1,1,2
 758 779 758 779 703.5 831 c 128,-1,3
 649 883 649 883 544 883 c 0,4,5
 485 883 485 883 431.5 872 c 128,-1,6
 378 861 378 861 354 850 c 2,7,-1
 330 839 l 1,8,-1
 330 0 l 1,9,-1
 160 0 l 1,10,-1
 160 936 l 1,11,12
 166 940 166 940 177.5 947 c 128,-1,13
 189 954 189 954 227 972 c 128,-1,14
 265 990 265 990 306.5 1004 c 128,-1,15
 348 1018 348 1018 413 1029 c 128,-1,16
 478 1040 478 1040 544 1040 c 0,17,18
 732 1040 732 1040 830 952 c 128,-1,19
 928 864 928 864 928 658 c 1,0,-1
EndSplineSet
EndChar

StartChar: s
Encoding: 115 115 78
Width: 1024
VWidth: 0
Flags: MW
LayerCount: 2
Fore
SplineSet
634 1032 m 0,0,1
 688 1032 688 1032 737.5 1028 c 128,-1,2
 787 1024 787 1024 809.5 1020 c 2,3,-1
 832 1016 l 1,4,-1
 832 867 l 1,5,-1
 634 867 l 2,6,7
 477 867 477 867 395.5 835.5 c 128,-1,8
 314 804 314 804 314 731 c 0,9,10
 314 687 314 687 345 656.5 c 128,-1,11
 376 626 376 626 426 608.5 c 128,-1,12
 476 591 476 591 536.5 576 c 128,-1,13
 597 561 597 561 657.5 541.5 c 128,-1,14
 718 522 718 522 768 493.5 c 128,-1,15
 818 465 818 465 849 414 c 128,-1,16
 880 363 880 363 880 292 c 0,17,18
 880 130 880 130 750 61 c 128,-1,19
 620 -8 620 -8 370 -8 c 0,20,21
 312 -8 312 -8 259.5 -4 c 128,-1,22
 207 -0 207 -0 183.5 4 c 2,23,-1
 160 8 l 1,24,-1
 160 157 l 1,25,-1
 370 157 l 2,26,27
 537 157 537 157 623.5 188 c 128,-1,28
 710 219 710 219 710 292 c 0,29,30
 710 331 710 331 685.5 360 c 128,-1,31
 661 389 661 389 621.5 405 c 128,-1,32
 582 421 582 421 531 436.5 c 128,-1,33
 480 452 480 452 427 464 c 128,-1,34
 374 476 374 476 323 497.5 c 128,-1,35
 272 519 272 519 232.5 546.5 c 128,-1,36
 193 574 193 574 168.5 621.5 c 128,-1,37
 144 669 144 669 144 731 c 0,38,39
 144 893 144 893 269 962.5 c 128,-1,40
 394 1032 394 1032 634 1032 c 0,0,1
EndSplineSet
EndChar

StartChar: t
Encoding: 116 116 79
Width: 1024
VWidth: 0
Flags: MW
LayerCount: 2
Fore
SplineSet
864 8 m 1,0,1
 803 -8 803 -8 704 -8 c 0,2,3
 526 -8 526 -8 434 66 c 128,-1,4
 342 140 342 140 342 314 c 2,5,-1
 342 768 l 1,6,-1
 64 768 l 1,7,-1
 64 925 l 1,8,-1
 342 925 l 1,9,-1
 342 1280 l 1,10,-1
 512 1280 l 1,11,-1
 512 925 l 1,12,-1
 928 925 l 1,13,-1
 928 768 l 1,14,-1
 512 768 l 1,15,-1
 512 314 l 2,16,17
 512 229 512 229 561 193 c 128,-1,18
 610 157 610 157 704 157 c 2,19,-1
 864 157 l 1,20,-1
 864 8 l 1,0,1
EndSplineSet
EndChar

StartChar: u
Encoding: 117 117 80
Width: 1024
VWidth: 0
Flags: MW
LayerCount: 2
Fore
SplineSet
128 1024 m 1,0,-1
 298 1024 l 1,1,-1
 298 366 l 2,2,3
 298 245 298 245 352.5 193 c 128,-1,4
 407 141 407 141 512 141 c 0,5,6
 571 141 571 141 624.5 152 c 128,-1,7
 678 163 678 163 702 174 c 2,8,-1
 726 185 l 1,9,-1
 726 1024 l 1,10,-1
 896 1024 l 1,11,-1
 896 88 l 1,12,13
 890 84 890 84 878.5 77 c 128,-1,14
 867 70 867 70 829 52 c 128,-1,15
 791 34 791 34 749.5 20 c 128,-1,16
 708 6 708 6 643 -5 c 128,-1,17
 578 -16 578 -16 512 -16 c 0,18,19
 324 -16 324 -16 226 72 c 128,-1,20
 128 160 128 160 128 366 c 2,21,-1
 128 1024 l 1,0,-1
EndSplineSet
EndChar

StartChar: v
Encoding: 118 118 81
Width: 1024
VWidth: 0
Flags: MW
LayerCount: 2
Fore
SplineSet
64 1024 m 1,0,-1
 243 1024 l 1,1,-1
 469 354 l 1,2,-1
 512 177 l 1,3,-1
 555 354 l 1,4,-1
 781 1024 l 1,5,-1
 960 1024 l 1,6,-1
 614 0 l 1,7,-1
 410 0 l 1,8,-1
 64 1024 l 1,0,-1
EndSplineSet
EndChar

StartChar: w
Encoding: 119 119 82
Width: 1024
VWidth: 0
Flags: MW
LayerCount: 2
Fore
SplineSet
32 1024 m 1,0,-1
 190 1024 l 1,1,-1
 270 354 l 1,2,-1
 286 177 l 1,3,-1
 328 354 l 1,4,-1
 461 768 l 1,5,-1
 563 768 l 1,6,-1
 696 354 l 1,7,-1
 738 177 l 1,8,-1
 754 354 l 1,9,-1
 834 1024 l 1,10,-1
 992 1024 l 1,11,-1
 870 0 l 1,12,-1
 666 0 l 1,13,-1
 512 536 l 1,14,-1
 358 0 l 1,15,-1
 154 0 l 1,16,-1
 32 1024 l 1,0,-1
EndSplineSet
EndChar

StartChar: x
Encoding: 120 120 83
Width: 1024
VWidth: 0
Flags: MW
LayerCount: 2
Fore
SplineSet
64 1024 m 1,0,-1
 269 1024 l 1,1,-1
 512 640 l 1,2,-1
 755 1024 l 1,3,-1
 960 1024 l 1,4,-1
 615 512 l 1,5,-1
 960 0 l 1,6,-1
 755 0 l 1,7,-1
 512 384 l 1,8,-1
 269 0 l 1,9,-1
 64 0 l 1,10,-1
 409 512 l 1,11,-1
 64 1024 l 1,0,-1
EndSplineSet
EndChar

StartChar: y
Encoding: 121 121 84
Width: 1024
VWidth: 0
Flags: MW
LayerCount: 2
Fore
SplineSet
128 1024 m 1,0,-1
 298 1024 l 1,1,-1
 298 566 l 2,2,3
 298 495 298 495 355.5 454 c 128,-1,4
 413 413 413 413 512 413 c 2,5,-1
 726 413 l 1,6,-1
 726 1024 l 1,7,-1
 896 1024 l 1,8,-1
 896 120 l 2,9,10
 896 -87 896 -87 773.5 -175.5 c 128,-1,11
 651 -264 651 -264 416 -264 c 0,12,13
 363 -264 363 -264 315 -260 c 128,-1,14
 267 -256 267 -256 245.5 -252 c 2,15,-1
 224 -248 l 1,16,-1
 224 -99 l 1,17,-1
 416 -99 l 2,18,19
 568 -99 568 -99 647 -48.5 c 128,-1,20
 726 2 726 2 726 120 c 2,21,-1
 726 256 l 1,22,-1
 512 256 l 2,23,24
 334 256 334 256 231 339 c 128,-1,25
 128 422 128 422 128 566 c 2,26,-1
 128 1024 l 1,0,-1
EndSplineSet
EndChar

StartChar: z
Encoding: 122 122 85
Width: 1024
VWidth: 0
Flags: MW
LayerCount: 2
Fore
SplineSet
160 1024 m 1,0,-1
 864 1024 l 1,1,-1
 864 867 l 1,2,-1
 325 157 l 1,3,-1
 896 157 l 1,4,-1
 896 0 l 1,5,-1
 128 0 l 1,6,-1
 128 157 l 1,7,-1
 667 867 l 1,8,-1
 160 867 l 1,9,-1
 160 1024 l 1,0,-1
EndSplineSet
EndChar

StartChar: braceleft
Encoding: 123 123 86
Width: 1024
VWidth: 0
Flags: MW
LayerCount: 2
Fore
SplineSet
822 1280 m 1,0,-1
 704 1280 l 2,1,2
 615 1280 615 1280 563.5 1228.5 c 128,-1,3
 512 1177 512 1177 512 1088 c 2,4,-1
 528 669 l 1,5,-1
 382 653 l 1,6,-1
 382 528 l 1,7,-1
 528 512 l 1,8,-1
 512 93 l 2,9,10
 509 5 509 5 561.5 -47 c 128,-1,11
 614 -99 614 -99 704 -99 c 2,12,-1
 822 -99 l 1,13,-1
 822 -256 l 1,14,-1
 704 -256 l 2,15,16
 536 -256 536 -256 439 -162.5 c 128,-1,17
 342 -69 342 -69 342 93 c 1,18,-1
 382 512 l 1,19,-1
 64 512 l 1,20,-1
 64 669 l 1,21,-1
 382 669 l 1,22,-1
 342 1088 l 2,23,24
 327 1246 327 1246 429.5 1341.5 c 128,-1,25
 532 1437 532 1437 704 1437 c 2,26,-1
 822 1437 l 1,27,-1
 822 1280 l 1,0,-1
EndSplineSet
EndChar

StartChar: bar
Encoding: 124 124 87
Width: 1024
VWidth: 0
Flags: MW
LayerCount: 2
Fore
SplineSet
597 -256 m 1,0,-1
 427 -256 l 1,1,-1
 427 1437 l 1,2,-1
 597 1437 l 1,3,-1
 597 -256 l 1,0,-1
EndSplineSet
EndChar

StartChar: asciitilde
Encoding: 126 126 88
Width: 1024
VWidth: 0
Flags: MW
LayerCount: 2
Fore
SplineSet
64 379 m 1,0,1
 64 584 64 584 89 699 c 128,-1,2
 114 814 114 814 169.5 865.5 c 128,-1,3
 225 917 225 917 325 917 c 0,4,5
 389 917 389 917 436 899 c 128,-1,6
 483 881 483 881 508 852 c 128,-1,7
 533 823 533 823 550.5 785.5 c 128,-1,8
 568 748 568 748 574.5 708.5 c 128,-1,9
 581 669 581 669 589 631.5 c 128,-1,10
 597 594 597 594 605.5 565 c 128,-1,11
 614 536 614 536 633.5 518 c 128,-1,12
 653 500 653 500 683 500 c 0,13,14
 757 500 757 500 785.5 587.5 c 128,-1,15
 814 675 814 675 814 901 c 1,16,-1
 960 901 l 1,17,18
 960 696 960 696 935 581 c 128,-1,19
 910 466 910 466 854.5 415 c 128,-1,20
 799 364 799 364 699 364 c 0,21,22
 635 364 635 364 588 382 c 128,-1,23
 541 400 541 400 516 429 c 128,-1,24
 491 458 491 458 473.5 495.5 c 128,-1,25
 456 533 456 533 449.5 572.5 c 128,-1,26
 443 612 443 612 435 649.5 c 128,-1,27
 427 687 427 687 418.5 716 c 128,-1,28
 410 745 410 745 390.5 763 c 128,-1,29
 371 781 371 781 341 781 c 0,30,31
 267 781 267 781 238.5 693 c 128,-1,32
 210 605 210 605 210 379 c 1,33,-1
 64 379 l 1,0,1
EndSplineSet
EndChar

StartChar: .notdef
Encoding: 65536 -1 89
Width: 1024
VWidth: 0
Flags: MW
LayerCount: 2
Fore
SplineSet
320 1280 m 2,0,-1
 433 1280 l 1,1,-1
 433 1152 l 1,2,-1
 320 1152 l 2,3,4
 267 1152 267 1152 229.5 1114.5 c 128,-1,5
 192 1077 192 1077 192 1024 c 2,6,-1
 192 768 l 1,7,-1
 64 768 l 1,8,-1
 64 1024 l 2,9,10
 64 1130 64 1130 139 1205 c 128,-1,11
 214 1280 214 1280 320 1280 c 2,0,-1
591 1280 m 1,12,-1
 704 1280 l 2,13,14
 810 1280 810 1280 885 1205 c 128,-1,15
 960 1130 960 1130 960 1024 c 2,16,-1
 960 768 l 1,17,-1
 832 768 l 1,18,-1
 832 1024 l 2,19,20
 832 1077 832 1077 794.5 1114.5 c 128,-1,21
 757 1152 757 1152 704 1152 c 2,22,-1
 591 1152 l 1,23,-1
 591 1280 l 1,12,-1
64 512 m 1,24,-1
 192 512 l 1,25,-1
 192 256 l 2,26,27
 192 203 192 203 229.5 165.5 c 128,-1,28
 267 128 267 128 320 128 c 2,29,-1
 433 128 l 1,30,-1
 433 0 l 1,31,-1
 320 0 l 2,32,33
 214 0 214 0 139 75 c 128,-1,34
 64 150 64 150 64 256 c 2,35,-1
 64 512 l 1,24,-1
832 512 m 1,36,-1
 960 512 l 1,37,-1
 960 256 l 2,38,39
 960 150 960 150 885 75 c 128,-1,40
 810 0 810 0 704 0 c 2,41,-1
 591 0 l 1,42,-1
 591 128 l 1,43,-1
 704 128 l 2,44,45
 757 128 757 128 794.5 165.5 c 128,-1,46
 832 203 832 203 832 256 c 2,47,-1
 832 512 l 1,36,-1
EndSplineSet
EndChar

StartChar: agave.Aduck
Encoding: 65537 -1 90
Width: 1024
VWidth: 0
Flags: MW
LayerCount: 2
Fore
SplineSet
410 1152 m 1,0,-1
 614 1152 l 1,1,-1
 960 0 l 1,2,-1
 783 0 l 1,3,-1
 706 256 l 1,4,-1
 318 256 l 1,5,-1
 241 0 l 1,6,-1
 64 0 l 1,7,-1
 410 1152 l 1,0,-1
512 975 m 1,8,-1
 481 798 l 1,9,-1
 365 413 l 1,10,-1
 659 413 l 1,11,-1
 543 798 l 1,12,-1
 512 975 l 1,8,-1
EndSplineSet
EndChar

StartChar: agave.Bduck
Encoding: 65538 -1 91
Width: 1024
VWidth: 0
Flags: MW
LayerCount: 2
Fore
SplineSet
128 1152 m 1,0,-1
 384 1152 l 2,1,2
 611 1152 611 1152 729.5 1078 c 128,-1,3
 848 1004 848 1004 848 832 c 0,4,5
 848 782 848 782 830.5 741 c 128,-1,6
 813 700 813 700 788 676.5 c 128,-1,7
 763 653 763 653 738 636.5 c 128,-1,8
 713 620 713 620 695.5 614.5 c 2,9,-1
 678 609 l 1,10,11
 689 607 689 607 707 602 c 128,-1,12
 725 597 725 597 770.5 575.5 c 128,-1,13
 816 554 816 554 851.5 526 c 128,-1,14
 887 498 887 498 915.5 447 c 128,-1,15
 944 396 944 396 944 335 c 0,16,17
 944 155 944 155 801 77.5 c 128,-1,18
 658 0 658 0 384 0 c 2,19,-1
 128 0 l 1,20,-1
 128 1152 l 1,0,-1
298 995 m 1,21,-1
 298 669 l 1,22,-1
 384 669 l 2,23,24
 521 669 521 669 599.5 712.5 c 128,-1,25
 678 756 678 756 678 832 c 128,-1,26
 678 908 678 908 599.5 951.5 c 128,-1,27
 521 995 521 995 384 995 c 2,28,-1
 298 995 l 1,21,-1
298 512 m 1,29,-1
 298 157 l 1,30,-1
 384 157 l 2,31,32
 479 157 479 157 547 165 c 128,-1,33
 615 173 615 173 668.5 192.5 c 128,-1,34
 722 212 722 212 748 247.5 c 128,-1,35
 774 283 774 283 774 335 c 128,-1,36
 774 387 774 387 748 422.5 c 128,-1,37
 722 458 722 458 668.5 477 c 128,-1,38
 615 496 615 496 547.5 504 c 128,-1,39
 480 512 480 512 384 512 c 2,40,-1
 298 512 l 1,29,-1
EndSplineSet
EndChar

StartChar: agave.Cduck
Encoding: 65539 -1 92
Width: 1024
VWidth: 0
Flags: MW
LayerCount: 2
Fore
SplineSet
665 1160 m 0,0,1
 729 1160 729 1160 786.5 1156 c 128,-1,2
 844 1152 844 1152 870 1148 c 2,3,-1
 896 1144 l 1,4,-1
 896 995 l 1,5,-1
 665 995 l 2,6,7
 491 995 491 995 390.5 883 c 128,-1,8
 290 771 290 771 290 576 c 0,9,10
 290 350 290 350 385.5 253.5 c 128,-1,11
 481 157 481 157 665 157 c 2,12,-1
 896 157 l 1,13,-1
 896 8 l 1,14,15
 808 -8 808 -8 665 -8 c 0,16,17
 532 -8 532 -8 433.5 22 c 128,-1,18
 335 52 335 52 261 119 c 128,-1,19
 187 186 187 186 149.5 300.5 c 128,-1,20
 112 415 112 415 112 576 c 0,21,22
 112 847 112 847 260.5 1003.5 c 128,-1,23
 409 1160 409 1160 665 1160 c 0,0,1
EndSplineSet
EndChar

StartChar: agave.Dduck
Encoding: 65540 -1 93
Width: 1024
VWidth: 0
Flags: MW
LayerCount: 2
Fore
SplineSet
128 1152 m 1,0,-1
 384 1152 l 2,1,2
 518 1152 518 1152 618 1122.5 c 128,-1,3
 718 1093 718 1093 793 1026.5 c 128,-1,4
 868 960 868 960 906 847.5 c 128,-1,5
 944 735 944 735 944 576 c 128,-1,6
 944 417 944 417 906 304.5 c 128,-1,7
 868 192 868 192 793 125.5 c 128,-1,8
 718 59 718 59 618 29.5 c 128,-1,9
 518 0 518 0 384 0 c 2,10,-1
 128 -0 l 1,11,-1
 128 1152 l 1,0,-1
298 995 m 1,12,-1
 298 157 l 1,13,-1
 384 157 l 2,14,15
 571 157 571 157 668.5 253.5 c 128,-1,16
 766 350 766 350 766 576 c 128,-1,17
 766 802 766 802 668.5 898.5 c 128,-1,18
 571 995 571 995 384 995 c 2,19,-1
 298 995 l 1,12,-1
EndSplineSet
EndChar

StartChar: agave.Educk
Encoding: 65541 -1 94
Width: 1024
VWidth: 0
Flags: MW
LayerCount: 2
Fore
SplineSet
160 1152 m 1,0,-1
 896 1152 l 1,1,-1
 896 995 l 1,2,-1
 330 995 l 1,3,-1
 330 669 l 1,4,-1
 832 669 l 1,5,-1
 832 512 l 1,6,-1
 330 512 l 1,7,-1
 330 157 l 1,8,-1
 896 157 l 1,9,-1
 896 0 l 1,10,-1
 160 0 l 1,11,-1
 160 1152 l 1,0,-1
EndSplineSet
EndChar

StartChar: agave.Fduck
Encoding: 65542 -1 95
Width: 1024
VWidth: 0
Flags: MW
LayerCount: 2
Fore
SplineSet
160 1152 m 1,0,-1
 896 1152 l 1,1,-1
 896 995 l 1,2,-1
 330 995 l 1,3,-1
 330 669 l 1,4,-1
 864 669 l 1,5,-1
 864 512 l 1,6,-1
 330 512 l 1,7,-1
 330 0 l 1,8,-1
 160 0 l 1,9,-1
 160 1152 l 1,0,-1
EndSplineSet
EndChar

StartChar: braceright
Encoding: 125 125 96
Width: 1024
VWidth: 0
Flags: MW
LayerCount: 2
Fore
SplineSet
202 1280 m 1,0,-1
 202 1437 l 1,1,-1
 320 1437 l 2,2,3
 492 1437 492 1437 594.5 1341.5 c 128,-1,4
 697 1246 697 1246 682 1088 c 2,5,-1
 642 669 l 1,6,-1
 960 669 l 1,7,-1
 960 512 l 1,8,-1
 642 512 l 1,9,-1
 682 93 l 1,10,11
 682 -69 682 -69 585 -162.5 c 128,-1,12
 488 -256 488 -256 320 -256 c 2,13,-1
 202 -256 l 1,14,-1
 202 -99 l 1,15,-1
 320 -99 l 2,16,17
 410 -99 410 -99 462.5 -47 c 128,-1,18
 515 5 515 5 512 93 c 2,19,-1
 496 512 l 1,20,-1
 642 528 l 1,21,-1
 642 653 l 1,22,-1
 496 669 l 1,23,-1
 512 1088 l 2,24,25
 512 1177 512 1177 460.5 1228.5 c 128,-1,26
 409 1280 409 1280 320 1280 c 2,27,-1
 202 1280 l 1,0,-1
EndSplineSet
EndChar

StartChar: bracketright
Encoding: 93 93 97
Width: 1024
VWidth: 0
Flags: MW
LayerCount: 2
Fore
SplineSet
202 1280 m 1,0,-1
 202 1437 l 1,1,-1
 682 1437 l 1,2,-1
 682 -256 l 1,3,-1
 202 -256 l 1,4,-1
 202 -99 l 1,5,-1
 512 -99 l 1,6,-1
 512 1280 l 1,7,-1
 202 1280 l 1,0,-1
EndSplineSet
EndChar

StartChar: backslash
Encoding: 92 92 98
Width: 1024
VWidth: 0
Flags: MW
LayerCount: 2
Fore
SplineSet
177 1437 m 1,0,-1
 354 1437 l 1,1,-1
 847 -256 l 1,2,-1
 669 -256 l 1,3,-1
 177 1437 l 1,0,-1
EndSplineSet
EndChar

StartChar: parenright
Encoding: 41 41 99
Width: 1024
VWidth: 0
Flags: MW
LayerCount: 2
Fore
SplineSet
362 1437 m 1,0,1
 369 1432 369 1432 382 1421.5 c 128,-1,2
 395 1411 395 1411 431.5 1373.5 c 128,-1,3
 468 1336 468 1336 501 1292 c 128,-1,4
 534 1248 534 1248 575 1174.5 c 128,-1,5
 616 1101 616 1101 645 1020 c 128,-1,6
 674 939 674 939 694 826 c 128,-1,7
 714 713 714 713 714 591 c 128,-1,8
 714 469 714 469 694.5 356.5 c 128,-1,9
 675 244 675 244 644 161.5 c 128,-1,10
 613 79 613 79 575.5 7.5 c 128,-1,11
 538 -64 538 -64 500.5 -111 c 128,-1,12
 463 -158 463 -158 432 -192 c 128,-1,13
 401 -226 401 -226 381.5 -241 c 2,14,-1
 362 -256 l 1,15,-1
 170 -256 l 1,16,17
 177 -251 177 -251 190 -240.5 c 128,-1,18
 203 -230 203 -230 240.5 -192.5 c 128,-1,19
 278 -155 278 -155 311.5 -111 c 128,-1,20
 345 -67 345 -67 386.5 6.5 c 128,-1,21
 428 80 428 80 457.5 161.5 c 128,-1,22
 487 243 487 243 507.5 356 c 128,-1,23
 528 469 528 469 528 591 c 128,-1,24
 528 713 528 713 508.5 825.5 c 128,-1,25
 489 938 489 938 457 1020.5 c 128,-1,26
 425 1103 425 1103 387 1174.5 c 128,-1,27
 349 1246 349 1246 311 1293 c 128,-1,28
 273 1340 273 1340 241 1373.5 c 128,-1,29
 209 1407 209 1407 189.5 1422 c 2,30,-1
 170 1437 l 1,31,-1
 362 1437 l 1,0,1
EndSplineSet
EndChar

StartChar: greater
Encoding: 62 62 100
Width: 1024
VWidth: 0
Flags: MW
LayerCount: 2
Fore
SplineSet
188 1167 m 1,0,-1
 928 691 l 1,1,-1
 928 589 l 1,2,-1
 188 113 l 1,3,-1
 96 256 l 1,4,-1
 693 640 l 1,5,-1
 96 1024 l 1,6,-1
 188 1167 l 1,0,-1
EndSplineSet
EndChar

StartChar: cent
Encoding: 162 162 102
Width: 1024
VWidth: 0
Flags: MW
LayerCount: 2
Fore
SplineSet
512 1280 m 1,0,-1
 682 1280 l 1,1,-1
 682 1031 l 1,2,3
 732 1031 732 1031 777.5 1027.5 c 128,-1,4
 823 1024 823 1024 843.5 1020 c 2,5,-1
 864 1016 l 1,6,-1
 864 867 l 1,7,-1
 661 867 l 1,8,-1
 661 413 l 1,9,-1
 864 413 l 1,10,-1
 864 264 l 1,11,12
 794 248 794 248 682 248 c 1,13,-1
 682 0 l 1,14,-1
 512 0 l 1,15,-1
 512 254 l 1,16,17
 320 275 320 275 216 367 c 128,-1,18
 112 459 112 459 112 640 c 0,19,20
 112 793 112 793 219.5 894.5 c 128,-1,21
 327 996 327 996 512 1023 c 1,22,-1
 512 1280 l 1,0,-1
533 859 m 1,23,24
 415 841 415 841 348.5 783.5 c 128,-1,25
 282 726 282 726 282 640 c 0,26,27
 282 539 282 539 346 486 c 128,-1,28
 410 433 410 433 533 419 c 1,29,-1
 533 859 l 1,23,24
EndSplineSet
EndChar

StartChar: sterling
Encoding: 163 163 103
Width: 1024
VWidth: 0
Flags: MW
LayerCount: 2
Fore
SplineSet
618 1288 m 0,0,1
 672 1288 672 1288 723.5 1272.5 c 128,-1,2
 775 1257 775 1257 810.5 1234.5 c 128,-1,3
 846 1212 846 1212 873.5 1189.5 c 128,-1,4
 901 1167 901 1167 914.5 1151.5 c 2,5,-1
 928 1136 l 1,6,-1
 832 1024 l 1,7,8
 829 1028 829 1028 822.5 1035.5 c 128,-1,9
 816 1043 816 1043 794.5 1061.5 c 128,-1,10
 773 1080 773 1080 750 1094 c 128,-1,11
 727 1108 727 1108 691 1119.5 c 128,-1,12
 655 1131 655 1131 618 1131 c 0,13,14
 519 1131 519 1131 461.5 1073.5 c 128,-1,15
 404 1016 404 1016 404 917 c 2,16,-1
 404 719 l 1,17,-1
 832 719 l 1,18,-1
 832 561 l 1,19,-1
 404 561 l 1,20,-1
 404 157 l 1,21,-1
 928 157 l 1,22,-1
 928 0 l 1,23,-1
 64 0 l 1,24,-1
 64 157 l 1,25,-1
 234 157 l 1,26,-1
 234 561 l 1,27,-1
 64 561 l 1,28,-1
 64 719 l 1,29,-1
 234 719 l 1,30,-1
 234 917 l 2,31,32
 234 1089 234 1089 337 1188.5 c 128,-1,33
 440 1288 440 1288 618 1288 c 0,0,1
EndSplineSet
EndChar

StartChar: currency
Encoding: 164 164 104
Width: 1024
VWidth: 0
Flags: MW
LayerCount: 2
Fore
SplineSet
196 1248 m 1,0,-1
 349 999 l 1,1,2
 419 1032 419 1032 512 1032 c 0,3,4
 604 1032 604 1032 675 999 c 1,5,-1
 828 1248 l 1,6,-1
 960 1164 l 1,7,-1
 791 908 l 1,8,9
 872 804 872 804 872 640 c 128,-1,10
 872 476 872 476 791 372 c 1,11,-1
 960 116 l 1,12,-1
 828 32 l 1,13,-1
 675 281 l 1,14,15
 604 248 604 248 512 248 c 128,-1,16
 420 248 420 248 349 281 c 1,17,-1
 196 32 l 1,18,-1
 64 116 l 1,19,-1
 233 372 l 1,20,21
 152 476 152 476 152 640 c 128,-1,22
 152 804 152 804 233 908 c 1,23,-1
 64 1164 l 1,24,-1
 196 1248 l 1,0,-1
512 886 m 128,-1,26
 418 886 418 886 363.5 820 c 128,-1,27
 309 754 309 754 309 640 c 128,-1,28
 309 526 309 526 363.5 460 c 128,-1,29
 418 394 418 394 512 394 c 128,-1,30
 606 394 606 394 660.5 460 c 128,-1,31
 715 526 715 526 715 640 c 128,-1,32
 715 754 715 754 660.5 820 c 128,-1,25
 606 886 606 886 512 886 c 128,-1,26
EndSplineSet
EndChar

StartChar: yen
Encoding: 165 165 105
Width: 1024
VWidth: 0
Flags: MW
LayerCount: 2
Fore
SplineSet
32 1280 m 1,0,-1
 223 1280 l 1,1,-1
 512 700 l 1,2,-1
 801 1280 l 1,3,-1
 992 1280 l 1,4,-1
 678 669 l 1,5,-1
 960 669 l 1,6,-1
 960 512 l 1,7,-1
 597 512 l 1,8,-1
 597 355 l 1,9,-1
 960 355 l 1,10,-1
 960 198 l 1,11,-1
 597 198 l 1,12,-1
 597 0 l 1,13,-1
 427 0 l 1,14,-1
 427 198 l 1,15,-1
 64 198 l 1,16,-1
 64 355 l 1,17,-1
 427 355 l 1,18,-1
 427 512 l 1,19,-1
 64 512 l 1,20,-1
 64 669 l 1,21,-1
 346 669 l 1,22,-1
 32 1280 l 1,0,-1
EndSplineSet
EndChar

StartChar: brokenbar
Encoding: 166 166 106
Width: 1024
VWidth: 0
Flags: MW
LayerCount: 2
Fore
SplineSet
427 1437 m 1,0,-1
 597 1437 l 1,1,-1
 597 733 l 1,2,-1
 427 733 l 1,3,-1
 427 1437 l 1,0,-1
427 448 m 1,4,-1
 597 448 l 1,5,-1
 597 -256 l 1,6,-1
 427 -256 l 1,7,-1
 427 448 l 1,4,-1
EndSplineSet
EndChar

StartChar: section
Encoding: 167 167 107
Width: 1024
VWidth: 0
Flags: MW
LayerCount: 2
Fore
SplineSet
661 1288 m 0,0,1
 717 1288 717 1288 767.5 1284 c 128,-1,2
 818 1280 818 1280 841 1276 c 2,3,-1
 864 1272 l 1,4,-1
 864 1142 l 1,5,-1
 661 1142 l 2,6,7
 500 1142 500 1142 416.5 1100 c 128,-1,8
 333 1058 333 1058 333 960 c 0,9,10
 333 922 333 922 365 895.5 c 128,-1,11
 397 869 397 869 448 853 c 128,-1,12
 499 837 499 837 560.5 821.5 c 128,-1,13
 622 806 622 806 684 782 c 128,-1,14
 746 758 746 758 797 723 c 128,-1,15
 848 688 848 688 880 625 c 128,-1,16
 912 562 912 562 912 477 c 0,17,18
 912 306 912 306 803 208 c 1,19,20
 808 202 808 202 815.5 190.5 c 128,-1,21
 823 179 823 179 835.5 141.5 c 128,-1,22
 848 104 848 104 848 64 c 0,23,24
 848 -27 848 -27 815 -91 c 128,-1,25
 782 -155 782 -155 717.5 -192.5 c 128,-1,26
 653 -230 653 -230 566 -247 c 128,-1,27
 479 -264 479 -264 363 -264 c 0,28,29
 307 -264 307 -264 256.5 -260 c 128,-1,30
 206 -256 206 -256 183 -252 c 2,31,-1
 160 -248 l 1,32,-1
 160 -118 l 1,33,-1
 363 -118 l 2,34,35
 524 -118 524 -118 607.5 -76 c 128,-1,36
 691 -34 691 -34 691 64 c 0,37,38
 691 102 691 102 659 128.5 c 128,-1,39
 627 155 627 155 576 171 c 128,-1,40
 525 187 525 187 463.5 202.5 c 128,-1,41
 402 218 402 218 340 242 c 128,-1,42
 278 266 278 266 227 301 c 128,-1,43
 176 336 176 336 144 399 c 128,-1,44
 112 462 112 462 112 547 c 0,45,46
 112 718 112 718 221 816 c 1,47,48
 216 822 216 822 208.5 833.5 c 128,-1,49
 201 845 201 845 188.5 882.5 c 128,-1,50
 176 920 176 920 176 960 c 0,51,52
 176 1051 176 1051 209 1115 c 128,-1,53
 242 1179 242 1179 306.5 1216.5 c 128,-1,54
 371 1254 371 1254 458 1271 c 128,-1,55
 545 1288 545 1288 661 1288 c 0,0,1
356 726 m 1,56,57
 269 667 269 667 269 547 c 0,58,59
 269 503 269 503 287.5 469.5 c 128,-1,60
 306 436 306 436 334 416 c 128,-1,61
 362 396 362 396 405.5 378.5 c 128,-1,62
 449 361 449 361 488.5 351 c 128,-1,63
 528 341 528 341 580.5 326 c 128,-1,64
 633 311 633 311 668 298 c 1,65,66
 755 357 755 357 755 477 c 0,67,68
 755 521 755 521 736.5 554.5 c 128,-1,69
 718 588 718 588 690 608 c 128,-1,70
 662 628 662 628 618.5 645.5 c 128,-1,71
 575 663 575 663 535.5 673 c 128,-1,72
 496 683 496 683 443.5 698 c 128,-1,73
 391 713 391 713 356 726 c 1,56,57
EndSplineSet
EndChar

StartChar: copyright
Encoding: 169 169 108
Width: 1024
VWidth: 0
Flags: MW
LayerCount: 2
Fore
SplineSet
512 1296 m 128,-1,1
 735 1296 735 1296 863.5 1139.5 c 128,-1,2
 992 983 992 983 992 712 c 128,-1,3
 992 441 992 441 863.5 284.5 c 128,-1,4
 735 128 735 128 512 128 c 128,-1,5
 289 128 289 128 160.5 284.5 c 128,-1,6
 32 441 32 441 32 712 c 128,-1,7
 32 983 32 983 160.5 1139.5 c 128,-1,0
 289 1296 289 1296 512 1296 c 128,-1,1
512 1168 m 128,-1,9
 352 1168 352 1168 260 1046 c 128,-1,10
 168 924 168 924 168 712 c 128,-1,11
 168 500 168 500 260 378 c 128,-1,12
 352 256 352 256 512 256 c 128,-1,13
 672 256 672 256 764 378 c 128,-1,14
 856 500 856 500 856 712 c 128,-1,15
 856 924 856 924 764 1046 c 128,-1,8
 672 1168 672 1168 512 1168 c 128,-1,9
572 976 m 0,16,17
 608 976 608 976 641 968 c 128,-1,18
 674 960 674 960 689 952 c 2,19,-1
 704 944 l 1,20,-1
 704 840 l 1,21,-1
 572 840 l 2,22,23
 511 843 511 843 475.5 807.5 c 128,-1,24
 440 772 440 772 440 712 c 0,25,26
 440 653 440 653 475.5 618.5 c 128,-1,27
 511 584 511 584 572 584 c 2,28,-1
 704 584 l 1,29,-1
 704 480 l 1,30,31
 654 448 654 448 572 448 c 0,32,33
 448 448 448 448 376 519 c 128,-1,34
 304 590 304 590 304 712 c 128,-1,35
 304 834 304 834 376 905 c 128,-1,36
 448 976 448 976 572 976 c 0,16,17
EndSplineSet
EndChar

StartChar: ordfeminine
Encoding: 170 170 109
Width: 1024
VWidth: 0
Flags: MW
LayerCount: 2
Fore
SplineSet
408 1284 m 0,0,1
 629 1284 629 1284 714.5 1229.5 c 128,-1,2
 800 1175 800 1175 800 1034 c 2,3,-1
 800 648 l 2,4,5
 800 585 800 585 761 548.5 c 128,-1,6
 722 512 722 512 654 512 c 2,7,-1
 469 512 l 2,8,9
 352 512 352 512 284 578 c 128,-1,10
 216 644 216 644 216 759 c 0,11,12
 216 854 216 854 284 909 c 128,-1,13
 352 964 352 964 469 964 c 2,14,-1
 654 964 l 1,15,-1
 654 1034 l 2,16,17
 654 1098 654 1098 600.5 1123 c 128,-1,18
 547 1148 547 1148 408 1148 c 2,19,-1
 256 1148 l 1,20,-1
 256 1276 l 1,21,22
 314 1284 314 1284 408 1284 c 0,0,1
469 828 m 2,23,24
 419 828 419 828 390.5 809.5 c 128,-1,25
 362 791 362 791 362 759 c 0,26,27
 362 707 362 707 390.5 677.5 c 128,-1,28
 419 648 419 648 469 648 c 2,29,-1
 654 648 l 1,30,-1
 654 828 l 1,31,-1
 469 828 l 2,23,24
224 392 m 1,32,-1
 800 392 l 1,33,-1
 800 256 l 1,34,-1
 224 256 l 1,35,-1
 224 392 l 1,32,-1
EndSplineSet
EndChar

StartChar: guillemotleft
Encoding: 171 171 110
Width: 1024
VWidth: 0
Flags: MW
LayerCount: 2
Fore
SplineSet
390 1102 m 1,0,-1
 513 1024 l 1,1,-1
 269 640 l 1,2,-1
 513 256 l 1,3,-1
 390 178 l 1,4,-1
 96 640 l 1,5,-1
 390 1102 l 1,0,-1
805 1102 m 1,6,-1
 928 1024 l 1,7,-1
 684 640 l 1,8,-1
 928 256 l 1,9,-1
 805 178 l 1,10,-1
 511 640 l 1,11,-1
 805 1102 l 1,6,-1
EndSplineSet
EndChar

StartChar: logicalnot
Encoding: 172 172 111
Width: 1024
VWidth: 0
Flags: MW
LayerCount: 2
Fore
SplineSet
128 719 m 1,0,-1
 896 719 l 1,1,-1
 896 256 l 1,2,-1
 739 256 l 1,3,-1
 739 561 l 1,4,-1
 128 561 l 1,5,-1
 128 719 l 1,0,-1
EndSplineSet
EndChar

StartChar: registered
Encoding: 174 174 115
Width: 1024
VWidth: 0
Flags: MW
LayerCount: 2
Fore
SplineSet
512 1296 m 128,-1,1
 735 1296 735 1296 863.5 1139.5 c 128,-1,2
 992 983 992 983 992 712 c 128,-1,3
 992 441 992 441 863.5 284.5 c 128,-1,4
 735 128 735 128 512 128 c 128,-1,5
 289 128 289 128 160.5 284.5 c 128,-1,6
 32 441 32 441 32 712 c 128,-1,7
 32 983 32 983 160.5 1139.5 c 128,-1,0
 289 1296 289 1296 512 1296 c 128,-1,1
512 1168 m 128,-1,9
 352 1168 352 1168 260 1046 c 128,-1,10
 168 924 168 924 168 712 c 128,-1,11
 168 500 168 500 260 378 c 128,-1,12
 352 256 352 256 512 256 c 128,-1,13
 672 256 672 256 764 378 c 128,-1,14
 856 500 856 500 856 712 c 128,-1,15
 856 924 856 924 764 1046 c 128,-1,8
 672 1168 672 1168 512 1168 c 128,-1,9
288 1025 m 1,16,-1
 543 1025 l 2,17,18
 640 1025 640 1025 696 970 c 128,-1,19
 752 915 752 915 752 821 c 0,20,21
 752 720 752 720 646 675 c 1,22,-1
 752 399 l 1,23,-1
 616 399 l 1,24,-1
 519 649 l 1,25,-1
 424 649 l 1,26,-1
 424 399 l 1,27,-1
 288 399 l 1,28,-1
 288 1025 l 1,16,-1
424 905 m 1,29,-1
 424 769 l 1,30,-1
 497 769 l 2,31,32
 552 769 552 769 584 783 c 128,-1,33
 616 797 616 797 616 821 c 0,34,35
 616 860 616 860 596.5 882.5 c 128,-1,36
 577 905 577 905 543 905 c 2,37,-1
 424 905 l 1,29,-1
EndSplineSet
EndChar

StartChar: degree
Encoding: 176 176 116
Width: 1024
VWidth: 0
Flags: MW
LayerCount: 2
Fore
SplineSet
248 1024 m 128,-1,1
 248 1134 248 1134 325 1211 c 128,-1,2
 402 1288 402 1288 512 1288 c 128,-1,3
 622 1288 622 1288 699 1211 c 128,-1,4
 776 1134 776 1134 776 1024 c 128,-1,5
 776 914 776 914 699 837 c 128,-1,6
 622 760 622 760 512 760 c 128,-1,7
 402 760 402 760 325 837 c 128,-1,0
 248 914 248 914 248 1024 c 128,-1,1
512 1152 m 128,-1,9
 459 1152 459 1152 421.5 1114.5 c 128,-1,10
 384 1077 384 1077 384 1024 c 128,-1,11
 384 971 384 971 421.5 933.5 c 128,-1,12
 459 896 459 896 512 896 c 128,-1,13
 565 896 565 896 602.5 933.5 c 128,-1,14
 640 971 640 971 640 1024 c 128,-1,15
 640 1077 640 1077 602.5 1114.5 c 128,-1,8
 565 1152 565 1152 512 1152 c 128,-1,9
EndSplineSet
EndChar

StartChar: plusminus
Encoding: 177 177 117
Width: 1024
VWidth: 0
Flags: MW
LayerCount: 2
Fore
SplineSet
434 1213 m 1,0,-1
 590 1213 l 1,1,-1
 590 876 l 1,2,-1
 928 876 l 1,3,-1
 928 719 l 1,4,-1
 590 719 l 1,5,-1
 590 381 l 1,6,-1
 434 381 l 1,7,-1
 434 719 l 1,8,-1
 96 719 l 1,9,-1
 96 876 l 1,10,-1
 434 876 l 1,11,-1
 434 1213 l 1,0,-1
128 256 m 1,12,-1
 896 256 l 1,13,-1
 896 99 l 1,14,-1
 128 99 l 1,15,-1
 128 256 l 1,12,-1
EndSplineSet
EndChar

StartChar: acute
Encoding: 180 180 118
Width: 1024
VWidth: 0
Flags: MW
LayerCount: 2
Fore
SplineSet
749 1141 m 1,0,-1
 379 787 l 1,1,-1
 275 891 l 1,2,-1
 629 1261 l 1,3,-1
 749 1141 l 1,0,-1
EndSplineSet
EndChar

StartChar: paragraph
Encoding: 182 182 119
Width: 1024
VWidth: 0
Flags: MW
LayerCount: 2
Fore
SplineSet
384 1280 m 2,0,-1
 832 1280 l 1,1,-1
 832 0 l 1,2,-1
 704 0 l 1,3,-1
 704 1152 l 1,4,-1
 512 1152 l 1,5,-1
 512 0 l 1,6,-1
 384 0 l 1,7,-1
 384 640 l 1,8,9
 240 640 240 640 160 725 c 128,-1,10
 80 810 80 810 80 960 c 128,-1,11
 80 1110 80 1110 159 1195 c 128,-1,12
 238 1280 238 1280 384 1280 c 2,0,-1
EndSplineSet
EndChar

StartChar: periodcentered
Encoding: 183 183 120
Width: 1024
VWidth: 0
Flags: MW
LayerCount: 2
Fore
SplineSet
658 640 m 128,-1,1
 658 580 658 580 615 537 c 128,-1,2
 572 494 572 494 512 494 c 128,-1,3
 452 494 452 494 409 537 c 128,-1,4
 366 580 366 580 366 640 c 128,-1,5
 366 700 366 700 409 743 c 128,-1,6
 452 786 452 786 512 786 c 128,-1,7
 572 786 572 786 615 743 c 128,-1,0
 658 700 658 700 658 640 c 128,-1,1
EndSplineSet
EndChar

StartChar: ordmasculine
Encoding: 186 186 122
Width: 1024
VWidth: 0
Flags: MW
LayerCount: 2
Fore
SplineSet
512 1288 m 128,-1,1
 666 1288 666 1288 745 1199.5 c 128,-1,2
 824 1111 824 1111 824 896 c 128,-1,3
 824 681 824 681 745 592.5 c 128,-1,4
 666 504 666 504 512 504 c 128,-1,5
 358 504 358 504 279 592.5 c 128,-1,6
 200 681 200 681 200 896 c 128,-1,7
 200 1111 200 1111 279 1199.5 c 128,-1,0
 358 1288 358 1288 512 1288 c 128,-1,1
512 1152 m 128,-1,9
 430 1152 430 1152 388 1094.5 c 128,-1,10
 346 1037 346 1037 346 896 c 128,-1,11
 346 755 346 755 388 697.5 c 128,-1,12
 430 640 430 640 512 640 c 128,-1,13
 594 640 594 640 636 697.5 c 128,-1,14
 678 755 678 755 678 896 c 128,-1,15
 678 1037 678 1037 636 1094.5 c 128,-1,8
 594 1152 594 1152 512 1152 c 128,-1,9
224 392 m 1,16,-1
 800 392 l 1,17,-1
 800 256 l 1,18,-1
 224 256 l 1,19,-1
 224 392 l 1,16,-1
EndSplineSet
EndChar

StartChar: guillemotright
Encoding: 187 187 123
Width: 1024
VWidth: 0
Flags: MW
LayerCount: 2
Fore
SplineSet
634 1102 m 1,0,-1
 928 640 l 1,1,-1
 634 178 l 1,2,-1
 511 256 l 1,3,-1
 755 640 l 1,4,-1
 511 1024 l 1,5,-1
 634 1102 l 1,0,-1
219 1102 m 1,6,-1
 513 640 l 1,7,-1
 219 178 l 1,8,-1
 96 256 l 1,9,-1
 340 640 l 1,10,-1
 96 1024 l 1,11,-1
 219 1102 l 1,6,-1
EndSplineSet
EndChar

StartChar: onequarter
Encoding: 188 188 124
Width: 1024
VWidth: 0
Flags: MW
LayerCount: 2
Fore
SplineSet
208 1280 m 1,0,-1
 344 1280 l 1,1,-1
 344 640 l 1,2,-1
 208 640 l 1,3,-1
 208 1099 l 1,4,-1
 123 1014 l 1,5,-1
 32 1104 l 1,6,-1
 208 1280 l 1,0,-1
803 1280 m 1,7,-1
 960 1280 l 1,8,-1
 221 0 l 1,9,-1
 64 0 l 1,10,-1
 803 1280 l 1,7,-1
734 640 m 1,11,-1
 916 640 l 1,12,-1
 916 256 l 1,13,-1
 992 256 l 1,14,-1
 992 128 l 1,15,-1
 916 128 l 1,16,-1
 916 0 l 1,17,-1
 780 0 l 1,18,-1
 780 128 l 1,19,-1
 512 128 l 1,20,-1
 512 256 l 1,21,-1
 734 640 l 1,11,-1
780 485 m 1,22,-1
 648 256 l 1,23,-1
 780 256 l 1,24,-1
 780 485 l 1,22,-1
EndSplineSet
EndChar

StartChar: onehalf
Encoding: 189 189 125
Width: 1024
VWidth: 0
Flags: MW
LayerCount: 2
Fore
SplineSet
208 1280 m 1,0,-1
 344 1280 l 1,1,-1
 344 640 l 1,2,-1
 208 640 l 1,3,-1
 208 1099 l 1,4,-1
 123 1014 l 1,5,-1
 32 1104 l 1,6,-1
 208 1280 l 1,0,-1
803 1280 m 1,7,-1
 960 1280 l 1,8,-1
 221 0 l 1,9,-1
 64 0 l 1,10,-1
 803 1280 l 1,7,-1
784 648 m 128,-1,12
 881 648 881 648 936.5 594.5 c 128,-1,13
 992 541 992 541 992 448 c 0,14,15
 992 419 992 419 988 402.5 c 128,-1,16
 984 386 984 386 957 349 c 128,-1,17
 930 312 930 312 874 256 c 2,18,-1
 746 128 l 1,19,-1
 992 128 l 1,20,-1
 992 0 l 1,21,-1
 576 0 l 1,22,-1
 576 128 l 1,23,-1
 789 341 l 2,24,25
 825 377 825 377 842 398 c 128,-1,26
 859 419 859 419 861.5 427.5 c 128,-1,27
 864 436 864 436 864 448 c 0,28,29
 864 481 864 481 842.5 500.5 c 128,-1,30
 821 520 821 520 784 520 c 128,-1,31
 747 520 747 520 725.5 500.5 c 128,-1,32
 704 481 704 481 704 448 c 1,33,-1
 576 448 l 1,34,35
 576 541 576 541 631.5 594.5 c 128,-1,11
 687 648 687 648 784 648 c 128,-1,12
EndSplineSet
EndChar

StartChar: threequarters
Encoding: 190 190 126
Width: 1024
VWidth: 0
Flags: MW
LayerCount: 2
Fore
SplineSet
153 1284 m 0,0,1
 288 1284 288 1284 360 1239 c 128,-1,2
 432 1194 432 1194 432 1092 c 0,3,4
 432 1054 432 1054 402 1025.5 c 128,-1,5
 372 997 372 997 342 987.5 c 2,6,-1
 312 978 l 1,7,8
 318 977 318 977 327 973.5 c 128,-1,9
 336 970 336 970 359.5 958 c 128,-1,10
 383 946 383 946 401 931 c 128,-1,11
 419 916 419 916 433.5 889.5 c 128,-1,12
 448 863 448 863 448 832 c 0,13,14
 448 728 448 728 368.5 682 c 128,-1,15
 289 636 289 636 139 636 c 0,16,17
 110 636 110 636 83 638 c 128,-1,18
 56 640 56 640 44 642 c 2,19,-1
 32 644 l 1,20,-1
 32 760 l 1,21,-1
 139 760 l 2,22,23
 312 760 312 760 312 832 c 128,-1,24
 312 904 312 904 198 904 c 2,25,-1
 128 904 l 1,26,-1
 128 1024 l 1,27,-1
 192 1024 l 2,28,29
 296 1024 296 1024 296 1092 c 128,-1,30
 296 1160 296 1160 153 1160 c 2,31,-1
 64 1160 l 1,32,-1
 64 1276 l 1,33,34
 98 1284 98 1284 153 1284 c 0,0,1
803 1280 m 1,35,-1
 960 1280 l 1,36,-1
 221 0 l 1,37,-1
 64 0 l 1,38,-1
 803 1280 l 1,35,-1
734 640 m 1,39,-1
 916 640 l 1,40,-1
 916 256 l 1,41,-1
 992 256 l 1,42,-1
 992 128 l 1,43,-1
 916 128 l 1,44,-1
 916 0 l 1,45,-1
 780 0 l 1,46,-1
 780 128 l 1,47,-1
 512 128 l 1,48,-1
 512 256 l 1,49,-1
 734 640 l 1,39,-1
780 485 m 1,50,-1
 648 256 l 1,51,-1
 780 256 l 1,52,-1
 780 485 l 1,50,-1
EndSplineSet
EndChar

StartChar: uni0308
Encoding: 776 776 127
Width: 1024
VWidth: 0
Flags: MW
LayerCount: 2
Fore
SplineSet
304 1392 m 128,-1,1
 350 1392 350 1392 383 1359 c 128,-1,2
 416 1326 416 1326 416 1280 c 128,-1,3
 416 1234 416 1234 383 1201 c 128,-1,4
 350 1168 350 1168 304 1168 c 128,-1,5
 258 1168 258 1168 225 1201 c 128,-1,6
 192 1234 192 1234 192 1280 c 128,-1,7
 192 1326 192 1326 225 1359 c 128,-1,0
 258 1392 258 1392 304 1392 c 128,-1,1
720 1392 m 128,-1,9
 766 1392 766 1392 799 1359 c 128,-1,10
 832 1326 832 1326 832 1280 c 128,-1,11
 832 1234 832 1234 799 1201 c 128,-1,12
 766 1168 766 1168 720 1168 c 128,-1,13
 674 1168 674 1168 641 1201 c 128,-1,14
 608 1234 608 1234 608 1280 c 128,-1,15
 608 1326 608 1326 641 1359 c 128,-1,8
 674 1392 674 1392 720 1392 c 128,-1,9
EndSplineSet
EndChar

StartChar: uni0304
Encoding: 772 772 129
Width: 1024
VWidth: 0
Flags: MW
LayerCount: 2
Fore
SplineSet
224 1344 m 1,0,-1
 800 1344 l 1,1,-1
 800 1216 l 1,2,-1
 224 1216 l 1,3,-1
 224 1344 l 1,0,-1
EndSplineSet
EndChar

StartChar: cedilla
Encoding: 184 184 132
Width: 1024
VWidth: 0
Flags: MW
LayerCount: 2
Fore
SplineSet
464 -384 m 1,0,-1
 336 -384 l 1,1,-1
 432 -192 l 1,2,-1
 432 -64 l 1,3,-1
 592 -64 l 1,4,-1
 592 -256 l 1,5,-1
 464 -384 l 1,0,-1
EndSplineSet
EndChar

StartChar: uni03BC
Encoding: 956 956 133
Width: 1024
VWidth: 0
Flags: MW
LayerCount: 2
Fore
SplineSet
128 1024 m 1,0,-1
 298 1024 l 1,1,-1
 298 157 l 1,2,-1
 512 157 l 2,3,4
 549 157 549 157 584.5 179 c 128,-1,5
 620 201 620 201 644.5 232.5 c 128,-1,6
 669 264 669 264 688.5 295 c 128,-1,7
 708 326 708 326 717 348 c 2,8,-1
 726 370 l 1,9,-1
 726 1024 l 1,10,-1
 896 1024 l 1,11,-1
 896 370 l 2,12,13
 896 303 896 303 901 258.5 c 128,-1,14
 906 214 906 214 912 190.5 c 128,-1,15
 918 167 918 167 933 156 c 128,-1,16
 948 145 948 145 958.5 143 c 128,-1,17
 969 141 969 141 992 141 c 1,18,-1
 992 0 l 1,19,20
 957 -8 957 -8 900 -8 c 0,21,22
 866 -8 866 -8 838.5 7.5 c 128,-1,23
 811 23 811 23 795 45 c 128,-1,24
 779 67 779 67 768.5 88.5 c 128,-1,25
 758 110 758 110 754 125.5 c 2,26,-1
 750 141 l 1,27,28
 746 135 746 135 739 125.5 c 128,-1,29
 732 116 732 116 708.5 92 c 128,-1,30
 685 68 685 68 659 49 c 128,-1,31
 633 30 633 30 593 15 c 128,-1,32
 553 0 553 0 512 0 c 2,33,-1
 298 0 l 1,34,-1
 298 -256 l 1,35,-1
 128 -256 l 1,36,-1
 128 1024 l 1,0,-1
EndSplineSet
EndChar

StartChar: uni2080
Encoding: 8320 8320 135
Width: 1024
VWidth: 0
Flags: MW
LayerCount: 2
Fore
SplineSet
512 648 m 128,-1,1
 649 648 649 648 728.5 543 c 128,-1,2
 808 438 808 438 808 256 c 128,-1,3
 808 74 808 74 728.5 -31 c 128,-1,4
 649 -136 649 -136 512 -136 c 128,-1,5
 375 -136 375 -136 295.5 -31 c 128,-1,6
 216 74 216 74 216 256 c 128,-1,7
 216 438 216 438 295.5 543 c 128,-1,0
 375 648 375 648 512 648 c 128,-1,1
512 512 m 128,-1,9
 442 512 442 512 402 443.5 c 128,-1,10
 362 375 362 375 362 256 c 128,-1,11
 362 137 362 137 402 68.5 c 128,-1,12
 442 0 442 0 512 0 c 128,-1,13
 582 0 582 0 622 68.5 c 128,-1,14
 662 137 662 137 662 256 c 128,-1,15
 662 375 662 375 622 443.5 c 128,-1,8
 582 512 582 512 512 512 c 128,-1,9
512 329 m 128,-1,17
 538 329 538 329 553.5 309.5 c 128,-1,18
 569 290 569 290 569 256 c 128,-1,19
 569 222 569 222 553.5 202.5 c 128,-1,20
 538 183 538 183 512 183 c 128,-1,21
 486 183 486 183 470.5 202.5 c 128,-1,22
 455 222 455 222 455 256 c 128,-1,23
 455 290 455 290 470.5 309.5 c 128,-1,16
 486 329 486 329 512 329 c 128,-1,17
EndSplineSet
EndChar

StartChar: uni2081
Encoding: 8321 8321 136
Width: 1024
VWidth: 0
Flags: MW
LayerCount: 2
Fore
SplineSet
512 640 m 1,0,-1
 658 640 l 1,1,-1
 658 -128 l 1,2,-1
 512 -128 l 1,3,-1
 512 448 l 1,4,-1
 384 320 l 1,5,-1
 288 416 l 1,6,-1
 512 640 l 1,0,-1
EndSplineSet
EndChar

StartChar: uni2082
Encoding: 8322 8322 137
Width: 1024
VWidth: 0
Flags: MW
LayerCount: 2
Fore
SplineSet
512 648 m 128,-1,1
 623 648 623 648 687.5 585.5 c 128,-1,2
 752 523 752 523 752 416 c 0,3,4
 752 376 752 376 747 353.5 c 128,-1,5
 742 331 742 331 709.5 284 c 128,-1,6
 677 237 677 237 608 168 c 2,7,-1
 448 8 l 1,8,-1
 768 8 l 1,9,-1
 768 -128 l 1,10,-1
 256 -128 l 1,11,-1
 256 8 l 1,12,-1
 512 264 l 2,13,14
 557 311 557 311 578 341 c 128,-1,15
 599 371 599 371 602.5 383.5 c 128,-1,16
 606 396 606 396 606 416 c 0,17,18
 606 460 606 460 580.5 486 c 128,-1,19
 555 512 555 512 512 512 c 0,20,21
 464 512 464 512 436 486 c 128,-1,22
 408 460 408 460 408 416 c 1,23,-1
 272 416 l 1,24,25
 272 523 272 523 336.5 585.5 c 128,-1,0
 401 648 401 648 512 648 c 128,-1,1
EndSplineSet
EndChar

StartChar: uni2083
Encoding: 8323 8323 138
Width: 1024
VWidth: 0
Flags: MW
LayerCount: 2
Fore
SplineSet
403 648 m 0,0,1
 566 648 566 648 651 593.5 c 128,-1,2
 736 539 736 539 736 412 c 0,3,4
 736 382 736 382 724.5 356.5 c 128,-1,5
 713 331 713 331 696 316 c 128,-1,6
 679 301 679 301 662 290 c 128,-1,7
 645 279 645 279 633.5 275 c 2,8,-1
 622 271 l 2,9,10
 628 269 628 269 638 265.5 c 128,-1,11
 648 262 648 262 673 247.5 c 128,-1,12
 698 233 698 233 717 215.5 c 128,-1,13
 736 198 736 198 752 167 c 128,-1,14
 768 136 768 136 768 100 c 0,15,16
 768 -27 768 -27 673 -81.5 c 128,-1,17
 578 -136 578 -136 396 -136 c 0,18,19
 357 -136 357 -136 322 -132 c 128,-1,20
 287 -128 287 -128 271.5 -124 c 2,21,-1
 256 -120 l 1,22,-1
 256 8 l 1,23,-1
 396 8 l 2,24,25
 507 8 507 8 564.5 29 c 128,-1,26
 622 50 622 50 622 100 c 0,27,28
 622 192 622 192 455 192 c 2,29,-1
 352 192 l 1,30,-1
 352 320 l 1,31,-1
 443 320 l 2,32,33
 515 320 515 320 552.5 341 c 128,-1,34
 590 362 590 362 590 412 c 128,-1,35
 590 462 590 462 542.5 483 c 128,-1,36
 495 504 495 504 403 504 c 2,37,-1
 288 504 l 1,38,-1
 288 632 l 1,39,40
 332 648 332 648 403 648 c 0,0,1
EndSplineSet
EndChar

StartChar: uni2084
Encoding: 8324 8324 139
Width: 1024
VWidth: 0
Flags: MW
LayerCount: 2
Fore
SplineSet
512 640 m 1,0,-1
 658 640 l 1,1,-1
 658 186 l 1,2,-1
 768 186 l 1,3,-1
 768 50 l 1,4,-1
 658 50 l 1,5,-1
 658 -128 l 1,6,-1
 512 -128 l 1,7,-1
 512 50 l 1,8,-1
 224 50 l 1,9,-1
 224 186 l 1,10,-1
 512 640 l 1,0,-1
530 496 m 1,11,-1
 368 178 l 1,12,-1
 530 178 l 1,13,-1
 530 496 l 1,11,-1
EndSplineSet
EndChar

StartChar: uni2085
Encoding: 8325 8325 140
Width: 1024
VWidth: 0
Flags: MW
LayerCount: 2
Fore
SplineSet
434 504 m 1,0,-1
 434 320 l 1,1,-1
 512 320 l 2,2,3
 631 320 631 320 699.5 261 c 128,-1,4
 768 202 768 202 768 100 c 0,5,6
 768 -27 768 -27 673 -81.5 c 128,-1,7
 578 -136 578 -136 396 -136 c 0,8,9
 357 -136 357 -136 322 -132 c 128,-1,10
 287 -128 287 -128 271.5 -124 c 2,11,-1
 256 -120 l 1,12,-1
 256 8 l 1,13,-1
 396 8 l 2,14,15
 507 8 507 8 564.5 29 c 128,-1,16
 622 50 622 50 622 100 c 0,17,18
 622 143 622 143 592.5 167.5 c 128,-1,19
 563 192 563 192 512 192 c 2,20,-1
 288 192 l 1,21,-1
 288 640 l 1,22,-1
 728 640 l 1,23,-1
 728 504 l 1,24,-1
 434 504 l 1,0,-1
EndSplineSet
EndChar

StartChar: uni2086
Encoding: 8326 8326 141
Width: 1024
VWidth: 0
Flags: MW
LayerCount: 2
Fore
SplineSet
512 640 m 1,0,-1
 682 640 l 1,1,-1
 444 312 l 1,2,3
 470 320 470 320 512 320 c 0,4,5
 630 320 630 320 699 260 c 128,-1,6
 768 200 768 200 768 96 c 0,7,8
 768 -10 768 -10 697.5 -73 c 128,-1,9
 627 -136 627 -136 512 -136 c 128,-1,10
 397 -136 397 -136 326.5 -73 c 128,-1,11
 256 -10 256 -10 256 96 c 0,12,13
 256 160 256 160 282 237.5 c 128,-1,14
 308 315 308 315 352 386 c 2,15,-1
 512 640 l 1,0,-1
512 192 m 0,16,17
 450 192 450 192 426 171 c 128,-1,18
 402 150 402 150 402 96 c 0,19,20
 402 52 402 52 431.5 26 c 128,-1,21
 461 0 461 0 512 0 c 128,-1,22
 563 0 563 0 592.5 26 c 128,-1,23
 622 52 622 52 622 96 c 128,-1,24
 622 140 622 140 592.5 166 c 128,-1,25
 563 192 563 192 512 192 c 0,16,17
EndSplineSet
EndChar

StartChar: uni2087
Encoding: 8327 8327 142
Width: 1024
VWidth: 0
Flags: MW
LayerCount: 2
Fore
SplineSet
768 640 m 1,0,-1
 768 504 l 1,1,-1
 512 -128 l 1,2,-1
 355 -128 l 1,3,-1
 611 504 l 1,4,-1
 256 504 l 1,5,-1
 256 640 l 1,6,-1
 768 640 l 1,0,-1
EndSplineSet
EndChar

StartChar: uni2088
Encoding: 8328 8328 143
Width: 1024
VWidth: 0
Flags: MW
LayerCount: 2
Fore
SplineSet
274 428 m 0,0,1
 274 530 274 530 337 589 c 128,-1,2
 400 648 400 648 512 648 c 128,-1,3
 624 648 624 648 689 589 c 128,-1,4
 754 530 754 530 754 428 c 0,5,6
 754 401 754 401 739 375 c 128,-1,7
 724 349 724 349 702 331 c 128,-1,8
 680 313 680 313 658 299 c 128,-1,9
 636 285 636 285 621 278 c 2,10,-1
 606 271 l 1,11,12
 613 268 613 268 623.5 262.5 c 128,-1,13
 634 257 634 257 662 238.5 c 128,-1,14
 690 220 690 220 711.5 200 c 128,-1,15
 733 180 733 180 750.5 148 c 128,-1,16
 768 116 768 116 768 84 c 0,17,18
 768 -18 768 -18 699.5 -77 c 128,-1,19
 631 -136 631 -136 512 -136 c 128,-1,20
 393 -136 393 -136 324.5 -77 c 128,-1,21
 256 -18 256 -18 256 84 c 0,22,23
 256 116 256 116 272.5 147.5 c 128,-1,24
 289 179 289 179 312.5 200.5 c 128,-1,25
 336 222 336 222 359 238.5 c 128,-1,26
 382 255 382 255 398.5 263 c 2,27,-1
 415 271 l 1,28,29
 409 273 409 273 399.5 278 c 128,-1,30
 390 283 390 283 366 298.5 c 128,-1,31
 342 314 342 314 323 331 c 128,-1,32
 304 348 304 348 289 374.5 c 128,-1,33
 274 401 274 401 274 428 c 0,0,1
402 428 m 0,34,35
 402 398 402 398 429.5 371 c 128,-1,36
 457 344 457 344 484.5 332 c 2,37,-1
 512 320 l 2,38,39
 517 322 517 322 524.5 325 c 128,-1,40
 532 328 532 328 551.5 338.5 c 128,-1,41
 571 349 571 349 586 361 c 128,-1,42
 601 373 601 373 613.5 391 c 128,-1,43
 626 409 626 409 626 428 c 0,44,45
 626 467 626 467 595.5 489.5 c 128,-1,46
 565 512 565 512 512 512 c 0,47,48
 460 512 460 512 431 489.5 c 128,-1,49
 402 467 402 467 402 428 c 0,34,35
512 200 m 1,50,51
 507 198 507 198 499 194.5 c 128,-1,52
 491 191 491 191 470.5 179.5 c 128,-1,53
 450 168 450 168 434 155.5 c 128,-1,54
 418 143 418 143 405 123.5 c 128,-1,55
 392 104 392 104 392 84 c 0,56,57
 392 45 392 45 424 22.5 c 128,-1,58
 456 0 456 0 512 0 c 128,-1,59
 568 0 568 0 600 22.5 c 128,-1,60
 632 45 632 45 632 84 c 0,61,62
 632 116 632 116 602 145 c 128,-1,63
 572 174 572 174 542 187 c 2,64,-1
 512 200 l 1,50,51
EndSplineSet
EndChar

StartChar: uni2089
Encoding: 8329 8329 144
Width: 1024
VWidth: 0
Flags: MW
LayerCount: 2
Fore
SplineSet
512 -128 m 1,0,-1
 342 -128 l 1,1,-1
 580 200 l 1,2,3
 554 192 554 192 512 192 c 0,4,5
 394 192 394 192 325 252 c 128,-1,6
 256 312 256 312 256 416 c 0,7,8
 256 522 256 522 326.5 585 c 128,-1,9
 397 648 397 648 512 648 c 128,-1,10
 627 648 627 648 697.5 585 c 128,-1,11
 768 522 768 522 768 416 c 0,12,13
 768 352 768 352 742 274.5 c 128,-1,14
 716 197 716 197 672 126 c 2,15,-1
 512 -128 l 1,0,-1
512 320 m 0,16,17
 574 320 574 320 598 341 c 128,-1,18
 622 362 622 362 622 416 c 0,19,20
 622 460 622 460 592.5 486 c 128,-1,21
 563 512 563 512 512 512 c 128,-1,22
 461 512 461 512 431.5 486 c 128,-1,23
 402 460 402 460 402 416 c 128,-1,24
 402 372 402 372 431.5 346 c 128,-1,25
 461 320 461 320 512 320 c 0,16,17
EndSplineSet
EndChar

StartChar: uni208A
Encoding: 8330 8330 145
Width: 1024
VWidth: 0
Flags: MW
LayerCount: 2
Fore
SplineSet
439 608 m 1,0,-1
 585 608 l 1,1,-1
 585 324 l 1,2,-1
 864 324 l 1,3,-1
 864 188 l 1,4,-1
 585 188 l 1,5,-1
 585 -96 l 1,6,-1
 439 -96 l 1,7,-1
 439 188 l 1,8,-1
 160 188 l 1,9,-1
 160 324 l 1,10,-1
 439 324 l 1,11,-1
 439 608 l 1,0,-1
EndSplineSet
EndChar

StartChar: uni208B
Encoding: 8331 8331 146
Width: 1024
VWidth: 0
Flags: MW
LayerCount: 2
Fore
SplineSet
160 324 m 1,0,-1
 864 324 l 1,1,-1
 864 188 l 1,2,-1
 160 188 l 1,3,-1
 160 324 l 1,0,-1
EndSplineSet
EndChar

StartChar: uni208C
Encoding: 8332 8332 147
Width: 1024
VWidth: 0
Flags: MW
LayerCount: 2
Fore
SplineSet
160 460 m 1,0,-1
 864 460 l 1,1,-1
 864 324 l 1,2,-1
 160 324 l 1,3,-1
 160 460 l 1,0,-1
160 188 m 1,4,-1
 864 188 l 1,5,-1
 864 52 l 1,6,-1
 160 52 l 1,7,-1
 160 188 l 1,4,-1
EndSplineSet
EndChar

StartChar: uni208D
Encoding: 8333 8333 148
Width: 1024
VWidth: 0
Flags: MW
LayerCount: 2
Fore
SplineSet
640 640 m 1,0,-1
 704 546 l 1,1,2
 696 543 696 543 683 537 c 128,-1,3
 670 531 670 531 637 506.5 c 128,-1,4
 604 482 604 482 579 452 c 128,-1,5
 554 422 554 422 533 369.5 c 128,-1,6
 512 317 512 317 512 256 c 128,-1,7
 512 195 512 195 532 142.5 c 128,-1,8
 552 90 552 90 580 59 c 128,-1,9
 608 28 608 28 636 5.5 c 128,-1,10
 664 -17 664 -17 684 -25.5 c 2,11,-1
 704 -34 l 1,12,-1
 640 -128 l 1,13,14
 629 -124 629 -124 611.5 -116 c 128,-1,15
 594 -108 594 -108 548.5 -75.5 c 128,-1,16
 503 -43 503 -43 468 -3.5 c 128,-1,17
 433 36 433 36 404.5 105.5 c 128,-1,18
 376 175 376 175 376 256 c 0,19,20
 376 315 376 315 390.5 368 c 128,-1,21
 405 421 405 421 428.5 458.5 c 128,-1,22
 452 496 452 496 480 528 c 128,-1,23
 508 560 508 560 536 580 c 128,-1,24
 564 600 564 600 587.5 614 c 128,-1,25
 611 628 611 628 625.5 634 c 2,26,-1
 640 640 l 1,0,-1
EndSplineSet
EndChar

StartChar: uni2090
Encoding: 8336 8336 149
Width: 1024
VWidth: 0
Flags: MW
LayerCount: 2
Fore
SplineSet
408 644 m 0,0,1
 629 644 629 644 714.5 589.5 c 128,-1,2
 800 535 800 535 800 394 c 2,3,-1
 800 8 l 2,4,5
 800 -55 800 -55 761 -91.5 c 128,-1,6
 722 -128 722 -128 654 -128 c 2,7,-1
 469 -128 l 2,8,9
 352 -128 352 -128 284 -62 c 128,-1,10
 216 4 216 4 216 119 c 0,11,12
 216 214 216 214 284 269 c 128,-1,13
 352 324 352 324 469 324 c 2,14,-1
 654 324 l 1,15,-1
 654 394 l 2,16,17
 654 458 654 458 600.5 483 c 128,-1,18
 547 508 547 508 408 508 c 2,19,-1
 256 508 l 1,20,-1
 256 636 l 1,21,22
 314 644 314 644 408 644 c 0,0,1
469 188 m 2,23,24
 419 188 419 188 390.5 169.5 c 128,-1,25
 362 151 362 151 362 119 c 0,26,27
 362 67 362 67 390.5 37.5 c 128,-1,28
 419 8 419 8 469 8 c 2,29,-1
 654 8 l 1,30,-1
 654 188 l 1,31,-1
 469 188 l 2,23,24
EndSplineSet
EndChar

StartChar: uni2091
Encoding: 8337 8337 150
Width: 1024
VWidth: 0
Flags: MW
LayerCount: 2
Fore
SplineSet
553 -132 m 0,0,1
 382 -132 382 -132 283 -27 c 128,-1,2
 184 78 184 78 184 256 c 0,3,4
 184 435 184 435 272.5 541.5 c 128,-1,5
 361 648 361 648 512 648 c 0,6,7
 660 648 660 648 746 573 c 128,-1,8
 832 498 832 498 832 368 c 2,9,-1
 832 324 l 2,10,11
 832 247 832 247 800 217.5 c 128,-1,12
 768 188 768 188 686 188 c 2,13,-1
 338 188 l 1,14,15
 338 181 338 181 339.5 168.5 c 128,-1,16
 341 156 341 156 352.5 125 c 128,-1,17
 364 94 364 94 384 70.5 c 128,-1,18
 404 47 404 47 448.5 27.5 c 128,-1,19
 493 8 493 8 553 8 c 2,20,-1
 768 8 l 1,21,-1
 768 -124 l 1,22,23
 686 -132 686 -132 553 -132 c 0,0,1
686 324 m 1,24,-1
 686 368 l 2,25,26
 686 435 686 435 639.5 473.5 c 128,-1,27
 593 512 593 512 512 512 c 0,28,29
 463 512 463 512 427.5 492.5 c 128,-1,30
 392 473 392 473 375.5 445.5 c 128,-1,31
 359 418 359 418 349.5 390.5 c 128,-1,32
 340 363 340 363 339 343.5 c 2,33,-1
 338 324 l 1,34,-1
 686 324 l 1,24,-1
EndSplineSet
EndChar

StartChar: uni2092
Encoding: 8338 8338 151
Width: 1024
VWidth: 0
Flags: MW
LayerCount: 2
Fore
SplineSet
512 648 m 128,-1,1
 666 648 666 648 745 559.5 c 128,-1,2
 824 471 824 471 824 256 c 128,-1,3
 824 41 824 41 745 -47.5 c 128,-1,4
 666 -136 666 -136 512 -136 c 128,-1,5
 358 -136 358 -136 279 -47.5 c 128,-1,6
 200 41 200 41 200 256 c 128,-1,7
 200 471 200 471 279 559.5 c 128,-1,0
 358 648 358 648 512 648 c 128,-1,1
512 512 m 128,-1,9
 430 512 430 512 388 454.5 c 128,-1,10
 346 397 346 397 346 256 c 128,-1,11
 346 115 346 115 388 57.5 c 128,-1,12
 430 0 430 0 512 0 c 128,-1,13
 594 0 594 0 636 57.5 c 128,-1,14
 678 115 678 115 678 256 c 128,-1,15
 678 397 678 397 636 454.5 c 128,-1,8
 594 512 594 512 512 512 c 128,-1,9
EndSplineSet
EndChar

StartChar: uni2093
Encoding: 8339 8339 152
Width: 1024
VWidth: 0
Flags: MW
LayerCount: 2
Fore
SplineSet
176 640 m 1,0,-1
 352 640 l 1,1,-1
 512 366 l 1,2,-1
 672 640 l 1,3,-1
 848 640 l 1,4,-1
 600 256 l 1,5,-1
 848 -128 l 1,6,-1
 672 -128 l 1,7,-1
 512 146 l 1,8,-1
 352 -128 l 1,9,-1
 176 -128 l 1,10,-1
 424 256 l 1,11,-1
 176 640 l 1,0,-1
EndSplineSet
EndChar

StartChar: uni208E
Encoding: 8334 8334 154
Width: 1024
VWidth: 0
Flags: MW
LayerCount: 2
Fore
SplineSet
384.099609375 640 m 1,0,1
 389.617189901 637.98176403 389.617189901 637.98176403 399.119174516 633.907511973 c 128,-1,2
 408.621159131 629.833259916 408.621159131 629.833259916 436.042143359 614.185338337 c 128,-1,3
 463.463127588 598.537416757 463.463127588 598.537416757 488.40197335 579.609623398 c 128,-1,4
 513.340819112 560.681830039 513.340819112 560.681830039 543.7972454 527.980778388 c 128,-1,5
 574.253671688 495.279726737 574.253671688 495.279726737 596.157075391 458.139996485 c 128,-1,6
 618.060479093 421.000266232 618.060479093 421.000266232 633.080044234 367.88768892 c 128,-1,7
 648.099609375 314.775111607 648.099609375 314.775111607 648.099609375 256 c 128,-1,8
 648.099609375 197.224888393 648.099609375 197.224888393 633.539842611 144.280497411 c 128,-1,9
 618.980075847 91.3361064292 618.980075847 91.3361064292 595.697277013 53.6918171845 c 128,-1,10
 572.41447818 16.0475279397 572.41447818 16.0475279397 544.257043777 -15.8125920569 c 128,-1,11
 516.099609375 -47.6727120536 516.099609375 -47.6727120536 487.942174973 -67.7778097288 c 128,-1,12
 459.78474057 -87.882907404 459.78474057 -87.882907404 436.501941737 -102.017152006 c 128,-1,13
 413.219142903 -116.151396608 413.219142903 -116.151396608 398.659376139 -122.075698304 c 2,14,-1
 384.099609375 -128 l 1,15,-1
 320.099609375 -34 l 1,16,17
 324.112395212 -32.486230877 324.112395212 -32.486230877 331.022929478 -29.4262272618 c 128,-1,18
 337.933463743 -26.3662236466 337.933463743 -26.3662236466 357.875997727 -14.5908212987 c 128,-1,19
 377.818531712 -2.81541895077 377.818531712 -2.81541895077 395.955874084 11.4489207885 c 128,-1,20
 414.093216456 25.7132605278 414.093216456 25.7132605278 436.243344666 50.3892488544 c 128,-1,21
 458.393472876 75.065237181 458.393472876 75.065237181 474.323221023 103.122629334 c 128,-1,22
 490.25296917 131.180021488 490.25296917 131.180021488 501.176289272 171.345312083 c 128,-1,23
 512.099609375 211.510602679 512.099609375 211.510602679 512.099609375 256 c 128,-1,24
 512.099609375 300.489397321 512.099609375 300.489397321 501.510688092 340.52854049 c 128,-1,25
 490.921766809 380.567683658 490.921766809 380.567683658 473.988822203 409.003518093 c 128,-1,26
 457.055877597 437.439352527 457.055877597 437.439352527 436.577743486 461.484603719 c 128,-1,27
 416.099609375 485.529854911 416.099609375 485.529854911 395.621475264 500.677226638 c 128,-1,28
 375.143341153 515.824598366 375.143341153 515.824598366 358.210396547 526.464673872 c 128,-1,29
 341.277451941 537.104749377 341.277451941 537.104749377 330.688530658 541.552374689 c 2,30,-1
 320.099609375 546 l 1,31,-1
 384.099609375 640 l 1,0,1
EndSplineSet
EndChar

StartChar: uni207F
Encoding: 8319 8319 167
Width: 1024
VWidth: 0
Flags: MW
LayerCount: 2
Fore
SplineSet
800 640 m 1,0,-1
 654 640 l 1,1,-1
 654 1120 l 2,2,3
 654 1206 654 1206 618 1243 c 128,-1,4
 582 1280 582 1280 512 1280 c 0,5,6
 473 1280 473 1280 437.5 1276 c 128,-1,7
 402 1272 402 1272 386 1268 c 2,8,-1
 370 1264 l 1,9,-1
 370 640 l 1,10,-1
 224 640 l 1,11,-1
 224 1348 l 1,12,13
 236 1356 236 1356 259.5 1367 c 128,-1,14
 283 1378 283 1378 358 1397 c 128,-1,15
 433 1416 433 1416 512 1416 c 0,16,17
 653 1416 653 1416 726.5 1347.5 c 128,-1,18
 800 1279 800 1279 800 1120 c 2,19,-1
 800 640 l 1,0,-1
EndSplineSet
EndChar

StartChar: uni2071
Encoding: 8305 8305 168
Width: 1024
VWidth: 0
Flags: MW
LayerCount: 2
Fore
SplineSet
428 1408 m 1,0,-1
 585 1408 l 1,1,-1
 585 1272 l 1,2,-1
 428 1272 l 1,3,-1
 428 1408 l 1,0,-1
288 1152 m 1,4,-1
 585 1152 l 1,5,-1
 585 776 l 1,6,-1
 768 776 l 1,7,-1
 768 640 l 1,8,-1
 256 640 l 1,9,-1
 256 776 l 1,10,-1
 439 776 l 1,11,-1
 439 1016 l 1,12,-1
 288 1016 l 1,13,-1
 288 1152 l 1,4,-1
EndSplineSet
EndChar

StartChar: tonos
Encoding: 900 900 171
Width: 1024
VWidth: 0
Flags: MW
LayerCount: 2
Fore
SplineSet
483 1408 m 1,0,-1
 640 1408 l 1,1,-1
 640 1376 l 1,2,-1
 512 1123 l 1,3,-1
 384 1123 l 1,4,-1
 384 1155 l 1,5,-1
 483 1408 l 1,0,-1
EndSplineSet
EndChar

StartChar: dieresistonos
Encoding: 901 901 172
Width: 1024
VWidth: 0
Flags: MW
LayerCount: 2
Fore
SplineSet
535 1536 m 1,0,-1
 681 1536 l 1,1,-1
 681 1504 l 1,2,-1
 553 1280 l 1,3,-1
 425 1280 l 1,4,-1
 425 1312 l 1,5,-1
 535 1536 l 1,0,-1
112 1392 m 128,-1,7
 158 1392 158 1392 191 1359 c 128,-1,8
 224 1326 224 1326 224 1280 c 128,-1,9
 224 1234 224 1234 191 1201 c 128,-1,10
 158 1168 158 1168 112 1168 c 128,-1,11
 66 1168 66 1168 33 1201 c 128,-1,12
 0 1234 0 1234 0 1280 c 128,-1,13
 0 1326 0 1326 33 1359 c 128,-1,6
 66 1392 66 1392 112 1392 c 128,-1,7
912 1392 m 128,-1,15
 958 1392 958 1392 991 1359 c 128,-1,16
 1024 1326 1024 1326 1024 1280 c 128,-1,17
 1024 1234 1024 1234 991 1201 c 128,-1,18
 958 1168 958 1168 912 1168 c 128,-1,19
 866 1168 866 1168 833 1201 c 128,-1,20
 800 1234 800 1234 800 1280 c 128,-1,21
 800 1326 800 1326 833 1359 c 128,-1,14
 866 1392 866 1392 912 1392 c 128,-1,15
EndSplineSet
EndChar

StartChar: Gamma
Encoding: 915 915 189
Width: 1024
VWidth: 0
Flags: MW
LayerCount: 2
Fore
SplineSet
160 0 m 1,0,-1
 160 1280 l 1,1,-1
 896 1280 l 1,2,-1
 896 1123 l 1,3,-1
 330 1123 l 1,4,-1
 330 0 l 1,5,-1
 160 0 l 1,0,-1
EndSplineSet
EndChar

StartChar: uni0394
Encoding: 916 916 190
Width: 1024
VWidth: 0
Flags: MW
LayerCount: 2
Fore
SplineSet
410 1280 m 1,0,-1
 614 1280 l 1,1,-1
 960 157 l 1,2,-1
 960 0 l 1,3,-1
 64 0 l 1,4,-1
 64 157 l 1,5,-1
 410 1280 l 1,0,-1
512 1103 m 1,6,-1
 479 926 l 1,7,-1
 242 157 l 1,8,-1
 782 157 l 1,9,-1
 545 926 l 1,10,-1
 512 1103 l 1,6,-1
EndSplineSet
EndChar

StartChar: Theta
Encoding: 920 920 191
Width: 1024
VWidth: 0
Flags: MW
LayerCount: 2
Fore
SplineSet
512 1296 m 128,-1,1
 616 1296 616 1296 693 1262 c 128,-1,2
 770 1228 770 1228 827.5 1153 c 128,-1,3
 885 1078 885 1078 914.5 949.5 c 128,-1,4
 944 821 944 821 944 640 c 128,-1,5
 944 459 944 459 914.5 330.5 c 128,-1,6
 885 202 885 202 827.5 127 c 128,-1,7
 770 52 770 52 693 18 c 128,-1,8
 616 -16 616 -16 512 -16 c 128,-1,9
 408 -16 408 -16 331 18 c 128,-1,10
 254 52 254 52 196.5 127 c 128,-1,11
 139 202 139 202 109.5 330.5 c 128,-1,12
 80 459 80 459 80 640 c 128,-1,13
 80 821 80 821 109.5 949.5 c 128,-1,14
 139 1078 139 1078 196.5 1153 c 128,-1,15
 254 1228 254 1228 331 1262 c 128,-1,0
 408 1296 408 1296 512 1296 c 128,-1,1
512 1139 m 128,-1,17
 449 1139 449 1139 402.5 1113 c 128,-1,18
 356 1087 356 1087 321 1030 c 128,-1,19
 286 973 286 973 268 875.5 c 128,-1,20
 250 778 250 778 250 640 c 128,-1,21
 250 502 250 502 268 404.5 c 128,-1,22
 286 307 286 307 321 250 c 128,-1,23
 356 193 356 193 402.5 167 c 128,-1,24
 449 141 449 141 512 141 c 128,-1,25
 575 141 575 141 621.5 167 c 128,-1,26
 668 193 668 193 703 250 c 128,-1,27
 738 307 738 307 756 404.5 c 128,-1,28
 774 502 774 502 774 640 c 128,-1,29
 774 778 774 778 756 875.5 c 128,-1,30
 738 973 738 973 703 1030 c 128,-1,31
 668 1087 668 1087 621.5 1113 c 128,-1,16
 575 1139 575 1139 512 1139 c 128,-1,17
320 719 m 1,32,-1
 704 719 l 1,33,-1
 704 561 l 1,34,-1
 320 561 l 1,35,-1
 320 719 l 1,32,-1
EndSplineSet
EndChar

StartChar: Lambda
Encoding: 923 923 192
Width: 1024
VWidth: 0
Flags: MW
LayerCount: 2
Fore
SplineSet
32 0 m 1,0,-1
 410 1280 l 1,1,-1
 614 1280 l 1,2,-1
 992 0 l 1,3,-1
 815 0 l 1,4,-1
 542 926 l 1,5,-1
 512 1103 l 1,6,-1
 482 926 l 1,7,-1
 209 0 l 1,8,-1
 32 0 l 1,0,-1
EndSplineSet
EndChar

StartChar: Xi
Encoding: 926 926 193
Width: 1024
VWidth: 0
Flags: MW
LayerCount: 2
Fore
SplineSet
128 1280 m 1,0,-1
 896 1280 l 1,1,-1
 896 1123 l 1,2,-1
 128 1123 l 1,3,-1
 128 1280 l 1,0,-1
224 768 m 1,4,-1
 800 768 l 1,5,-1
 800 611 l 1,6,-1
 224 611 l 1,7,-1
 224 768 l 1,4,-1
128 157 m 1,8,-1
 896 157 l 1,9,-1
 896 0 l 1,10,-1
 128 0 l 1,11,-1
 128 157 l 1,8,-1
EndSplineSet
EndChar

StartChar: Pi
Encoding: 928 928 194
Width: 1024
VWidth: 0
Flags: MW
LayerCount: 2
Fore
SplineSet
128 1280 m 1,0,-1
 896 1280 l 1,1,-1
 896 0 l 1,2,-1
 726 0 l 1,3,-1
 726 1123 l 1,4,-1
 298 1123 l 1,5,-1
 298 0 l 1,6,-1
 128 0 l 1,7,-1
 128 1280 l 1,0,-1
EndSplineSet
EndChar

StartChar: Sigma
Encoding: 931 931 195
Width: 1024
VWidth: 0
Flags: MW
LayerCount: 2
Fore
SplineSet
96 1280 m 1,0,-1
 928 1280 l 1,1,-1
 928 1123 l 1,2,-1
 314 1123 l 1,3,-1
 729 691 l 1,4,-1
 312 157 l 1,5,-1
 928 157 l 1,6,-1
 928 0 l 1,7,-1
 96 0 l 1,8,-1
 96 157 l 1,9,-1
 512 689 l 1,10,-1
 96 1123 l 1,11,-1
 96 1280 l 1,0,-1
EndSplineSet
EndChar

StartChar: Phi
Encoding: 934 934 196
Width: 1024
VWidth: 0
Flags: MW
LayerCount: 2
Fore
SplineSet
427 1384 m 1,0,-1
 597 1384 l 1,1,-1
 597 1176 l 1,2,3
 717 1163 717 1163 801 1106 c 0,4,5
 884 1050 884 1050 930 934 c 128,-1,6
 976 818 976 818 976 640 c 128,-1,7
 976 462 976 462 930 346 c 128,-1,8
 884 230 884 230 801 174 c 0,9,10
 717 117 717 117 597 104 c 1,11,-1
 597 -104 l 1,12,-1
 427 -104 l 1,13,-1
 427 103 l 1,14,15
 305.5 116.5 305.5 116.5 223 172 c 0,16,17
 141 227 141 227 94 345 c 0,18,19
 48 461 48 461 48 640 c 0,20,21
 48 818 48 818 94 934 c 128,-1,22
 140 1050 140 1050 223 1106 c 0,23,24
 307 1163 307 1163 427 1176 c 1,25,-1
 427 1384 l 1,0,-1
448 1020 m 1,26,27
 335 1003 335 1003 276 913 c 0,28,29
 218 824 218 824 218 640 c 128,-1,30
 218 456 218 456 276 367 c 0,31,32
 335 277 335 277 448 260 c 1,33,-1
 448 1020 l 1,26,27
576 1020 m 1,34,-1
 576 260 l 1,35,36
 689 277 689 277 748 367 c 0,37,38
 806 456 806 456 806 640 c 128,-1,39
 806 824 806 824 748 913 c 0,40,41
 689 1003 689 1003 576 1020 c 1,34,-1
EndSplineSet
EndChar

StartChar: Psi
Encoding: 936 936 197
Width: 1024
VWidth: 0
Flags: MW
LayerCount: 2
Fore
SplineSet
64 1280 m 1,0,-1
 234 1280 l 1,1,-1
 234 768 l 2,2,3
 234 666 234 666 289 593.5 c 128,-1,4
 344 521 344 521 433 521 c 1,5,-1
 433 1280 l 1,6,-1
 591 1280 l 1,7,-1
 591 521 l 1,8,9
 680 521 680 521 735 593.5 c 128,-1,10
 790 666 790 666 790 768 c 2,11,-1
 790 1280 l 1,12,-1
 960 1280 l 1,13,-1
 960 768 l 2,14,15
 960 593 960 593 860.5 476.5 c 128,-1,16
 761 360 761 360 597 360 c 1,17,-1
 597 0 l 1,18,-1
 427 0 l 1,19,-1
 427 360 l 1,20,21
 263 360 263 360 163.5 476.5 c 128,-1,22
 64 593 64 593 64 768 c 2,23,-1
 64 1280 l 1,0,-1
EndSplineSet
EndChar

StartChar: uni03A9
Encoding: 937 937 198
Width: 1024
VWidth: 0
Flags: MW
LayerCount: 2
Fore
SplineSet
512 1296 m 128,-1,1
 601 1296 601 1296 671 1277 c 128,-1,2
 741 1258 741 1258 799 1214.5 c 128,-1,3
 857 1171 857 1171 895.5 1102.5 c 128,-1,4
 934 1034 934 1034 955 932.5 c 128,-1,5
 976 831 976 831 976 698 c 0,6,7
 976 604 976 604 949 514 c 128,-1,8
 922 424 922 424 884 362.5 c 128,-1,9
 846 301 846 301 808 252.5 c 128,-1,10
 770 204 770 204 743 180.5 c 2,11,-1
 716 157 l 1,12,-1
 992 157 l 1,13,-1
 992 0 l 1,14,-1
 614 0 l 1,15,-1
 614 256 l 1,16,17
 621 260 621 260 633.5 269.5 c 128,-1,18
 646 279 646 279 678 315.5 c 128,-1,19
 710 352 710 352 734 398 c 128,-1,20
 758 444 758 444 778 524 c 128,-1,21
 798 604 798 604 798 698 c 0,22,23
 798 936 798 936 725.5 1037.5 c 128,-1,24
 653 1139 653 1139 512 1139 c 128,-1,25
 371 1139 371 1139 298.5 1037.5 c 128,-1,26
 226 936 226 936 226 698 c 0,27,28
 226 630 226 630 236 568.5 c 128,-1,29
 246 507 246 507 262.5 464 c 128,-1,30
 279 421 279 421 298.5 384 c 128,-1,31
 318 347 318 347 337.5 324.5 c 128,-1,32
 357 302 357 302 373.5 285.5 c 128,-1,33
 390 269 390 269 400 262.5 c 2,34,-1
 410 256 l 1,35,-1
 410 0 l 1,36,-1
 32 0 l 1,37,-1
 32 157 l 1,38,-1
 308 157 l 1,39,40
 303 161 303 161 293.5 169.5 c 128,-1,41
 284 178 284 178 257 206 c 128,-1,42
 230 234 230 234 205.5 265 c 128,-1,43
 181 296 181 296 151 345 c 128,-1,44
 121 394 121 394 99.5 445 c 128,-1,45
 78 496 78 496 63 563 c 128,-1,46
 48 630 48 630 48 698 c 0,47,48
 48 831 48 831 69 932.5 c 128,-1,49
 90 1034 90 1034 128.5 1102.5 c 128,-1,50
 167 1171 167 1171 225 1214.5 c 128,-1,51
 283 1258 283 1258 353 1277 c 128,-1,0
 423 1296 423 1296 512 1296 c 128,-1,1
EndSplineSet
EndChar

StartChar: alpha
Encoding: 945 945 199
Width: 1024
VWidth: 0
Flags: MW
LayerCount: 2
Fore
SplineSet
583 1024 m 2,0,-1
 864 1024 l 1,1,-1
 864 370 l 2,2,3
 864 327 864 327 865.5 294.5 c 128,-1,4
 867 262 867 262 872 238 c 128,-1,5
 877 214 877 214 881.5 197 c 128,-1,6
 886 180 886 180 896 169.5 c 128,-1,7
 906 159 906 159 913 153 c 128,-1,8
 920 147 920 147 936 144.5 c 128,-1,9
 952 142 952 142 961.5 141.5 c 128,-1,10
 971 141 971 141 992 141 c 1,11,-1
 992 0 l 1,12,13
 946 -8 946 -8 887 -8 c 0,14,15
 849 -8 849 -8 818 7.5 c 128,-1,16
 787 23 787 23 769 45 c 128,-1,17
 751 67 751 67 739 88.5 c 128,-1,18
 727 110 727 110 722.5 125.5 c 2,19,-1
 718 141 l 1,20,21
 714 135 714 135 707 124 c 128,-1,22
 700 113 700 113 675.5 86 c 128,-1,23
 651 59 651 59 624.5 38.5 c 128,-1,24
 598 18 598 18 556.5 1 c 128,-1,25
 515 -16 515 -16 472 -16 c 0,26,27
 290 -16 290 -16 185 100.5 c 128,-1,28
 80 217 80 217 80 418 c 0,29,30
 80 699 80 699 215 861.5 c 128,-1,31
 350 1024 350 1024 583 1024 c 2,0,-1
694 867 m 1,32,-1
 583 867 l 2,33,34
 429 867 429 867 339.5 746.5 c 128,-1,35
 250 626 250 626 250 418 c 0,36,37
 250 290 250 290 309.5 215.5 c 128,-1,38
 369 141 369 141 472 141 c 0,39,40
 510 141 510 141 547 164.5 c 128,-1,41
 584 188 584 188 609.5 222 c 128,-1,42
 635 256 635 256 655 289.5 c 128,-1,43
 675 323 675 323 684.5 346.5 c 2,44,-1
 694 370 l 1,45,-1
 694 867 l 1,32,-1
EndSplineSet
EndChar

StartChar: beta
Encoding: 946 946 200
Width: 1024
VWidth: 0
Flags: MW
LayerCount: 2
Fore
SplineSet
488 1296 m 128,-1,1
 655 1296 655 1296 751.5 1204 c 128,-1,2
 848 1112 848 1112 848 954 c 0,3,4
 848 899 848 899 834 853.5 c 128,-1,5
 820 808 820 808 799.5 782 c 128,-1,6
 779 756 779 756 758.5 738 c 128,-1,7
 738 720 738 720 724 714 c 2,8,-1
 710 708 l 1,9,10
 720 705 720 705 735.5 699 c 128,-1,11
 751 693 751 693 791.5 668 c 128,-1,12
 832 643 832 643 862.5 610 c 128,-1,13
 893 577 893 577 918.5 517 c 128,-1,14
 944 457 944 457 944 384 c 0,15,16
 944 278 944 278 906 203 c 128,-1,17
 868 128 868 128 793 84 c 128,-1,18
 718 40 718 40 618 20 c 128,-1,19
 518 0 518 0 384 0 c 2,20,-1
 298 0 l 1,21,-1
 298 -256 l 1,22,-1
 128 -256 l 1,23,-1
 128 954 l 2,24,25
 128 1112 128 1112 224.5 1204 c 128,-1,0
 321 1296 321 1296 488 1296 c 128,-1,1
488 1139 m 128,-1,27
 400 1139 400 1139 349 1089 c 128,-1,28
 298 1039 298 1039 298 954 c 2,29,-1
 298 157 l 1,30,-1
 384 157 l 2,31,32
 571 157 571 157 668.5 209.5 c 128,-1,33
 766 262 766 262 766 384 c 0,34,35
 766 513 766 513 685.5 562 c 128,-1,36
 605 611 605 611 443 611 c 1,37,-1
 443 768 l 1,38,39
 552 768 552 768 615 818 c 128,-1,40
 678 868 678 868 678 954 c 0,41,42
 678 1039 678 1039 627 1089 c 128,-1,26
 576 1139 576 1139 488 1139 c 128,-1,27
EndSplineSet
EndChar

StartChar: gamma
Encoding: 947 947 201
Width: 1024
VWidth: 0
Flags: MW
LayerCount: 2
Fore
SplineSet
64 1024 m 1,0,-1
 244 1024 l 1,1,-1
 532 256 l 1,2,3
 540 266 540 266 553.5 285 c 128,-1,4
 567 304 567 304 601.5 362 c 128,-1,5
 636 420 636 420 662.5 478 c 128,-1,6
 689 536 689 536 710.5 616 c 128,-1,7
 732 696 732 696 732 768 c 0,8,9
 732 838 732 838 728 902 c 128,-1,10
 724 966 724 966 720 995 c 2,11,-1
 716 1024 l 1,12,-1
 896 1024 l 1,13,14
 912 926 912 926 912 768 c 0,15,16
 912 666 912 666 879.5 554 c 128,-1,17
 847 442 847 442 800.5 354.5 c 128,-1,18
 754 267 754 267 708 194.5 c 128,-1,19
 662 122 662 122 629.5 82.5 c 2,20,-1
 597 43 l 1,21,-1
 597 -256 l 1,22,-1
 427 -256 l 1,23,-1
 427 43 l 1,24,-1
 64 1024 l 1,0,-1
EndSplineSet
EndChar

StartChar: delta
Encoding: 948 948 202
Width: 1024
VWidth: 0
Flags: MW
LayerCount: 2
Fore
SplineSet
629 1288 m 0,0,1
 685 1288 685 1288 735.5 1284 c 128,-1,2
 786 1280 786 1280 809 1276 c 2,3,-1
 832 1272 l 1,4,-1
 832 1123 l 1,5,-1
 629 1123 l 2,6,7
 426 1123 426 1123 426 1061 c 0,8,9
 426 1028 426 1028 453 995.5 c 128,-1,10
 480 963 480 963 522.5 933.5 c 128,-1,11
 565 904 565 904 617 871.5 c 128,-1,12
 669 839 669 839 721 798.5 c 128,-1,13
 773 758 773 758 815.5 711 c 128,-1,14
 858 664 858 664 885 597.5 c 128,-1,15
 912 531 912 531 912 455 c 0,16,17
 912 237 912 237 804.5 110.5 c 128,-1,18
 697 -16 697 -16 512 -16 c 128,-1,19
 327 -16 327 -16 219.5 110.5 c 128,-1,20
 112 237 112 237 112 455 c 0,21,22
 112 516 112 516 126.5 571.5 c 128,-1,23
 141 627 141 627 164 666 c 128,-1,24
 187 705 187 705 215 738 c 128,-1,25
 243 771 243 771 271 792 c 128,-1,26
 299 813 299 813 322 828 c 128,-1,27
 345 843 345 843 359.5 849 c 2,28,-1
 374 855 l 1,29,30
 369 858 369 858 361 864 c 128,-1,31
 353 870 353 870 333 890.5 c 128,-1,32
 313 911 313 911 297.5 933.5 c 128,-1,33
 282 956 282 956 269 990.5 c 128,-1,34
 256 1025 256 1025 256 1061 c 0,35,36
 256 1172 256 1172 342.5 1230 c 128,-1,37
 429 1288 429 1288 629 1288 c 0,0,1
512 768 m 1,38,39
 503 765 503 765 487.5 759 c 128,-1,40
 472 753 472 753 432 728 c 128,-1,41
 392 703 392 703 362 671 c 128,-1,42
 332 639 332 639 307 581.5 c 128,-1,43
 282 524 282 524 282 455 c 0,44,45
 282 310 282 310 343.5 225.5 c 128,-1,46
 405 141 405 141 512 141 c 128,-1,47
 619 141 619 141 680.5 225.5 c 128,-1,48
 742 310 742 310 742 455 c 0,49,50
 742 514 742 514 724 562 c 128,-1,51
 706 610 706 610 669.5 648 c 128,-1,52
 633 686 633 686 599 711 c 128,-1,53
 565 736 565 736 512 768 c 1,38,39
EndSplineSet
EndChar

StartChar: epsilon
Encoding: 949 949 203
Width: 1024
VWidth: 0
Flags: MW
LayerCount: 2
Fore
SplineSet
864 1016 m 1,0,-1
 864 867 l 1,1,-1
 589 867 l 2,2,3
 454 867 454 867 384 835.5 c 128,-1,4
 314 804 314 804 314 729 c 128,-1,5
 314 654 314 654 364.5 622.5 c 128,-1,6
 415 591 415 591 512 591 c 2,7,-1
 768 591 l 1,8,-1
 768 433 l 1,9,-1
 512 433 l 2,10,11
 399 433 399 433 340.5 401.5 c 128,-1,12
 282 370 282 370 282 295 c 128,-1,13
 282 220 282 220 360 188.5 c 128,-1,14
 438 157 438 157 589 157 c 2,15,-1
 896 157 l 1,16,-1
 896 8 l 1,17,18
 779 -8 779 -8 589 -8 c 0,19,20
 355 -8 355 -8 233.5 62 c 128,-1,21
 112 132 112 132 112 295 c 0,22,23
 112 344 112 344 131 384 c 128,-1,24
 150 424 150 424 177.5 447 c 128,-1,25
 205 470 205 470 232.5 485.5 c 128,-1,26
 260 501 260 501 279 506.5 c 2,27,-1
 298 512 l 2,28,29
 292 514 292 514 281.5 518 c 128,-1,30
 271 522 271 522 244.5 538.5 c 128,-1,31
 218 555 218 555 197.5 577 c 128,-1,32
 177 599 177 599 160.5 639.5 c 128,-1,33
 144 680 144 680 144 729 c 0,34,35
 144 892 144 892 257.5 962 c 128,-1,36
 371 1032 371 1032 589 1032 c 0,37,38
 665 1032 665 1032 733.5 1028 c 128,-1,39
 802 1024 802 1024 833 1020 c 2,40,-1
 864 1016 l 1,0,-1
EndSplineSet
EndChar

StartChar: zeta
Encoding: 950 950 204
Width: 1024
VWidth: 0
Flags: MW
LayerCount: 2
Fore
SplineSet
635 1123 m 1,0,-1
 192 1123 l 1,1,-1
 192 1280 l 1,2,-1
 896 1280 l 1,3,-1
 896 1123 l 1,4,5
 883 1116 883 1116 861 1102.5 c 128,-1,6
 839 1089 839 1089 775 1045.5 c 128,-1,7
 711 1002 711 1002 653 957 c 128,-1,8
 595 912 595 912 524.5 846 c 128,-1,9
 454 780 454 780 403 716.5 c 128,-1,10
 352 653 352 653 317 577.5 c 128,-1,11
 282 502 282 502 282 434 c 0,12,13
 282 352 282 352 343.5 304 c 128,-1,14
 405 256 405 256 512 256 c 0,15,16
 605 256 605 256 677.5 238.5 c 128,-1,17
 750 221 750 221 794.5 191.5 c 128,-1,18
 839 162 839 162 869.5 123.5 c 128,-1,19
 900 85 900 85 911 42.5 c 128,-1,20
 922 -0 922 -0 926.5 -42.5 c 128,-1,21
 931 -85 931 -85 925.5 -123.5 c 128,-1,22
 920 -162 920 -162 914 -191.5 c 128,-1,23
 908 -221 908 -221 902 -238.5 c 2,24,-1
 896 -256 l 1,25,-1
 724 -256 l 1,26,27
 726 -251 726 -251 729.5 -243.5 c 128,-1,28
 733 -236 733 -236 741 -211.5 c 128,-1,29
 749 -187 749 -187 754.5 -163.5 c 128,-1,30
 760 -140 760 -140 762 -108 c 128,-1,31
 764 -76 764 -76 759 -48.5 c 128,-1,32
 754 -21 754 -21 737.5 7 c 128,-1,33
 721 35 721 35 694 54.5 c 128,-1,34
 667 74 667 74 620.5 86.5 c 128,-1,35
 574 99 574 99 512 99 c 0,36,37
 327 99 327 99 219.5 189 c 128,-1,38
 112 279 112 279 112 434 c 0,39,40
 112 502 112 502 141 577 c 128,-1,41
 170 652 170 652 216 717 c 128,-1,42
 262 782 262 782 318 845 c 128,-1,43
 374 908 374 908 429.5 957.5 c 128,-1,44
 485 1007 485 1007 531 1044.5 c 128,-1,45
 577 1082 577 1082 606 1102.5 c 2,46,-1
 635 1123 l 1,0,-1
EndSplineSet
EndChar

StartChar: eta
Encoding: 951 951 205
Width: 1024
VWidth: 0
Flags: MW
LayerCount: 2
Fore
SplineSet
512 1040 m 0,0,1
 700 1040 700 1040 798 952 c 128,-1,2
 896 864 896 864 896 658 c 2,3,-1
 896 -256 l 1,4,-1
 726 -256 l 1,5,-1
 726 658 l 2,6,7
 726 779 726 779 671.5 831 c 128,-1,8
 617 883 617 883 512 883 c 0,9,10
 453 883 453 883 399.5 872 c 128,-1,11
 346 861 346 861 322 850 c 2,12,-1
 298 839 l 1,13,-1
 298 99 l 1,14,-1
 128 99 l 1,15,-1
 128 936 l 1,16,17
 134 940 134 940 145.5 947 c 128,-1,18
 157 954 157 954 195 972 c 128,-1,19
 233 990 233 990 274.5 1004 c 128,-1,20
 316 1018 316 1018 381 1029 c 128,-1,21
 446 1040 446 1040 512 1040 c 0,0,1
EndSplineSet
EndChar

StartChar: theta
Encoding: 952 952 206
Width: 1024
VWidth: 0
Flags: MW
LayerCount: 2
Fore
SplineSet
512 1296 m 128,-1,1
 697 1296 697 1296 804.5 1120 c 128,-1,2
 912 944 912 944 912 640 c 128,-1,3
 912 336 912 336 804.5 160 c 128,-1,4
 697 -16 697 -16 512 -16 c 128,-1,5
 327 -16 327 -16 219.5 160 c 128,-1,6
 112 336 112 336 112 640 c 128,-1,7
 112 944 112 944 219.5 1120 c 128,-1,0
 327 1296 327 1296 512 1296 c 128,-1,1
512 1139 m 128,-1,9
 466 1139 466 1139 429 1118.5 c 128,-1,10
 392 1098 392 1098 369.5 1065.5 c 128,-1,11
 347 1033 347 1033 330 993.5 c 128,-1,12
 313 954 313 954 305.5 914 c 128,-1,13
 298 874 298 874 293.5 841.5 c 128,-1,14
 289 809 289 809 288.5 788.5 c 2,15,-1
 288 768 l 1,16,-1
 736 768 l 1,17,18
 736 776 736 776 735.5 789 c 128,-1,19
 735 802 735 802 730.5 841 c 128,-1,20
 726 880 726 880 718.5 915 c 128,-1,21
 711 950 711 950 694 992.5 c 128,-1,22
 677 1035 677 1035 654.5 1066 c 128,-1,23
 632 1097 632 1097 595 1118 c 128,-1,8
 558 1139 558 1139 512 1139 c 128,-1,9
282 611 m 1,24,25
 282 601 282 601 282.5 584 c 128,-1,26
 283 567 283 567 287.5 518.5 c 128,-1,27
 292 470 292 470 300 425.5 c 128,-1,28
 308 381 308 381 325 326.5 c 128,-1,29
 342 272 342 272 365.5 233 c 128,-1,30
 389 194 389 194 427 167.5 c 128,-1,31
 465 141 465 141 512 141 c 128,-1,32
 559 141 559 141 597 167 c 128,-1,33
 635 193 635 193 658.5 234.5 c 128,-1,34
 682 276 682 276 699 326 c 128,-1,35
 716 376 716 376 724 426 c 128,-1,36
 732 476 732 476 736.5 517.5 c 128,-1,37
 741 559 741 559 741.5 585 c 2,38,-1
 742 611 l 1,39,-1
 282 611 l 1,24,25
EndSplineSet
EndChar

StartChar: iota
Encoding: 953 953 207
Width: 1024
VWidth: 0
Flags: MW
LayerCount: 2
Fore
SplineSet
811 8 m 1,0,1
 767 -8 767 -8 697 -8 c 0,2,3
 523 -8 523 -8 432.5 66 c 128,-1,4
 342 140 342 140 342 314 c 2,5,-1
 342 1024 l 1,6,-1
 512 1024 l 1,7,-1
 512 314 l 2,8,9
 512 229 512 229 559 193 c 128,-1,10
 606 157 606 157 697 157 c 2,11,-1
 811 157 l 1,12,-1
 811 8 l 1,0,1
EndSplineSet
EndChar

StartChar: kappa
Encoding: 954 954 208
Width: 1024
VWidth: 0
Flags: MW
LayerCount: 2
Fore
SplineSet
756 1024 m 1,0,-1
 960 1024 l 1,1,-1
 490 531 l 1,2,-1
 960 0 l 1,3,-1
 750 0 l 1,4,-1
 298 512 l 1,5,-1
 298 0 l 1,6,-1
 128 0 l 1,7,-1
 128 1024 l 1,8,-1
 298 1024 l 1,9,-1
 298 544 l 1,10,-1
 756 1024 l 1,0,-1
EndSplineSet
EndChar

StartChar: lambda
Encoding: 955 955 209
Width: 1024
VWidth: 0
Flags: MW
LayerCount: 2
Fore
SplineSet
128 1272 m 1,0,1
 176 1288 176 1288 253 1288 c 0,2,3
 286 1288 286 1288 312.5 1278 c 128,-1,4
 339 1268 339 1268 356.5 1255.5 c 128,-1,5
 374 1243 374 1243 393.5 1213 c 128,-1,6
 413 1183 413 1183 423.5 1162 c 128,-1,7
 434 1141 434 1141 455 1095 c 2,8,-1
 960 0 l 1,9,-1
 773 0 l 1,10,-1
 512 565 l 1,11,-1
 251 0 l 1,12,-1
 64 0 l 1,13,-1
 418 768 l 1,14,-1
 300 1019 l 2,15,16
 285 1051 285 1051 279 1063.5 c 128,-1,17
 273 1076 273 1076 260.5 1091.5 c 128,-1,18
 248 1107 248 1107 242.5 1110.5 c 128,-1,19
 237 1114 237 1114 216 1118.5 c 128,-1,20
 195 1123 195 1123 180.5 1123 c 128,-1,21
 166 1123 166 1123 128 1123 c 1,22,-1
 128 1272 l 1,0,1
EndSplineSet
EndChar

StartChar: nu
Encoding: 957 957 210
Width: 1024
VWidth: 0
Flags: MW
LayerCount: 2
Fore
SplineSet
64 1024 m 1,0,-1
 244 1024 l 1,1,-1
 532 213 l 1,2,3
 540 224 540 224 554.5 244.5 c 128,-1,4
 569 265 569 265 604.5 328 c 128,-1,5
 640 391 640 391 667.5 453.5 c 128,-1,6
 695 516 695 516 717.5 603 c 128,-1,7
 740 690 740 690 740 768 c 0,8,9
 740 838 740 838 736 902 c 128,-1,10
 732 966 732 966 728 995 c 2,11,-1
 724 1024 l 1,12,-1
 896 1024 l 1,13,14
 912 926 912 926 912 768 c 0,15,16
 912 660 912 660 879.5 541.5 c 128,-1,17
 847 423 847 423 800.5 330.5 c 128,-1,18
 754 238 754 238 708 161 c 128,-1,19
 662 84 662 84 629.5 42 c 2,20,-1
 597 0 l 1,21,-1
 427 0 l 1,22,-1
 64 1024 l 1,0,-1
EndSplineSet
EndChar

StartChar: xi
Encoding: 958 958 211
Width: 1024
VWidth: 0
Flags: MW
LayerCount: 2
Fore
SplineSet
346 708 m 1,0,1
 339 710 339 710 327.5 714.5 c 128,-1,2
 316 719 316 719 287 737.5 c 128,-1,3
 258 756 258 756 235.5 780 c 128,-1,4
 213 804 213 804 194.5 848.5 c 128,-1,5
 176 893 176 893 176 946 c 0,6,7
 176 1104 176 1104 291 1196 c 128,-1,8
 406 1288 406 1288 605 1288 c 0,9,10
 676 1288 676 1288 741 1284 c 128,-1,11
 806 1280 806 1280 835 1276 c 2,12,-1
 864 1272 l 1,13,-1
 864 1123 l 1,14,-1
 605 1123 l 2,15,16
 485 1123 485 1123 415.5 1075.5 c 128,-1,17
 346 1028 346 1028 346 946 c 0,18,19
 346 845 346 845 410.5 806.5 c 128,-1,20
 475 768 475 768 605 768 c 2,21,-1
 800 768 l 1,22,-1
 800 611 l 1,23,-1
 605 611 l 2,24,25
 443 611 443 611 362.5 573 c 128,-1,26
 282 535 282 535 282 434 c 0,27,28
 282 352 282 352 343.5 304 c 128,-1,29
 405 256 405 256 512 256 c 0,30,31
 605 256 605 256 677.5 238.5 c 128,-1,32
 750 221 750 221 794.5 191.5 c 128,-1,33
 839 162 839 162 869.5 123.5 c 128,-1,34
 900 85 900 85 911 42.5 c 128,-1,35
 922 -0 922 -0 926.5 -42.5 c 128,-1,36
 931 -85 931 -85 925.5 -123.5 c 128,-1,37
 920 -162 920 -162 914 -191.5 c 128,-1,38
 908 -221 908 -221 902 -238.5 c 2,39,-1
 896 -256 l 1,40,-1
 724 -256 l 1,41,42
 726 -251 726 -251 729.5 -243.5 c 128,-1,43
 733 -236 733 -236 741 -211.5 c 128,-1,44
 749 -187 749 -187 754.5 -163.5 c 128,-1,45
 760 -140 760 -140 762 -108 c 128,-1,46
 764 -76 764 -76 759 -48.5 c 128,-1,47
 754 -21 754 -21 737.5 7 c 128,-1,48
 721 35 721 35 694 54.5 c 128,-1,49
 667 74 667 74 620.5 86.5 c 128,-1,50
 574 99 574 99 512 99 c 0,51,52
 327 99 327 99 219.5 189 c 128,-1,53
 112 279 112 279 112 434 c 0,54,55
 112 495 112 495 136 546 c 128,-1,56
 160 597 160 597 194.5 625.5 c 128,-1,57
 229 654 229 654 263.5 674 c 128,-1,58
 298 694 298 694 322 701 c 2,59,-1
 346 708 l 1,0,1
EndSplineSet
EndChar

StartChar: pi
Encoding: 960 960 212
Width: 1024
VWidth: 0
Flags: MW
LayerCount: 2
Fore
SplineSet
694 0 m 1,0,-1
 694 867 l 1,1,-1
 330 867 l 1,2,-1
 330 0 l 1,3,-1
 160 0 l 1,4,-1
 160 867 l 1,5,-1
 64 867 l 1,6,-1
 64 1024 l 1,7,-1
 960 1024 l 1,8,-1
 960 867 l 1,9,-1
 864 867 l 1,10,-1
 864 0 l 1,11,-1
 694 0 l 1,0,-1
EndSplineSet
EndChar

StartChar: rho
Encoding: 961 961 213
Width: 1024
VWidth: 0
Flags: MW
LayerCount: 2
Fore
SplineSet
128 648 m 2,0,1
 128 829 128 829 231 934.5 c 128,-1,2
 334 1040 334 1040 512 1040 c 0,3,4
 697 1040 697 1040 804.5 914 c 128,-1,5
 912 788 912 788 912 570 c 128,-1,6
 912 352 912 352 804.5 225.5 c 128,-1,7
 697 99 697 99 512 99 c 2,8,-1
 298 99 l 1,9,-1
 298 -256 l 1,10,-1
 128 -256 l 1,11,-1
 128 648 l 2,0,1
512 883 m 0,12,13
 413 883 413 883 355.5 820 c 128,-1,14
 298 757 298 757 298 648 c 2,15,-1
 298 256 l 1,16,-1
 512 256 l 2,17,18
 619 256 619 256 680.5 340.5 c 128,-1,19
 742 425 742 425 742 570 c 128,-1,20
 742 715 742 715 680 799 c 128,-1,21
 618 883 618 883 512 883 c 0,12,13
EndSplineSet
EndChar

StartChar: sigma1
Encoding: 962 962 214
Width: 1024
VWidth: 0
Flags: MW
LayerCount: 2
Fore
SplineSet
642 1032 m 0,0,1
 703 1032 703 1032 758.5 1028 c 128,-1,2
 814 1024 814 1024 839 1020 c 2,3,-1
 864 1016 l 1,4,-1
 864 867 l 1,5,-1
 642 867 l 2,6,7
 475 867 475 867 378.5 771.5 c 128,-1,8
 282 676 282 676 282 512 c 0,9,10
 282 393 282 393 344 324.5 c 128,-1,11
 406 256 406 256 512 256 c 0,12,13
 605 256 605 256 677.5 238.5 c 128,-1,14
 750 221 750 221 794.5 191.5 c 128,-1,15
 839 162 839 162 869.5 123.5 c 128,-1,16
 900 85 900 85 911 42.5 c 128,-1,17
 922 -0 922 -0 926.5 -42.5 c 128,-1,18
 931 -85 931 -85 925.5 -123.5 c 128,-1,19
 920 -162 920 -162 914 -191.5 c 128,-1,20
 908 -221 908 -221 902 -238.5 c 2,21,-1
 896 -256 l 1,22,-1
 724 -256 l 1,23,24
 726 -251 726 -251 729.5 -243.5 c 128,-1,25
 733 -236 733 -236 741 -211.5 c 128,-1,26
 749 -187 749 -187 754.5 -163.5 c 128,-1,27
 760 -140 760 -140 762 -108 c 128,-1,28
 764 -76 764 -76 759 -48.5 c 128,-1,29
 754 -21 754 -21 737.5 7 c 128,-1,30
 721 35 721 35 694 54.5 c 128,-1,31
 667 74 667 74 620.5 86.5 c 128,-1,32
 574 99 574 99 512 99 c 0,33,34
 327 99 327 99 219.5 210 c 128,-1,35
 112 321 112 321 112 512 c 0,36,37
 112 751 112 751 257.5 891.5 c 128,-1,38
 403 1032 403 1032 642 1032 c 0,0,1
EndSplineSet
EndChar

StartChar: sigma
Encoding: 963 963 215
Width: 1024
VWidth: 0
Flags: MW
LayerCount: 2
Fore
SplineSet
512 1040 m 1,0,-1
 992 1024 l 1,1,-1
 992 883 l 1,2,-1
 809 883 l 1,3,4
 813 877 813 877 820 866 c 128,-1,5
 827 855 827 855 845 818.5 c 128,-1,6
 863 782 863 782 876.5 741.5 c 128,-1,7
 890 701 890 701 901 638.5 c 128,-1,8
 912 576 912 576 912 512 c 0,9,10
 912 267 912 267 804.5 125.5 c 128,-1,11
 697 -16 697 -16 512 -16 c 0,12,13
 408 -16 408 -16 331 11.5 c 128,-1,14
 254 39 254 39 196.5 99.5 c 128,-1,15
 139 160 139 160 109.5 263 c 128,-1,16
 80 366 80 366 80 512 c 128,-1,17
 80 658 80 658 109.5 761 c 128,-1,18
 139 864 139 864 196.5 924.5 c 128,-1,19
 254 985 254 985 331 1012.5 c 128,-1,20
 408 1040 408 1040 512 1040 c 1,0,-1
635 883 m 1,21,-1
 512 883 l 2,22,23
 391 883 391 883 320.5 782 c 128,-1,24
 250 681 250 681 250 512 c 0,25,26
 250 312 250 312 317 226.5 c 128,-1,27
 384 141 384 141 512 141 c 0,28,29
 618 141 618 141 680 240.5 c 128,-1,30
 742 340 742 340 742 512 c 0,31,32
 742 614 742 614 715 706.5 c 128,-1,33
 688 799 688 799 661.5 841 c 2,34,-1
 635 883 l 1,21,-1
EndSplineSet
EndChar

StartChar: tau
Encoding: 964 964 216
Width: 1024
VWidth: 0
Flags: MW
LayerCount: 2
Fore
SplineSet
864 8 m 1,0,1
 803 -8 803 -8 704 -8 c 0,2,3
 526 -8 526 -8 434 66 c 128,-1,4
 342 140 342 140 342 314 c 2,5,-1
 342 867 l 1,6,-1
 64 867 l 1,7,-1
 64 1024 l 1,8,-1
 928 1024 l 1,9,-1
 928 867 l 1,10,-1
 512 867 l 1,11,-1
 512 314 l 2,12,13
 512 229 512 229 561 193 c 128,-1,14
 610 157 610 157 704 157 c 2,15,-1
 864 157 l 1,16,-1
 864 8 l 1,0,1
EndSplineSet
EndChar

StartChar: upsilon
Encoding: 965 965 217
Width: 1024
VWidth: 0
Flags: MW
LayerCount: 2
Fore
SplineSet
128 1024 m 1,0,-1
 298 1024 l 1,1,-1
 298 366 l 2,2,3
 298 245 298 245 352.5 193 c 128,-1,4
 407 141 407 141 512 141 c 0,5,6
 613 141 613 141 676.5 242 c 128,-1,7
 740 343 740 343 740 512 c 0,8,9
 740 652 740 652 726 780 c 128,-1,10
 712 908 712 908 697.5 966 c 2,11,-1
 683 1024 l 1,12,-1
 853 1024 l 1,13,14
 860 1002 860 1002 869.5 960.5 c 128,-1,15
 879 919 879 919 895.5 785.5 c 128,-1,16
 912 652 912 652 912 512 c 0,17,18
 912 270 912 270 802 127 c 128,-1,19
 692 -16 692 -16 512 -16 c 0,20,21
 324 -16 324 -16 226 72 c 128,-1,22
 128 160 128 160 128 366 c 2,23,-1
 128 1024 l 1,0,-1
EndSplineSet
EndChar

StartChar: phi
Encoding: 966 966 218
Width: 1024
VWidth: 0
Flags: MW
LayerCount: 2
Fore
SplineSet
427 1280 m 1,0,-1
 597 1280 l 1,1,-1
 597 1036 l 1,2,3
 976 995 976 995 976 569 c 0,4,5
 976 144 976 144 597 103 c 1,6,-1
 597 -256 l 1,7,-1
 427 -256 l 1,8,-1
 427 103 l 1,9,10
 48 144 48 144 48 569 c 0,11,12
 48 995 48 995 427 1036 c 1,13,-1
 427 1280 l 1,0,-1
448 878 m 1,14,15
 342 862 342 862 280 787.5 c 128,-1,16
 218 713 218 713 218 569 c 0,17,18
 218 296 218 296 448 261 c 1,19,-1
 448 878 l 1,14,15
576 878 m 1,20,-1
 576 261 l 1,21,22
 806 296 806 296 806 569 c 0,23,24
 806 713 806 713 744 787.5 c 128,-1,25
 682 862 682 862 576 878 c 1,20,-1
EndSplineSet
EndChar

StartChar: chi
Encoding: 967 967 219
Width: 1024
VWidth: 0
Flags: MW
LayerCount: 2
Fore
SplineSet
64 1016 m 1,0,1
 122 1032 122 1032 192 1032 c 0,2,3
 228 1032 228 1032 256 1022 c 128,-1,4
 284 1012 284 1012 302.5 999 c 128,-1,5
 321 986 321 986 340 957 c 128,-1,6
 359 928 359 928 370 905.5 c 128,-1,7
 381 883 381 883 401 838 c 2,8,-1
 519 574 l 1,9,-1
 766 1024 l 1,10,-1
 960 1024 l 1,11,-1
 607 380 l 1,12,-1
 778 0 l 2,13,14
 792 -30 792 -30 797 -42 c 128,-1,15
 802 -54 802 -54 815 -69 c 128,-1,16
 828 -84 828 -84 834 -87 c 128,-1,17
 840 -90 840 -90 862.5 -94.5 c 128,-1,18
 885 -99 885 -99 901.5 -99 c 128,-1,19
 918 -99 918 -99 960 -99 c 1,20,-1
 960 -248 l 1,21,22
 911 -264 911 -264 832 -264 c 0,23,24
 796 -264 796 -264 768 -254 c 128,-1,25
 740 -244 740 -244 721.5 -231 c 128,-1,26
 703 -218 703 -218 684 -189 c 128,-1,27
 665 -160 665 -160 654 -137.5 c 128,-1,28
 643 -115 643 -115 623 -70 c 2,29,-1
 505 194 l 1,30,-1
 258 -256 l 1,31,-1
 64 -256 l 1,32,-1
 417 388 l 1,33,-1
 246 768 l 2,34,35
 232 798 232 798 227 810 c 128,-1,36
 222 822 222 822 209 837 c 128,-1,37
 196 852 196 852 190 855 c 128,-1,38
 184 858 184 858 161.5 862.5 c 128,-1,39
 139 867 139 867 122.5 867 c 128,-1,40
 106 867 106 867 64 867 c 1,41,-1
 64 1016 l 1,0,1
EndSplineSet
EndChar

StartChar: psi
Encoding: 968 968 220
Width: 1024
VWidth: 0
Flags: MW
LayerCount: 2
Fore
SplineSet
433 1280 m 1,0,-1
 591 1280 l 1,1,-1
 591 261 l 1,2,3
 687 276 687 276 737 336 c 128,-1,4
 787 396 787 396 788 512 c 2,5,-1
 790 1024 l 1,6,-1
 960 1024 l 1,7,-1
 960 512 l 2,8,9
 960 312 960 312 867.5 215.5 c 128,-1,10
 775 119 775 119 597 103 c 1,11,-1
 597 -256 l 1,12,-1
 427 -256 l 1,13,-1
 427 103 l 1,14,15
 249 119 249 119 156.5 215.5 c 128,-1,16
 64 312 64 312 64 512 c 2,17,-1
 64 1024 l 1,18,-1
 234 1024 l 1,19,-1
 234 512 l 2,20,21
 234 395 234 395 284.5 335.5 c 128,-1,22
 335 276 335 276 433 261 c 1,23,-1
 433 1280 l 1,0,-1
EndSplineSet
EndChar

StartChar: omega
Encoding: 969 969 221
Width: 1024
VWidth: 0
Flags: MW
LayerCount: 2
Fore
SplineSet
107 1024 m 1,0,-1
 277 1024 l 1,1,2
 271 1002 271 1002 261.5 960.5 c 128,-1,3
 252 919 252 919 236 785.5 c 128,-1,4
 220 652 220 652 220 512 c 0,5,6
 220 340 220 340 252.5 240.5 c 128,-1,7
 285 141 285 141 341 141 c 0,8,9
 381 141 381 141 404 231 c 128,-1,10
 427 321 427 321 427 475 c 2,11,-1
 427 768 l 1,12,-1
 597 768 l 1,13,-1
 597 475 l 2,14,15
 597 321 597 321 620 231 c 128,-1,16
 643 141 643 141 683 141 c 0,17,18
 739 141 739 141 771.5 240.5 c 128,-1,19
 804 340 804 340 804 512 c 0,20,21
 804 652 804 652 790 780 c 128,-1,22
 776 908 776 908 761.5 966 c 2,23,-1
 747 1024 l 1,24,-1
 917 1024 l 1,25,26
 924 1002 924 1002 933.5 960.5 c 128,-1,27
 943 919 943 919 959.5 785.5 c 128,-1,28
 976 652 976 652 976 512 c 0,29,30
 976 385 976 385 961 291 c 128,-1,31
 946 197 946 197 912.5 126.5 c 128,-1,32
 879 56 879 56 821.5 20 c 128,-1,33
 764 -16 764 -16 683 -16 c 0,34,35
 635 -16 635 -16 600 12 c 128,-1,36
 565 40 565 40 549 80 c 128,-1,37
 533 120 533 120 523.5 160 c 128,-1,38
 514 200 514 200 513 228 c 2,39,-1
 512 256 l 2,40,41
 512 250 512 250 511.5 240.5 c 128,-1,42
 511 231 511 231 508 202.5 c 128,-1,43
 505 174 505 174 499 148.5 c 128,-1,44
 493 123 493 123 480 91.5 c 128,-1,45
 467 60 467 60 449.5 37.5 c 128,-1,46
 432 15 432 15 404 -0.5 c 128,-1,47
 376 -16 376 -16 341 -16 c 0,48,49
 260 -16 260 -16 202.5 20 c 128,-1,50
 145 56 145 56 111.5 126.5 c 128,-1,51
 78 197 78 197 63 291 c 128,-1,52
 48 385 48 385 48 512 c 0,53,54
 48 652 48 652 63 780 c 128,-1,55
 78 908 78 908 92.5 966 c 2,56,-1
 107 1024 l 1,0,-1
EndSplineSet
EndChar

StartChar: uni03F1
Encoding: 1009 1009 242
Width: 1024
VWidth: 0
Flags: MW
LayerCount: 2
Fore
SplineSet
298 256 m 1,0,1
 298 118 298 118 349 40 c 128,-1,2
 400 -38 400 -38 514.5 -72.5 c 128,-1,3
 629 -107 629 -107 832 -107 c 1,4,-1
 832 -264 l 1,5,6
 630 -264 630 -264 498.5 -238 c 128,-1,7
 367 -212 367 -212 282.5 -150 c 128,-1,8
 198 -88 198 -88 163 9.5 c 128,-1,9
 128 107 128 107 128 256 c 2,10,-1
 128 648 l 2,11,12
 128 829 128 829 231 934.5 c 128,-1,13
 334 1040 334 1040 512 1040 c 0,14,15
 697 1040 697 1040 804.5 935 c 128,-1,16
 912 830 912 830 912 648 c 128,-1,17
 912 466 912 466 804.5 361 c 128,-1,18
 697 256 697 256 512 256 c 2,19,-1
 298 256 l 1,0,1
512 413 m 2,20,21
 618 413 618 413 680 476 c 128,-1,22
 742 539 742 539 742 648 c 128,-1,23
 742 757 742 757 680 820 c 128,-1,24
 618 883 618 883 512 883 c 0,25,26
 413 883 413 883 355.5 820 c 128,-1,27
 298 757 298 757 298 648 c 2,28,-1
 298 413 l 1,29,-1
 512 413 l 2,20,21
EndSplineSet
EndChar

StartChar: uni03FA
Encoding: 1018 1018 243
Width: 1024
VWidth: 0
Flags: MW
LayerCount: 2
Fore
SplineSet
64 1280 m 1,0,-1
 221 1280 l 1,1,-1
 512 830 l 1,2,-1
 803 1280 l 1,3,-1
 960 1280 l 1,4,-1
 960 0 l 1,5,-1
 803 0 l 1,6,-1
 803 1011 l 1,7,-1
 563 640 l 1,8,-1
 461 640 l 1,9,-1
 221 1011 l 1,10,-1
 221 0 l 1,11,-1
 64 0 l 1,12,-1
 64 1280 l 1,0,-1
EndSplineSet
EndChar

StartChar: uni03FB
Encoding: 1019 1019 244
Width: 1024
VWidth: 0
Flags: MW
LayerCount: 2
Fore
SplineSet
96 1024 m 1,0,-1
 253 1024 l 1,1,-1
 512 672 l 1,2,-1
 771 1024 l 1,3,-1
 928 1024 l 1,4,-1
 928 99 l 1,5,-1
 771 99 l 1,6,-1
 771 795 l 1,7,-1
 563 512 l 1,8,-1
 461 512 l 1,9,-1
 253 795 l 1,10,-1
 253 -256 l 1,11,-1
 96 -256 l 1,12,-1
 96 1024 l 1,0,-1
EndSplineSet
EndChar

StartChar: uni03FC
Encoding: 1020 1020 245
Width: 1024
VWidth: 0
Flags: MW
LayerCount: 2
Fore
SplineSet
512 1040 m 0,0,1
 697 1040 697 1040 804.5 935 c 128,-1,2
 912 830 912 830 912 648 c 128,-1,3
 912 466 912 466 804.5 361 c 128,-1,4
 697 256 697 256 512 256 c 2,5,-1
 298 256 l 1,6,-1
 298 79 l 1,7,-1
 576 79 l 1,8,-1
 576 -79 l 1,9,-1
 298 -79 l 1,10,-1
 298 -256 l 1,11,-1
 128 -256 l 1,12,-1
 128 -79 l 1,13,-1
 0 -79 l 1,14,-1
 0 79 l 1,15,-1
 128 79 l 1,16,-1
 128 648 l 2,17,18
 128 829 128 829 231 934.5 c 128,-1,19
 334 1040 334 1040 512 1040 c 0,0,1
512 883 m 0,20,21
 413 883 413 883 355.5 820 c 128,-1,22
 298 757 298 757 298 648 c 2,23,-1
 298 413 l 1,24,-1
 512 413 l 2,25,26
 618 413 618 413 680 476 c 128,-1,27
 742 539 742 539 742 648 c 128,-1,28
 742 757 742 757 680 820 c 128,-1,29
 618 883 618 883 512 883 c 0,20,21
EndSplineSet
EndChar

StartChar: uni0402
Encoding: 1026 1026 246
Width: 1024
VWidth: 0
Flags: MW
LayerCount: 2
Fore
SplineSet
32 1280 m 1,0,-1
 672 1280 l 1,1,-1
 672 1123 l 1,2,-1
 394 1123 l 1,3,-1
 394 760 l 1,4,5
 454 776 454 776 551 776 c 0,6,7
 747 776 747 776 861.5 668.5 c 128,-1,8
 976 561 976 561 976 380 c 0,9,10
 976 190 976 190 889.5 91 c 128,-1,11
 803 -8 803 -8 600 -8 c 1,12,-1
 600 149 l 1,13,14
 711 149 711 149 758.5 208 c 128,-1,15
 806 267 806 267 806 380 c 0,16,17
 806 487 806 487 737.5 549 c 128,-1,18
 669 611 669 611 551 611 c 2,19,-1
 394 611 l 1,20,-1
 394 0 l 1,21,-1
 224 0 l 1,22,-1
 224 1123 l 1,23,-1
 32 1123 l 1,24,-1
 32 1280 l 1,0,-1
EndSplineSet
EndChar

StartChar: uni0404
Encoding: 1028 1028 247
Width: 1024
VWidth: 0
Flags: MW
LayerCount: 2
Fore
SplineSet
665 1288 m 0,0,1
 729 1288 729 1288 786.5 1284 c 128,-1,2
 844 1280 844 1280 870 1276 c 2,3,-1
 896 1272 l 1,4,-1
 896 1123 l 1,5,-1
 665 1123 l 2,6,7
 518 1123 518 1123 422.5 1029.5 c 128,-1,8
 327 936 327 936 300 768 c 1,9,-1
 832 768 l 1,10,-1
 832 611 l 1,11,-1
 290 611 l 1,12,13
 296 367 296 367 391 262 c 128,-1,14
 486 157 486 157 665 157 c 2,15,-1
 896 157 l 1,16,-1
 896 8 l 1,17,18
 808 -8 808 -8 665 -8 c 0,19,20
 532 -8 532 -8 433.5 25.5 c 128,-1,21
 335 59 335 59 261 133 c 128,-1,22
 187 207 187 207 149.5 334 c 128,-1,23
 112 461 112 461 112 640 c 0,24,25
 112 940 112 940 260.5 1114 c 128,-1,26
 409 1288 409 1288 665 1288 c 0,0,1
EndSplineSet
EndChar

StartChar: uni0409
Encoding: 1033 1033 248
Width: 1024
VWidth: 0
Flags: MW
LayerCount: 2
Fore
SplineSet
86 1280 m 1,0,-1
 597 1280 l 1,1,-1
 597 768 l 1,2,3
 783 768 783 768 879.5 679.5 c 128,-1,4
 976 591 976 591 976 384 c 128,-1,5
 976 177 976 177 879.5 88.5 c 128,-1,6
 783 0 783 0 597 0 c 2,7,-1
 427 0 l 1,8,-1
 427 1123 l 1,9,-1
 256 1123 l 1,10,-1
 256 512 l 2,11,12
 256 314 256 314 231.5 202.5 c 128,-1,13
 207 91 207 91 152.5 41.5 c 128,-1,14
 98 -8 98 -8 0 -8 c 1,15,-1
 0 149 l 1,16,17
 49 149 49 149 67.5 228 c 128,-1,18
 86 307 86 307 86 512 c 2,19,-1
 86 1280 l 1,0,-1
597 611 m 1,20,-1
 597 157 l 1,21,22
 699 157 699 157 752.5 209.5 c 128,-1,23
 806 262 806 262 806 384 c 128,-1,24
 806 506 806 506 752.5 558.5 c 128,-1,25
 699 611 699 611 597 611 c 1,20,-1
EndSplineSet
EndChar

StartChar: uni040A
Encoding: 1034 1034 249
Width: 1024
VWidth: 0
Flags: MW
LayerCount: 2
Fore
SplineSet
64 1280 m 1,0,-1
 234 1280 l 1,1,-1
 234 768 l 1,2,-1
 427 768 l 1,3,-1
 427 1280 l 1,4,-1
 597 1280 l 1,5,-1
 597 768 l 1,6,7
 783 768 783 768 879.5 679.5 c 128,-1,8
 976 591 976 591 976 384 c 128,-1,9
 976 177 976 177 879.5 88.5 c 128,-1,10
 783 0 783 0 597 0 c 2,11,-1
 427 0 l 1,12,-1
 427 611 l 1,13,-1
 234 611 l 1,14,-1
 234 0 l 1,15,-1
 64 0 l 1,16,-1
 64 1280 l 1,0,-1
597 611 m 1,17,-1
 597 157 l 1,18,19
 699 157 699 157 752.5 209.5 c 128,-1,20
 806 262 806 262 806 384 c 128,-1,21
 806 506 806 506 752.5 558.5 c 128,-1,22
 699 611 699 611 597 611 c 1,17,-1
EndSplineSet
EndChar

StartChar: uni040B
Encoding: 1035 1035 250
Width: 1024
VWidth: 0
Flags: MW
LayerCount: 2
Fore
SplineSet
32 1280 m 1,0,-1
 672 1280 l 1,1,-1
 672 1123 l 1,2,-1
 394 1123 l 1,3,-1
 394 760 l 1,4,5
 470 776 470 776 592 776 c 0,6,7
 772 776 772 776 866 703 c 128,-1,8
 960 630 960 630 960 458 c 2,9,-1
 960 0 l 1,10,-1
 790 0 l 1,11,-1
 790 458 l 1,12,13
 784 541 784 541 735.5 576 c 128,-1,14
 687 611 687 611 592 611 c 2,15,-1
 394 611 l 1,16,-1
 394 0 l 1,17,-1
 224 0 l 1,18,-1
 224 1123 l 1,19,-1
 32 1123 l 1,20,-1
 32 1280 l 1,0,-1
EndSplineSet
EndChar

StartChar: uni040F
Encoding: 1039 1039 251
Width: 1024
VWidth: 0
Flags: MW
LayerCount: 2
Fore
SplineSet
128 0 m 1,0,-1
 128 1280 l 1,1,-1
 298 1280 l 1,2,-1
 298 157 l 1,3,-1
 726 157 l 1,4,-1
 726 1280 l 1,5,-1
 896 1280 l 1,6,-1
 896 0 l 1,7,-1
 597 0 l 1,8,-1
 597 -256 l 1,9,-1
 427 -256 l 1,10,-1
 427 0 l 1,11,-1
 128 0 l 1,0,-1
EndSplineSet
EndChar

StartChar: uni0411
Encoding: 1041 1041 252
Width: 1024
VWidth: 0
Flags: MW
LayerCount: 2
Fore
SplineSet
128 1280 m 1,0,-1
 864 1280 l 1,1,-1
 864 1123 l 1,2,-1
 298 1123 l 1,3,-1
 298 768 l 1,4,-1
 512 768 l 2,5,6
 712 768 712 768 828 665 c 128,-1,7
 944 562 944 562 944 384 c 128,-1,8
 944 206 944 206 828 103 c 128,-1,9
 712 0 712 0 512 0 c 2,10,-1
 128 0 l 1,11,-1
 128 1280 l 1,0,-1
298 611 m 1,12,-1
 298 157 l 1,13,-1
 512 157 l 2,14,15
 633 157 633 157 703.5 218 c 128,-1,16
 774 279 774 279 774 384 c 128,-1,17
 774 489 774 489 703.5 550 c 128,-1,18
 633 611 633 611 512 611 c 2,19,-1
 298 611 l 1,12,-1
EndSplineSet
EndChar

StartChar: uni0414
Encoding: 1044 1044 253
Width: 1024
VWidth: 0
Flags: MW
LayerCount: 2
Fore
SplineSet
288 1280 m 1,0,-1
 864 1280 l 1,1,-1
 864 157 l 1,2,-1
 992 157 l 1,3,-1
 992 -256 l 1,4,-1
 822 -256 l 1,5,-1
 822 0 l 1,6,-1
 202 0 l 1,7,-1
 202 -256 l 1,8,-1
 32 -256 l 1,9,-1
 32 157 l 1,10,-1
 128 157 l 1,11,-1
 288 1280 l 1,0,-1
437 1123 m 1,12,-1
 300 157 l 1,13,-1
 694 157 l 1,14,-1
 694 1123 l 1,15,-1
 437 1123 l 1,12,-1
EndSplineSet
EndChar

StartChar: uni0416
Encoding: 1046 1046 254
Width: 1024
VWidth: 0
Flags: MW
LayerCount: 2
Fore
SplineSet
0 1280 m 1,0,-1
 160 1280 l 1,1,-1
 433 672 l 1,2,-1
 433 1280 l 1,3,-1
 591 1280 l 1,4,-1
 591 672 l 1,5,-1
 864 1280 l 1,6,-1
 1024 1280 l 1,7,-1
 743 655 l 1,8,-1
 1024 0 l 1,9,-1
 865 0 l 1,10,-1
 591 640 l 1,11,-1
 591 0 l 1,12,-1
 433 0 l 1,13,-1
 433 640 l 1,14,-1
 156 0 l 1,15,-1
 0 0 l 1,16,-1
 281 655 l 1,17,-1
 0 1280 l 1,0,-1
EndSplineSet
EndChar

StartChar: uni0417
Encoding: 1047 1047 255
Width: 1024
VWidth: 0
Flags: MW
LayerCount: 2
Fore
SplineSet
160 1272 m 1,0,1
 265 1288 265 1288 435 1288 c 0,2,3
 653 1288 653 1288 766.5 1209 c 128,-1,4
 880 1130 880 1130 880 946 c 0,5,6
 880 893 880 893 862.5 849 c 128,-1,7
 845 805 845 805 820 780 c 128,-1,8
 795 755 795 755 770 737.5 c 128,-1,9
 745 720 745 720 727.5 714 c 2,10,-1
 710 708 l 1,11,12
 718 705 718 705 731.5 699 c 128,-1,13
 745 693 745 693 780 668 c 128,-1,14
 815 643 815 643 841.5 610 c 128,-1,15
 868 577 868 577 890 517 c 128,-1,16
 912 457 912 457 912 384 c 0,17,18
 912 173 912 173 790.5 82.5 c 128,-1,19
 669 -8 669 -8 435 -8 c 0,20,21
 351 -8 351 -8 274 -4 c 128,-1,22
 197 -0 197 -0 162.5 4 c 2,23,-1
 128 8 l 1,24,-1
 128 157 l 1,25,-1
 435 157 l 2,26,27
 585 157 585 157 663.5 209.5 c 128,-1,28
 742 262 742 262 742 384 c 128,-1,29
 742 506 742 506 655 558.5 c 128,-1,30
 568 611 568 611 402 611 c 2,31,-1
 224 611 l 1,32,-1
 224 768 l 1,33,-1
 390 768 l 2,34,35
 547 768 547 768 628.5 809 c 128,-1,36
 710 850 710 850 710 946 c 0,37,38
 710 1131 710 1131 435 1123 c 1,39,-1
 160 1123 l 1,40,-1
 160 1272 l 1,0,1
EndSplineSet
EndChar

StartChar: uni041B
Encoding: 1051 1051 256
Width: 1024
VWidth: 0
Flags: MW
LayerCount: 2
Fore
SplineSet
192 1280 m 1,0,-1
 896 1280 l 1,1,-1
 896 0 l 1,2,-1
 726 0 l 1,3,-1
 726 1123 l 1,4,-1
 362 1123 l 1,5,-1
 362 512 l 2,6,7
 362 219 362 219 297 105.5 c 128,-1,8
 232 -8 232 -8 64 -8 c 1,9,-1
 64 149 l 1,10,11
 136 149 136 149 164 228 c 128,-1,12
 192 307 192 307 192 512 c 2,13,-1
 192 1280 l 1,0,-1
EndSplineSet
EndChar

StartChar: uni0423
Encoding: 1059 1059 257
Width: 1024
VWidth: 0
Flags: MW
LayerCount: 2
Fore
SplineSet
32 1280 m 1,0,-1
 214 1280 l 1,1,-1
 512 512 l 1,2,-1
 810 1280 l 1,3,-1
 992 1280 l 1,4,-1
 579 215 l 2,5,6
 563 175 563 175 556.5 158 c 128,-1,7
 550 141 550 141 536 111 c 128,-1,8
 522 81 522 81 512 68.5 c 128,-1,9
 502 56 502 56 485.5 37.5 c 128,-1,10
 469 19 469 19 452 11.5 c 128,-1,11
 435 4 435 4 411.5 -2 c 128,-1,12
 388 -8 388 -8 360 -8 c 0,13,14
 323 -8 323 -8 289 -4 c 128,-1,15
 255 -0 255 -0 239.5 4 c 2,16,-1
 224 8 l 1,17,-1
 224 157 l 1,18,19
 259 157 259 157 274 157 c 128,-1,20
 289 157 289 157 311 159.5 c 128,-1,21
 333 162 333 162 340 163 c 128,-1,22
 347 164 347 164 361 172.5 c 128,-1,23
 375 181 375 181 378 186 c 128,-1,24
 381 191 381 191 391 208 c 128,-1,25
 401 225 401 225 405.5 237 c 128,-1,26
 410 249 410 249 421 277 c 1,27,-1
 32 1280 l 1,0,-1
EndSplineSet
EndChar

StartChar: uni0426
Encoding: 1062 1062 258
Width: 1024
VWidth: 0
Flags: MW
LayerCount: 2
Fore
SplineSet
128 0 m 1,0,-1
 128 1280 l 1,1,-1
 298 1280 l 1,2,-1
 298 157 l 1,3,-1
 726 157 l 1,4,-1
 726 1280 l 1,5,-1
 896 1280 l 1,6,-1
 896 157 l 1,7,-1
 1024 157 l 1,8,-1
 1024 -256 l 1,9,-1
 854 -256 l 1,10,-1
 854 0 l 1,11,-1
 128 0 l 1,0,-1
EndSplineSet
EndChar

StartChar: uni0427
Encoding: 1063 1063 259
Width: 1024
VWidth: 0
Flags: MW
LayerCount: 2
Fore
SplineSet
896 0 m 1,0,-1
 726 0 l 1,1,-1
 726 520 l 1,2,3
 644 504 644 504 512 504 c 0,4,5
 324 504 324 504 226 595.5 c 128,-1,6
 128 687 128 687 128 902 c 2,7,-1
 128 1280 l 1,8,-1
 298 1280 l 1,9,-1
 298 902 l 2,10,11
 298 776 298 776 352.5 722.5 c 128,-1,12
 407 669 407 669 512 669 c 2,13,-1
 726 669 l 1,14,-1
 726 1280 l 1,15,-1
 896 1280 l 1,16,-1
 896 0 l 1,0,-1
EndSplineSet
EndChar

StartChar: uni0428
Encoding: 1064 1064 260
Width: 1024
VWidth: 0
Flags: MW
LayerCount: 2
Fore
SplineSet
64 0 m 1,0,-1
 64 1280 l 1,1,-1
 221 1280 l 1,2,-1
 221 157 l 1,3,-1
 433 157 l 1,4,-1
 433 1280 l 1,5,-1
 591 1280 l 1,6,-1
 591 157 l 1,7,-1
 803 157 l 1,8,-1
 803 1280 l 1,9,-1
 960 1280 l 1,10,-1
 960 0 l 1,11,-1
 64 0 l 1,0,-1
EndSplineSet
EndChar

StartChar: uni0429
Encoding: 1065 1065 261
Width: 1024
VWidth: 0
Flags: MW
LayerCount: 2
Fore
SplineSet
64 0 m 1,0,-1
 64 1280 l 1,1,-1
 221 1280 l 1,2,-1
 221 157 l 1,3,-1
 433 157 l 1,4,-1
 433 1280 l 1,5,-1
 591 1280 l 1,6,-1
 591 157 l 1,7,-1
 803 157 l 1,8,-1
 803 1280 l 1,9,-1
 960 1280 l 1,10,-1
 960 157 l 1,11,-1
 1024 157 l 1,12,-1
 1024 -256 l 1,13,-1
 854 -256 l 1,14,-1
 854 0 l 1,15,-1
 64 0 l 1,0,-1
EndSplineSet
EndChar

StartChar: uni042A
Encoding: 1066 1066 262
Width: 1024
VWidth: 0
Flags: MW
LayerCount: 2
Fore
SplineSet
0 1280 m 1,0,-1
 362 1280 l 1,1,-1
 362 768 l 1,2,-1
 636 768 l 2,3,4
 794 768 794 768 885 679.5 c 128,-1,5
 976 591 976 591 976 438 c 0,6,7
 976 235 976 235 857 117.5 c 128,-1,8
 738 0 738 0 532 0 c 2,9,-1
 192 0 l 1,10,-1
 192 1123 l 1,11,-1
 0 1123 l 1,12,-1
 0 1280 l 1,0,-1
362 611 m 1,13,-1
 362 157 l 1,14,-1
 532 157 l 2,15,16
 659 157 659 157 732.5 232.5 c 128,-1,17
 806 308 806 308 806 438 c 0,18,19
 806 518 806 518 760.5 564.5 c 128,-1,20
 715 611 715 611 636 611 c 2,21,-1
 362 611 l 1,13,-1
EndSplineSet
EndChar

StartChar: uni042B
Encoding: 1067 1067 263
Width: 1024
VWidth: 0
Flags: MW
LayerCount: 2
Fore
SplineSet
64 1280 m 1,0,-1
 234 1280 l 1,1,-1
 234 768 l 1,2,-1
 340 768 l 2,3,4
 507 768 507 768 594.5 678.5 c 128,-1,5
 682 589 682 589 682 380 c 0,6,7
 682 172 682 172 595.5 86 c 128,-1,8
 509 0 509 0 340 0 c 2,9,-1
 64 0 l 1,10,-1
 64 1280 l 1,0,-1
790 1280 m 1,11,-1
 960 1280 l 1,12,-1
 960 0 l 1,13,-1
 790 0 l 1,14,-1
 790 1280 l 1,11,-1
234 611 m 1,15,-1
 234 157 l 1,16,-1
 340 157 l 2,17,18
 425 157 425 157 468.5 207 c 128,-1,19
 512 257 512 257 512 380 c 0,20,21
 512 504 512 504 468 557.5 c 128,-1,22
 424 611 424 611 340 611 c 2,23,-1
 234 611 l 1,15,-1
EndSplineSet
EndChar

StartChar: uni042C
Encoding: 1068 1068 264
Width: 1024
VWidth: 0
Flags: MW
LayerCount: 2
Fore
SplineSet
160 1280 m 1,0,-1
 330 1280 l 1,1,-1
 330 768 l 1,2,-1
 604 768 l 2,3,4
 762 768 762 768 853 679.5 c 128,-1,5
 944 591 944 591 944 438 c 0,6,7
 944 235 944 235 825 117.5 c 128,-1,8
 706 0 706 0 500 0 c 2,9,-1
 160 0 l 1,10,-1
 160 1280 l 1,0,-1
330 611 m 1,11,-1
 330 157 l 1,12,-1
 500 157 l 2,13,14
 627 157 627 157 700.5 232.5 c 128,-1,15
 774 308 774 308 774 438 c 0,16,17
 774 518 774 518 728.5 564.5 c 128,-1,18
 683 611 683 611 604 611 c 2,19,-1
 330 611 l 1,11,-1
EndSplineSet
EndChar

StartChar: uni042D
Encoding: 1069 1069 265
Width: 1024
VWidth: 0
Flags: MW
LayerCount: 2
Fore
SplineSet
359 1288 m 0,0,1
 492 1288 492 1288 590.5 1254.5 c 128,-1,2
 689 1221 689 1221 763 1147 c 128,-1,3
 837 1073 837 1073 874.5 946 c 128,-1,4
 912 819 912 819 912 640 c 0,5,6
 912 340 912 340 763.5 166 c 128,-1,7
 615 -8 615 -8 359 -8 c 0,8,9
 295 -8 295 -8 237.5 -4 c 128,-1,10
 180 -0 180 -0 154 4 c 2,11,-1
 128 8 l 1,12,-1
 128 157 l 1,13,-1
 359 157 l 2,14,15
 527 157 527 157 627 278 c 128,-1,16
 727 399 727 399 734 611 c 1,17,-1
 192 611 l 1,18,-1
 192 768 l 1,19,-1
 727 768 l 1,20,21
 705 957 705 957 611.5 1040 c 128,-1,22
 518 1123 518 1123 359 1123 c 2,23,-1
 128 1123 l 1,24,-1
 128 1272 l 1,25,26
 216 1288 216 1288 359 1288 c 0,0,1
EndSplineSet
EndChar

StartChar: uni042E
Encoding: 1070 1070 266
Width: 1024
VWidth: 0
Flags: MW
LayerCount: 2
Fore
SplineSet
698 1288 m 0,0,1
 813 1288 813 1288 877.5 1227.5 c 128,-1,2
 942 1167 942 1167 971 1028 c 128,-1,3
 1000 889 1000 889 1000 640 c 128,-1,4
 1000 391 1000 391 971 252 c 128,-1,5
 942 113 942 113 877.5 52.5 c 128,-1,6
 813 -8 813 -8 698 -8 c 0,7,8
 585 -8 585 -8 521.5 50 c 128,-1,9
 458 108 458 108 428.5 241 c 128,-1,10
 399 374 399 374 397 611 c 1,11,-1
 234 611 l 1,12,-1
 234 0 l 1,13,-1
 64 0 l 1,14,-1
 64 1280 l 1,15,-1
 234 1280 l 1,16,-1
 234 768 l 1,17,-1
 399 768 l 1,18,19
 406 965 406 965 438 1077.5 c 128,-1,20
 470 1190 470 1190 531.5 1239 c 128,-1,21
 593 1288 593 1288 698 1288 c 0,0,1
698 1131 m 0,22,23
 648 1131 648 1131 620 1085.5 c 128,-1,24
 592 1040 592 1040 579.5 935 c 128,-1,25
 567 830 567 830 567 640 c 128,-1,26
 567 450 567 450 579.5 345 c 128,-1,27
 592 240 592 240 620 194.5 c 128,-1,28
 648 149 648 149 698 149 c 0,29,30
 749 149 749 149 777 194.5 c 128,-1,31
 805 240 805 240 817.5 345 c 128,-1,32
 830 450 830 450 830 640 c 128,-1,33
 830 830 830 830 817.5 935 c 128,-1,34
 805 1040 805 1040 777 1085.5 c 128,-1,35
 749 1131 749 1131 698 1131 c 0,22,23
EndSplineSet
EndChar

StartChar: uni0418
Encoding: 1048 1048 281
Width: 1024
VWidth: 0
Flags: MW
LayerCount: 2
Fore
SplineSet
928 1280 m 1,0,-1
 928 0 l 1,1,-1
 758 0 l 1,2,-1
 758 768 l 1,3,-1
 762 1024 l 1,4,-1
 651 768 l 1,5,-1
 301 0 l 1,6,-1
 96 0 l 1,7,-1
 96 1280 l 1,8,-1
 266 1280 l 1,9,-1
 266 512 l 1,10,-1
 262 256 l 1,11,-1
 373 512 l 1,12,-1
 724 1280 l 1,13,-1
 928 1280 l 1,0,-1
EndSplineSet
EndChar

StartChar: uni042F
Encoding: 1071 1071 292
Width: 1024
VWidth: 0
Flags: MW
LayerCount: 2
Fore
SplineSet
896 1280 m 1,0,-1
 896 0 l 1,1,-1
 726 0 l 1,2,-1
 726 611 l 1,3,-1
 512 611 l 1,4,-1
 249 0 l 1,5,-1
 64 0 l 1,6,-1
 338 636 l 1,7,8
 112 701 112 701 112 946 c 0,9,10
 112 1126 112 1126 198.5 1203 c 128,-1,11
 285 1280 285 1280 452 1280 c 2,12,-1
 896 1280 l 1,0,-1
726 1123 m 1,13,-1
 452 1123 l 2,14,15
 369 1123 369 1123 325.5 1082 c 128,-1,16
 282 1041 282 1041 282 946 c 0,17,18
 282 850 282 850 352 809 c 128,-1,19
 422 768 422 768 556 768 c 2,20,-1
 726 768 l 1,21,-1
 726 1123 l 1,13,-1
EndSplineSet
EndChar

StartChar: uni0431
Encoding: 1073 1073 293
Width: 1024
VWidth: 0
Flags: MW
LayerCount: 2
Fore
SplineSet
298 768 m 1,0,-1
 520 768 l 2,1,2
 717 768 717 768 814.5 679.5 c 128,-1,3
 912 591 912 591 912 431 c 0,4,5
 912 224 912 224 804.5 104 c 128,-1,6
 697 -16 697 -16 512 -16 c 0,7,8
 334 -16 334 -16 231 89.5 c 128,-1,9
 128 195 128 195 128 376 c 2,10,-1
 128 768 l 2,11,12
 128 917 128 917 163 1014.5 c 128,-1,13
 198 1112 198 1112 282.5 1174 c 128,-1,14
 367 1236 367 1236 498.5 1262 c 128,-1,15
 630 1288 630 1288 832 1288 c 1,16,-1
 832 1131 l 1,17,18
 629 1131 629 1131 514.5 1096.5 c 128,-1,19
 400 1062 400 1062 349 984 c 128,-1,20
 298 906 298 906 298 768 c 1,0,-1
520 611 m 2,21,-1
 298 611 l 1,22,-1
 298 376 l 2,23,24
 298 267 298 267 355.5 204 c 128,-1,25
 413 141 413 141 512 141 c 0,26,27
 618 141 618 141 680 219 c 128,-1,28
 742 297 742 297 742 431 c 0,29,30
 742 514 742 514 682.5 562.5 c 128,-1,31
 623 611 623 611 520 611 c 2,21,-1
EndSplineSet
EndChar

StartChar: uni0432
Encoding: 1074 1074 294
Width: 1024
VWidth: 0
Flags: MW
LayerCount: 2
Fore
SplineSet
128 1024 m 1,0,-1
 384 1024 l 2,1,2
 627 1024 627 1024 753.5 956 c 128,-1,3
 880 888 880 888 880 729 c 0,4,5
 880 684 880 684 859 647.5 c 128,-1,6
 838 611 838 611 808.5 590 c 128,-1,7
 779 569 779 569 749.5 554.5 c 128,-1,8
 720 540 720 540 699 535 c 2,9,-1
 678 530 l 1,10,11
 689 528 689 528 707 524 c 128,-1,12
 725 520 725 520 770.5 501.5 c 128,-1,13
 816 483 816 483 851.5 459 c 128,-1,14
 887 435 887 435 915.5 391.5 c 128,-1,15
 944 348 944 348 944 295 c 0,16,17
 944 214 944 214 906 156 c 128,-1,18
 868 98 868 98 793 64.5 c 128,-1,19
 718 31 718 31 618 15.5 c 128,-1,20
 518 0 518 0 384 0 c 2,21,-1
 128 0 l 1,22,-1
 128 1024 l 1,0,-1
298 867 m 1,23,-1
 298 590 l 1,24,-1
 384 590 l 2,25,26
 543 590 543 590 626.5 622 c 128,-1,27
 710 654 710 654 710 729 c 128,-1,28
 710 804 710 804 627 835.5 c 128,-1,29
 544 867 544 867 384 867 c 2,30,-1
 298 867 l 1,23,-1
298 433 m 1,31,-1
 298 157 l 1,32,-1
 384 157 l 2,33,34
 575 157 575 157 674.5 188.5 c 128,-1,35
 774 220 774 220 774 295 c 128,-1,36
 774 370 774 370 674.5 401.5 c 128,-1,37
 575 433 575 433 384 433 c 2,38,-1
 298 433 l 1,31,-1
EndSplineSet
EndChar

StartChar: uni0433
Encoding: 1075 1075 295
Width: 1024
VWidth: 0
Flags: MW
LayerCount: 2
Fore
SplineSet
160 0 m 1,0,-1
 160 1024 l 1,1,-1
 896 1024 l 1,2,-1
 896 867 l 1,3,-1
 330 867 l 1,4,-1
 330 0 l 1,5,-1
 160 0 l 1,0,-1
EndSplineSet
EndChar

StartChar: uni0434
Encoding: 1076 1076 296
Width: 1024
VWidth: 0
Flags: MW
LayerCount: 2
Fore
SplineSet
331 1024 m 1,0,-1
 832 1024 l 1,1,-1
 832 157 l 1,2,-1
 960 157 l 1,3,-1
 960 -256 l 1,4,-1
 790 -256 l 1,5,-1
 790 0 l 1,6,-1
 234 0 l 1,7,-1
 234 -256 l 1,8,-1
 64 -256 l 1,9,-1
 64 157 l 1,10,-1
 149 157 l 1,11,-1
 331 1024 l 1,0,-1
472 867 m 1,12,-1
 323 157 l 1,13,-1
 662 157 l 1,14,-1
 662 867 l 1,15,-1
 472 867 l 1,12,-1
EndSplineSet
EndChar

StartChar: uni0436
Encoding: 1078 1078 297
Width: 1024
VWidth: 0
Flags: MW
LayerCount: 2
Fore
SplineSet
0 1024 m 1,0,-1
 156 1024 l 1,1,-1
 439 528 l 1,2,-1
 439 1024 l 1,3,-1
 585 1024 l 1,4,-1
 585 528 l 1,5,-1
 868 1024 l 1,6,-1
 1024 1024 l 1,7,-1
 736 519 l 1,8,-1
 1024 0 l 1,9,-1
 869 0 l 1,10,-1
 585 512 l 1,11,-1
 585 0 l 1,12,-1
 439 0 l 1,13,-1
 439 512 l 1,14,-1
 155 0 l 1,15,-1
 0 0 l 1,16,-1
 288 519 l 1,17,-1
 0 1024 l 1,0,-1
EndSplineSet
EndChar

StartChar: uni0437
Encoding: 1079 1079 298
Width: 1024
VWidth: 0
Flags: MW
LayerCount: 2
Fore
SplineSet
160 1016 m 1,0,1
 265 1032 265 1032 435 1032 c 0,2,3
 653 1032 653 1032 766.5 962 c 128,-1,4
 880 892 880 892 880 729 c 0,5,6
 880 680 880 680 864 640 c 128,-1,7
 848 600 848 600 825.5 577 c 128,-1,8
 803 554 803 554 780.5 538.5 c 128,-1,9
 758 523 758 523 742 517.5 c 2,10,-1
 726 512 l 2,11,12
 730 511 730 511 736.5 509 c 128,-1,13
 743 507 743 507 762.5 499 c 128,-1,14
 782 491 782 491 799.5 481 c 128,-1,15
 817 471 817 471 838.5 453 c 128,-1,16
 860 435 860 435 875.5 414 c 128,-1,17
 891 393 891 393 901.5 362 c 128,-1,18
 912 331 912 331 912 295 c 0,19,20
 912 132 912 132 790.5 62 c 128,-1,21
 669 -8 669 -8 435 -8 c 0,22,23
 351 -8 351 -8 274 -4 c 128,-1,24
 197 -0 197 -0 162.5 4 c 2,25,-1
 128 8 l 1,26,-1
 128 157 l 1,27,-1
 435 157 l 2,28,29
 586 157 586 157 664 188.5 c 128,-1,30
 742 220 742 220 742 295 c 128,-1,31
 742 370 742 370 683.5 401.5 c 128,-1,32
 625 433 625 433 512 433 c 2,33,-1
 256 433 l 1,34,-1
 256 591 l 1,35,-1
 512 591 l 2,36,37
 609 591 609 591 659.5 622.5 c 128,-1,38
 710 654 710 654 710 729 c 128,-1,39
 710 804 710 804 640 835.5 c 128,-1,40
 570 867 570 867 435 867 c 2,41,-1
 160 867 l 1,42,-1
 160 1016 l 1,0,1
EndSplineSet
EndChar

StartChar: uni0438
Encoding: 1080 1080 299
Width: 1024
VWidth: 0
Flags: MW
LayerCount: 2
Fore
SplineSet
298 290 m 1,0,-1
 726 1024 l 1,1,-1
 895 1024 l 1,2,-1
 896 0 l 1,3,-1
 726 0 l 1,4,-1
 726 734 l 1,5,-1
 298 0 l 1,6,-1
 128 0 l 1,7,-1
 128 1024 l 1,8,-1
 298 1024 l 1,9,-1
 298 290 l 1,0,-1
EndSplineSet
EndChar

StartChar: uni043B
Encoding: 1083 1083 301
Width: 1024
VWidth: 0
Flags: MW
LayerCount: 2
Fore
SplineSet
256 1024 m 1,0,-1
 896 1024 l 1,1,-1
 896 0 l 1,2,-1
 726 0 l 1,3,-1
 726 867 l 1,4,-1
 426 867 l 1,5,-1
 426 512 l 2,6,7
 426 219 426 219 347 105.5 c 128,-1,8
 268 -8 268 -8 64 -8 c 1,9,-1
 64 149 l 1,10,11
 172 149 172 149 214 228 c 128,-1,12
 256 307 256 307 256 512 c 2,13,-1
 256 1024 l 1,0,-1
EndSplineSet
EndChar

StartChar: uni043C
Encoding: 1084 1084 302
Width: 1024
VWidth: 0
Flags: MW
LayerCount: 2
Fore
SplineSet
64 1024 m 1,0,-1
 221 1024 l 1,1,-1
 512 512 l 1,2,-1
 803 1024 l 1,3,-1
 960 1024 l 1,4,-1
 960 0 l 1,5,-1
 803 0 l 1,6,-1
 803 749 l 1,7,-1
 561 327 l 1,8,-1
 461 327 l 1,9,-1
 221 749 l 1,10,-1
 221 0 l 1,11,-1
 64 0 l 1,12,-1
 64 1024 l 1,0,-1
EndSplineSet
EndChar

StartChar: uni043D
Encoding: 1085 1085 303
Width: 1024
VWidth: 0
Flags: MW
LayerCount: 2
Fore
SplineSet
298 590 m 1,0,-1
 726 590 l 1,1,-1
 726 1024 l 1,2,-1
 896 1024 l 1,3,-1
 896 0 l 1,4,-1
 726 0 l 1,5,-1
 726 433 l 1,6,-1
 298 433 l 1,7,-1
 298 0 l 1,8,-1
 128 0 l 1,9,-1
 128 1024 l 1,10,-1
 298 1024 l 1,11,-1
 298 590 l 1,0,-1
EndSplineSet
EndChar

StartChar: uni043F
Encoding: 1087 1087 304
Width: 1024
VWidth: 0
Flags: MW
LayerCount: 2
Fore
SplineSet
128 0 m 1,0,-1
 128 1024 l 1,1,-1
 896 1024 l 1,2,-1
 896 0 l 1,3,-1
 726 0 l 1,4,-1
 726 867 l 1,5,-1
 298 867 l 1,6,-1
 298 0 l 1,7,-1
 128 0 l 1,0,-1
EndSplineSet
EndChar

StartChar: uni0442
Encoding: 1090 1090 305
Width: 1024
VWidth: 0
Flags: MW
LayerCount: 2
Fore
SplineSet
96 1024 m 1,0,-1
 928 1024 l 1,1,-1
 928 867 l 1,2,-1
 597 867 l 1,3,-1
 597 0 l 1,4,-1
 427 0 l 1,5,-1
 427 867 l 1,6,-1
 96 867 l 1,7,-1
 96 1024 l 1,0,-1
EndSplineSet
EndChar

StartChar: uni0443
Encoding: 1091 1091 306
Width: 1024
VWidth: 0
Flags: MW
LayerCount: 2
Fore
SplineSet
128 -248 m 1,0,-1
 128 -99 l 1,1,2
 166 -99 166 -99 180.5 -99 c 128,-1,3
 195 -99 195 -99 216 -94.5 c 128,-1,4
 237 -90 237 -90 242.5 -86.5 c 128,-1,5
 248 -83 248 -83 260.5 -67.5 c 128,-1,6
 273 -52 273 -52 279 -39.5 c 128,-1,7
 285 -27 285 -27 300 5 c 2,8,-1
 418 256 l 1,9,-1
 64 1024 l 1,10,-1
 251 1024 l 1,11,-1
 512 459 l 1,12,-1
 773 1024 l 1,13,-1
 960 1024 l 1,14,-1
 455 -71 l 2,15,16
 434 -117 434 -117 423.5 -138 c 128,-1,17
 413 -159 413 -159 393.5 -189 c 128,-1,18
 374 -219 374 -219 356.5 -231.5 c 128,-1,19
 339 -244 339 -244 312.5 -254 c 128,-1,20
 286 -264 286 -264 253 -264 c 0,21,22
 219 -264 219 -264 187.5 -260 c 128,-1,23
 156 -256 156 -256 142 -252 c 2,24,-1
 128 -248 l 1,0,-1
EndSplineSet
EndChar

StartChar: uni0446
Encoding: 1094 1094 307
Width: 1024
VWidth: 0
Flags: MW
LayerCount: 2
Fore
SplineSet
128 1024 m 1,0,-1
 298 1024 l 1,1,-1
 298 157 l 1,2,-1
 726 157 l 1,3,-1
 726 1024 l 1,4,-1
 896 1024 l 1,5,-1
 896 157 l 1,6,-1
 1024 157 l 1,7,-1
 1024 -256 l 1,8,-1
 854 -256 l 1,9,-1
 854 0 l 1,10,-1
 128 0 l 1,11,-1
 128 1024 l 1,0,-1
EndSplineSet
EndChar

StartChar: uni0447
Encoding: 1095 1095 308
Width: 1024
VWidth: 0
Flags: MW
LayerCount: 2
Fore
SplineSet
896 0 m 1,0,-1
 726 0 l 1,1,-1
 726 441 l 1,2,3
 644 425 644 425 512 425 c 0,4,5
 324 425 324 425 226 501.5 c 128,-1,6
 128 578 128 578 128 756 c 2,7,-1
 128 1024 l 1,8,-1
 298 1024 l 1,9,-1
 298 756 l 2,10,11
 298 667 298 667 352.5 628.5 c 128,-1,12
 407 590 407 590 512 590 c 2,13,-1
 726 590 l 1,14,-1
 726 1024 l 1,15,-1
 896 1024 l 1,16,-1
 896 0 l 1,0,-1
EndSplineSet
EndChar

StartChar: uni0448
Encoding: 1096 1096 309
Width: 1024
VWidth: 0
Flags: MW
LayerCount: 2
Fore
SplineSet
64 0 m 1,0,-1
 64 1024 l 1,1,-1
 221 1024 l 1,2,-1
 221 157 l 1,3,-1
 433 157 l 1,4,-1
 433 1024 l 1,5,-1
 591 1024 l 1,6,-1
 591 157 l 1,7,-1
 803 157 l 1,8,-1
 803 1024 l 1,9,-1
 960 1024 l 1,10,-1
 960 0 l 1,11,-1
 64 0 l 1,0,-1
EndSplineSet
EndChar

StartChar: uni0449
Encoding: 1097 1097 310
Width: 1024
VWidth: 0
Flags: MW
LayerCount: 2
Fore
SplineSet
64 0 m 1,0,-1
 64 1024 l 1,1,-1
 221 1024 l 1,2,-1
 221 157 l 1,3,-1
 433 157 l 1,4,-1
 433 1024 l 1,5,-1
 591 1024 l 1,6,-1
 591 157 l 1,7,-1
 803 157 l 1,8,-1
 803 1024 l 1,9,-1
 960 1024 l 1,10,-1
 960 157 l 1,11,-1
 1024 157 l 1,12,-1
 1024 -256 l 1,13,-1
 854 -256 l 1,14,-1
 854 0 l 1,15,-1
 64 0 l 1,0,-1
EndSplineSet
EndChar

StartChar: uni044A
Encoding: 1098 1098 311
Width: 1024
VWidth: 0
Flags: MW
LayerCount: 2
Fore
SplineSet
32 1024 m 1,0,-1
 394 1024 l 1,1,-1
 394 591 l 1,2,-1
 639 591 l 2,3,4
 788 591 788 591 866 522.5 c 128,-1,5
 944 454 944 454 944 295 c 128,-1,6
 944 136 944 136 840.5 68 c 128,-1,7
 737 0 737 0 539 0 c 2,8,-1
 224 0 l 1,9,-1
 224 867 l 1,10,-1
 32 867 l 1,11,-1
 32 1024 l 1,0,-1
394 433 m 1,12,-1
 394 157 l 1,13,-1
 539 157 l 2,14,15
 654 157 654 157 714 188.5 c 128,-1,16
 774 220 774 220 774 295 c 128,-1,17
 774 370 774 370 739.5 401.5 c 128,-1,18
 705 433 705 433 639 433 c 2,19,-1
 394 433 l 1,12,-1
EndSplineSet
EndChar

StartChar: uni044B
Encoding: 1099 1099 312
Width: 1024
VWidth: 0
Flags: MW
LayerCount: 2
Fore
SplineSet
64 1024 m 1,0,-1
 234 1024 l 1,1,-1
 234 591 l 1,2,-1
 340 591 l 2,3,4
 507 591 507 591 594.5 522.5 c 128,-1,5
 682 454 682 454 682 295 c 128,-1,6
 682 136 682 136 594.5 68 c 128,-1,7
 507 0 507 0 340 0 c 2,8,-1
 64 0 l 1,9,-1
 64 1024 l 1,0,-1
790 1024 m 1,10,-1
 960 1024 l 1,11,-1
 960 0 l 1,12,-1
 790 0 l 1,13,-1
 790 1024 l 1,10,-1
234 433 m 1,14,-1
 234 157 l 1,15,-1
 340 157 l 2,16,17
 424 157 424 157 468 188.5 c 128,-1,18
 512 220 512 220 512 295 c 128,-1,19
 512 370 512 370 468 401.5 c 128,-1,20
 424 433 424 433 340 433 c 2,21,-1
 234 433 l 1,14,-1
EndSplineSet
EndChar

StartChar: uni044C
Encoding: 1100 1100 313
Width: 1024
VWidth: 0
Flags: MW
LayerCount: 2
Fore
SplineSet
160 1024 m 1,0,-1
 330 1024 l 1,1,-1
 330 591 l 1,2,-1
 604 591 l 2,3,4
 770 591 770 591 857 522.5 c 128,-1,5
 944 454 944 454 944 295 c 128,-1,6
 944 136 944 136 830.5 68 c 128,-1,7
 717 0 717 0 500 0 c 2,8,-1
 160 0 l 1,9,-1
 160 1024 l 1,0,-1
330 433 m 1,10,-1
 330 157 l 1,11,-1
 500 157 l 2,12,13
 634 157 634 157 704 188.5 c 128,-1,14
 774 220 774 220 774 295 c 128,-1,15
 774 370 774 370 730.5 401.5 c 128,-1,16
 687 433 687 433 604 433 c 2,17,-1
 330 433 l 1,10,-1
EndSplineSet
EndChar

StartChar: uni044D
Encoding: 1101 1101 314
Width: 1024
VWidth: 0
Flags: MW
LayerCount: 2
Fore
SplineSet
382 1032 m 0,0,1
 480 1032 480 1032 559 1015.5 c 128,-1,2
 638 999 638 999 705 961 c 128,-1,3
 772 923 772 923 817 863.5 c 128,-1,4
 862 804 862 804 887 715.5 c 128,-1,5
 912 627 912 627 912 512 c 0,6,7
 912 273 912 273 766.5 132.5 c 128,-1,8
 621 -8 621 -8 382 -8 c 0,9,10
 321 -8 321 -8 265.5 -4 c 128,-1,11
 210 -0 210 -0 185 4 c 2,12,-1
 160 8 l 1,13,-1
 160 157 l 1,14,-1
 382 157 l 2,15,16
 527 157 527 157 620 230 c 128,-1,17
 713 303 713 303 736 433 c 1,18,-1
 224 433 l 1,19,-1
 224 590 l 1,20,-1
 737 590 l 1,21,22
 719 738 719 738 629 802.5 c 128,-1,23
 539 867 539 867 382 867 c 2,24,-1
 160 867 l 1,25,-1
 160 1016 l 1,26,27
 245 1032 245 1032 382 1032 c 0,0,1
EndSplineSet
EndChar

StartChar: uni044E
Encoding: 1102 1102 315
Width: 1024
VWidth: 0
Flags: MW
LayerCount: 2
Fore
SplineSet
698 1032 m 0,0,1
 846 1032 846 1032 923 912 c 128,-1,2
 1000 792 1000 792 1000 512 c 128,-1,3
 1000 232 1000 232 923 112 c 128,-1,4
 846 -8 846 -8 698 -8 c 0,5,6
 561 -8 561 -8 485.5 94 c 128,-1,7
 410 196 410 196 399 433 c 1,8,-1
 234 433 l 1,9,-1
 234 0 l 1,10,-1
 64 0 l 1,11,-1
 64 1024 l 1,12,-1
 234 1024 l 1,13,-1
 234 591 l 1,14,-1
 399 591 l 1,15,16
 410 828 410 828 485.5 930 c 128,-1,17
 561 1032 561 1032 698 1032 c 0,0,1
698 864 m 128,-1,19
 624 864 624 864 595.5 787 c 128,-1,20
 567 710 567 710 567 512 c 0,21,22
 567 312 567 312 596 230.5 c 128,-1,23
 625 149 625 149 698 149 c 128,-1,24
 771 149 771 149 800.5 231 c 128,-1,25
 830 313 830 313 830 512 c 0,26,27
 830 709 830 709 801 786.5 c 128,-1,18
 772 864 772 864 698 864 c 128,-1,19
EndSplineSet
EndChar

StartChar: uni044F
Encoding: 1103 1103 316
Width: 1024
VWidth: 0
Flags: MW
LayerCount: 2
Fore
SplineSet
452 1024 m 2,0,-1
 896 1024 l 1,1,-1
 896 0 l 1,2,-1
 726 0 l 1,3,-1
 726 433 l 1,4,5
 726 433 726 433 512 434 c 1,6,-1
 248 0 l 1,7,-1
 64 0 l 1,8,-1
 341 455 l 1,9,10
 228 483 228 483 170 549 c 128,-1,11
 112 615 112 615 112 729 c 0,12,13
 112 888 112 888 198.5 956 c 128,-1,14
 285 1024 285 1024 452 1024 c 2,0,-1
452 867 m 2,15,16
 369 867 369 867 325.5 835.5 c 128,-1,17
 282 804 282 804 282 729 c 0,18,19
 282 653 282 653 351.5 621.5 c 128,-1,20
 421 590 421 590 556 590 c 2,21,-1
 726 590 l 1,22,-1
 726 867 l 1,23,-1
 452 867 l 2,15,16
EndSplineSet
EndChar

StartChar: uni0452
Encoding: 1106 1106 324
Width: 1024
VWidth: 0
Flags: MW
LayerCount: 2
Fore
SplineSet
128 1280 m 1,0,-1
 298 1280 l 1,1,-1
 298 1103 l 1,2,-1
 576 1103 l 1,3,-1
 576 945 l 1,4,-1
 298 945 l 1,5,-1
 298 760 l 1,6,7
 380 776 380 776 512 776 c 0,8,9
 700 776 700 776 798 684.5 c 128,-1,10
 896 593 896 593 896 378 c 2,11,-1
 896 172 l 2,12,13
 896 -63 896 -63 819 -163.5 c 128,-1,14
 742 -264 742 -264 594 -264 c 0,15,16
 571 -264 571 -264 550.5 -260 c 128,-1,17
 530 -256 530 -256 521 -252 c 2,18,-1
 512 -248 l 1,19,-1
 512 -99 l 1,20,-1
 594 -99 l 2,21,22
 659 -99 659 -99 692.5 -36.5 c 128,-1,23
 726 26 726 26 726 172 c 2,24,-1
 726 378 l 2,25,26
 726 504 726 504 671.5 557.5 c 128,-1,27
 617 611 617 611 512 611 c 2,28,-1
 298 611 l 1,29,-1
 298 0 l 1,30,-1
 128 0 l 1,31,-1
 128 945 l 1,32,-1
 0 945 l 1,33,-1
 0 1103 l 1,34,-1
 128 1103 l 1,35,-1
 128 1280 l 1,0,-1
EndSplineSet
EndChar

StartChar: uni0454
Encoding: 1108 1108 325
Width: 1024
VWidth: 0
Flags: MW
LayerCount: 2
Fore
SplineSet
642 1032 m 0,0,1
 703 1032 703 1032 758.5 1028 c 128,-1,2
 814 1024 814 1024 839 1020 c 2,3,-1
 864 1016 l 1,4,-1
 864 867 l 1,5,-1
 642 867 l 2,6,7
 497 867 497 867 403.5 793.5 c 128,-1,8
 310 720 310 720 288 590 c 1,9,-1
 800 590 l 1,10,-1
 800 433 l 1,11,-1
 287 433 l 1,12,13
 306 285 306 285 396 221 c 128,-1,14
 486 157 486 157 642 157 c 2,15,-1
 864 157 l 1,16,-1
 864 8 l 1,17,18
 779 -8 779 -8 642 -8 c 0,19,20
 544 -8 544 -8 465 8.5 c 128,-1,21
 386 25 386 25 319 63 c 128,-1,22
 252 101 252 101 207 160.5 c 128,-1,23
 162 220 162 220 137 308.5 c 128,-1,24
 112 397 112 397 112 512 c 0,25,26
 112 751 112 751 257.5 891.5 c 128,-1,27
 403 1032 403 1032 642 1032 c 0,0,1
EndSplineSet
EndChar

StartChar: uni0459
Encoding: 1113 1113 326
Width: 1024
VWidth: 0
Flags: MW
LayerCount: 2
Fore
SplineSet
128 1024 m 1,0,-1
 597 1024 l 1,1,-1
 597 590 l 1,2,3
 782 590 782 590 879 522 c 128,-1,4
 976 454 976 454 976 295 c 128,-1,5
 976 136 976 136 879 68 c 128,-1,6
 782 0 782 0 597 0 c 2,7,-1
 427 0 l 1,8,-1
 427 867 l 1,9,-1
 298 867 l 1,10,-1
 298 512 l 2,11,12
 298 219 298 219 233 105.5 c 128,-1,13
 168 -8 168 -8 0 -8 c 1,14,-1
 0 149 l 1,15,16
 72 149 72 149 100 228 c 128,-1,17
 128 307 128 307 128 512 c 2,18,-1
 128 1024 l 1,0,-1
806 295 m 128,-1,20
 806 370 806 370 752.5 401.5 c 128,-1,21
 699 433 699 433 597 433 c 1,22,-1
 597 157 l 1,23,24
 699 157 699 157 752.5 188.5 c 128,-1,19
 806 220 806 220 806 295 c 128,-1,20
EndSplineSet
EndChar

StartChar: uni045A
Encoding: 1114 1114 327
Width: 1024
VWidth: 0
Flags: MW
LayerCount: 2
Fore
SplineSet
64 1024 m 1,0,-1
 234 1024 l 1,1,-1
 234 590 l 1,2,-1
 427 590 l 1,3,-1
 427 1024 l 1,4,-1
 597 1024 l 1,5,-1
 597 590 l 1,6,7
 782 590 782 590 879 522 c 128,-1,8
 976 454 976 454 976 295 c 128,-1,9
 976 136 976 136 879 68 c 128,-1,10
 782 0 782 0 597 0 c 2,11,-1
 427 0 l 1,12,-1
 427 433 l 1,13,-1
 234 433 l 1,14,-1
 234 0 l 1,15,-1
 64 0 l 1,16,-1
 64 1024 l 1,0,-1
806 295 m 128,-1,18
 806 370 806 370 752.5 401.5 c 128,-1,19
 699 433 699 433 597 433 c 1,20,-1
 597 157 l 1,21,22
 699 157 699 157 752.5 188.5 c 128,-1,17
 806 220 806 220 806 295 c 128,-1,18
EndSplineSet
EndChar

StartChar: uni0460
Encoding: 1120 1120 328
Width: 1024
VWidth: 0
Flags: MW
LayerCount: 2
Fore
SplineSet
384 1288 m 1,0,-1
 384 1131 l 1,1,2
 292 1131 292 1131 256 1022 c 128,-1,3
 220 913 220 913 220 640 c 0,4,5
 220 366 220 366 246.5 253.5 c 128,-1,6
 273 141 273 141 341 141 c 0,7,8
 388 141 388 141 407.5 226 c 128,-1,9
 427 311 427 311 427 475 c 2,10,-1
 427 640 l 1,11,-1
 597 640 l 1,12,-1
 597 475 l 2,13,14
 597 311 597 311 616.5 226 c 128,-1,15
 636 141 636 141 683 141 c 0,16,17
 751 141 751 141 777.5 253.5 c 128,-1,18
 804 366 804 366 804 640 c 0,19,20
 804 913 804 913 768 1022 c 128,-1,21
 732 1131 732 1131 640 1131 c 1,22,-1
 640 1288 l 1,23,24
 768 1288 768 1288 840 1225 c 128,-1,25
 912 1162 912 1162 944 1023 c 128,-1,26
 976 884 976 884 976 640 c 0,27,28
 976 277 976 277 911.5 130.5 c 128,-1,29
 847 -16 847 -16 683 -16 c 0,30,31
 635 -16 635 -16 600 12 c 128,-1,32
 565 40 565 40 549 80 c 128,-1,33
 533 120 533 120 523.5 160 c 128,-1,34
 514 200 514 200 513 228 c 2,35,-1
 512 256 l 2,36,37
 512 250 512 250 511.5 240.5 c 128,-1,38
 511 231 511 231 508 202.5 c 128,-1,39
 505 174 505 174 499 148.5 c 128,-1,40
 493 123 493 123 480 91.5 c 128,-1,41
 467 60 467 60 449.5 37.5 c 128,-1,42
 432 15 432 15 404 -0.5 c 128,-1,43
 376 -16 376 -16 341 -16 c 0,44,45
 177 -16 177 -16 112.5 130.5 c 128,-1,46
 48 277 48 277 48 640 c 0,47,48
 48 884 48 884 80 1023 c 128,-1,49
 112 1162 112 1162 184 1225 c 128,-1,50
 256 1288 256 1288 384 1288 c 1,0,-1
EndSplineSet
EndChar

StartChar: uni0461
Encoding: 1121 1121 329
Width: 1024
VWidth: 0
Flags: MW
LayerCount: 2
Fore
SplineSet
32 1024 m 1,0,-1
 192 1024 l 1,1,-1
 337 216 l 1,2,-1
 451 851 l 1,3,-1
 420 1024 l 1,4,-1
 568 1024 l 1,5,-1
 713 216 l 1,6,7
 718 227 718 227 725.5 247.5 c 128,-1,8
 733 268 733 268 752.5 330.5 c 128,-1,9
 772 393 772 393 787 455 c 128,-1,10
 802 517 802 517 814.5 604 c 128,-1,11
 827 691 827 691 827 768 c 0,12,13
 827 838 827 838 819.5 902 c 128,-1,14
 812 966 812 966 804 995 c 2,15,-1
 796 1024 l 1,16,-1
 953 1024 l 1,17,18
 984 926 984 926 984 768 c 0,19,20
 984 686 984 686 964 576.5 c 128,-1,21
 944 467 944 467 915.5 370 c 128,-1,22
 887 273 887 273 858.5 187 c 128,-1,23
 830 101 830 101 810 50.5 c 2,24,-1
 790 0 l 1,25,-1
 604 0 l 1,26,-1
 512 512 l 1,27,-1
 420 0 l 1,28,-1
 216 0 l 1,29,-1
 32 1024 l 1,0,-1
EndSplineSet
EndChar

StartChar: uni0462
Encoding: 1122 1122 330
Width: 1024
VWidth: 0
Flags: MW
LayerCount: 2
Fore
SplineSet
0 1123 m 1,0,-1
 128 1123 l 1,1,-1
 128 1280 l 1,2,-1
 298 1280 l 1,3,-1
 298 1123 l 1,4,-1
 768 1123 l 1,5,-1
 768 966 l 1,6,-1
 298 966 l 1,7,-1
 298 839 l 1,8,9
 368 855 368 855 480 855 c 0,10,11
 695 855 695 855 819.5 739.5 c 128,-1,12
 944 624 944 624 944 424 c 0,13,14
 944 225 944 225 820 112.5 c 128,-1,15
 696 0 696 0 480 0 c 2,16,-1
 128 0 l 1,17,-1
 128 966 l 1,18,-1
 0 966 l 1,19,-1
 0 1123 l 1,0,-1
298 690 m 1,20,-1
 298 157 l 1,21,-1
 480 157 l 2,22,23
 616 157 616 157 695 228.5 c 128,-1,24
 774 300 774 300 774 424 c 128,-1,25
 774 548 774 548 695.5 619 c 128,-1,26
 617 690 617 690 480 690 c 2,27,-1
 298 690 l 1,20,-1
EndSplineSet
EndChar

StartChar: uni0463
Encoding: 1123 1123 331
Width: 1024
VWidth: 0
Flags: MW
LayerCount: 2
Fore
SplineSet
160 1280 m 1,0,-1
 330 1280 l 1,1,-1
 330 1123 l 1,2,-1
 768 1123 l 1,3,-1
 768 966 l 1,4,-1
 330 966 l 1,5,-1
 330 760 l 1,6,7
 395 776 395 776 500 776 c 0,8,9
 716 776 716 776 830 683 c 128,-1,10
 944 590 944 590 944 380 c 0,11,12
 944 172 944 172 831.5 86 c 128,-1,13
 719 0 719 0 500 0 c 2,14,-1
 160 0 l 1,15,-1
 160 966 l 1,16,-1
 0 966 l 1,17,-1
 0 1123 l 1,18,-1
 160 1123 l 1,19,-1
 160 1280 l 1,0,-1
330 611 m 1,20,-1
 330 157 l 1,21,-1
 500 157 l 2,22,23
 636 157 636 157 705 207 c 128,-1,24
 774 257 774 257 774 380 c 0,25,26
 774 504 774 504 704 557.5 c 128,-1,27
 634 611 634 611 500 611 c 2,28,-1
 330 611 l 1,20,-1
EndSplineSet
EndChar

StartChar: uni0464
Encoding: 1124 1124 332
Width: 1024
VWidth: 0
Flags: MW
LayerCount: 2
Fore
SplineSet
810 1288 m 0,0,1
 851 1288 851 1288 888.5 1284 c 128,-1,2
 926 1280 926 1280 943 1276 c 2,3,-1
 960 1272 l 1,4,-1
 960 1123 l 1,5,-1
 810 1123 l 2,6,7
 705 1123 705 1123 645 1042.5 c 128,-1,8
 585 962 585 962 571 768 c 1,9,-1
 960 768 l 1,10,-1
 960 611 l 1,11,-1
 567 611 l 1,12,13
 569 482 569 482 586 392.5 c 128,-1,14
 603 303 603 303 636 252 c 128,-1,15
 669 201 669 201 711 179 c 128,-1,16
 753 157 753 157 810 157 c 2,17,-1
 960 157 l 1,18,-1
 960 8 l 1,19,20
 903 -8 903 -8 810 -8 c 0,21,22
 712 -8 712 -8 640 22 c 128,-1,23
 568 52 568 52 512.5 121.5 c 128,-1,24
 457 191 457 191 428 313 c 128,-1,25
 399 435 399 435 397 611 c 1,26,-1
 234 611 l 1,27,-1
 234 0 l 1,28,-1
 64 0 l 1,29,-1
 64 1280 l 1,30,-1
 234 1280 l 1,31,-1
 234 768 l 1,32,-1
 401 768 l 1,33,34
 411 914 411 914 443 1016.5 c 128,-1,35
 475 1119 475 1119 529 1177.5 c 128,-1,36
 583 1236 583 1236 651 1262 c 128,-1,37
 719 1288 719 1288 810 1288 c 0,0,1
EndSplineSet
EndChar

StartChar: uni0465
Encoding: 1125 1125 333
Width: 1024
VWidth: 0
Flags: MW
LayerCount: 2
Fore
SplineSet
810 1032 m 0,0,1
 851 1032 851 1032 888.5 1028 c 128,-1,2
 926 1024 926 1024 943 1020 c 2,3,-1
 960 1016 l 1,4,-1
 960 867 l 1,5,-1
 810 867 l 2,6,7
 704 867 704 867 643 802.5 c 128,-1,8
 582 738 582 738 570 591 c 1,9,-1
 960 591 l 1,10,-1
 960 433 l 1,11,-1
 570 433 l 1,12,13
 582 286 582 286 643 221.5 c 128,-1,14
 704 157 704 157 810 157 c 2,15,-1
 960 157 l 1,16,-1
 960 8 l 1,17,18
 903 -8 903 -8 810 -8 c 0,19,20
 430 -8 430 -8 400 433 c 1,21,-1
 234 433 l 1,22,-1
 234 0 l 1,23,-1
 64 0 l 1,24,-1
 64 1024 l 1,25,-1
 234 1024 l 1,26,-1
 234 591 l 1,27,-1
 400 591 l 1,28,29
 430 1032 430 1032 810 1032 c 0,0,1
EndSplineSet
EndChar

StartChar: uni0466
Encoding: 1126 1126 334
Width: 1024
VWidth: 0
Flags: MW
LayerCount: 2
Fore
SplineSet
410 1280 m 1,0,-1
 614 1280 l 1,1,-1
 1024 0 l 1,2,-1
 859 0 l 1,3,-1
 720 433 l 1,4,-1
 591 433 l 1,5,-1
 591 0 l 1,6,-1
 433 0 l 1,7,-1
 433 433 l 1,8,-1
 304 433 l 1,9,-1
 165 0 l 1,10,-1
 0 0 l 1,11,-1
 410 1280 l 1,0,-1
512 1084 m 1,12,-1
 354 591 l 1,13,-1
 670 591 l 1,14,-1
 512 1084 l 1,12,-1
EndSplineSet
EndChar

StartChar: uni0467
Encoding: 1127 1127 335
Width: 1024
VWidth: 0
Flags: MW
LayerCount: 2
Fore
SplineSet
410 1024 m 1,0,-1
 614 1024 l 1,1,-1
 1024 0 l 1,2,-1
 867 0 l 1,3,-1
 720 366 l 1,4,-1
 585 366 l 1,5,-1
 585 0 l 1,6,-1
 439 0 l 1,7,-1
 439 366 l 1,8,-1
 304 366 l 1,9,-1
 157 0 l 1,10,-1
 0 0 l 1,11,-1
 410 1024 l 1,0,-1
512 886 m 1,12,-1
 362 512 l 1,13,-1
 662 512 l 1,14,-1
 512 886 l 1,12,-1
EndSplineSet
EndChar

StartChar: uni0468
Encoding: 1128 1128 336
Width: 1024
VWidth: 0
Flags: MW
LayerCount: 2
Fore
SplineSet
64 1280 m 1,0,-1
 234 1280 l 1,1,-1
 234 768 l 1,2,-1
 435 768 l 1,3,-1
 555 1280 l 1,4,-1
 725 1280 l 1,5,-1
 1024 0 l 1,6,-1
 863 0 l 1,7,-1
 762 433 l 1,8,-1
 719 433 l 1,9,-1
 719 0 l 1,10,-1
 561 0 l 1,11,-1
 561 433 l 1,12,-1
 518 433 l 1,13,-1
 417 0 l 1,14,-1
 256 0 l 1,15,-1
 399 611 l 1,16,-1
 234 611 l 1,17,-1
 234 0 l 1,18,-1
 64 0 l 1,19,-1
 64 1280 l 1,0,-1
640 1024 m 1,20,-1
 596 768 l 1,21,-1
 555 591 l 1,22,-1
 725 591 l 1,23,-1
 684 768 l 1,24,-1
 640 1024 l 1,20,-1
EndSplineSet
EndChar

StartChar: uni0469
Encoding: 1129 1129 337
Width: 1024
VWidth: 0
Flags: MW
LayerCount: 2
Fore
SplineSet
64 1024 m 1,0,-1
 221 1024 l 1,1,-1
 221 585 l 1,2,-1
 427 585 l 1,3,-1
 555 1024 l 1,4,-1
 725 1024 l 1,5,-1
 1024 0 l 1,6,-1
 872 0 l 1,7,-1
 765 366 l 1,8,-1
 713 366 l 1,9,-1
 713 0 l 1,10,-1
 567 0 l 1,11,-1
 567 366 l 1,12,-1
 515 366 l 1,13,-1
 408 0 l 1,14,-1
 256 0 l 1,15,-1
 384 439 l 1,16,-1
 221 439 l 1,17,-1
 221 0 l 1,18,-1
 64 0 l 1,19,-1
 64 1024 l 1,0,-1
640 794 m 1,20,-1
 558 512 l 1,21,-1
 722 512 l 1,22,-1
 640 794 l 1,20,-1
EndSplineSet
EndChar

StartChar: uni046A
Encoding: 1130 1130 338
Width: 1024
VWidth: 0
Flags: MW
LayerCount: 2
Fore
SplineSet
128 1280 m 1,0,-1
 896 1280 l 1,1,-1
 655 753 l 1,2,3
 800 721 800 721 880 622.5 c 128,-1,4
 960 524 960 524 960 378 c 2,5,-1
 960 0 l 1,6,-1
 803 0 l 1,7,-1
 803 378 l 2,8,9
 803 469 803 469 747 528.5 c 128,-1,10
 691 588 691 588 591 605 c 1,11,-1
 591 0 l 1,12,-1
 433 0 l 1,13,-1
 433 605 l 1,14,15
 333 588 333 588 277 528.5 c 128,-1,16
 221 469 221 469 221 378 c 2,17,-1
 221 0 l 1,18,-1
 64 0 l 1,19,-1
 64 378 l 2,20,21
 64 524 64 524 144 622.5 c 128,-1,22
 224 721 224 721 369 753 c 1,23,-1
 128 1280 l 1,0,-1
340 1144 m 1,24,-1
 512 768 l 1,25,-1
 684 1144 l 1,26,-1
 340 1144 l 1,24,-1
EndSplineSet
EndChar

StartChar: uni046B
Encoding: 1131 1131 339
Width: 1024
VWidth: 0
Flags: MW
LayerCount: 2
Fore
SplineSet
128 1024 m 1,0,-1
 896 1024 l 1,1,-1
 659 572 l 1,2,3
 802 545 802 545 881 466.5 c 128,-1,4
 960 388 960 388 960 271 c 2,5,-1
 960 0 l 1,6,-1
 803 0 l 1,7,-1
 803 271 l 2,8,9
 803 337 803 337 747 379.5 c 128,-1,10
 691 422 691 422 591 434 c 1,11,-1
 591 0 l 1,12,-1
 433 0 l 1,13,-1
 433 434 l 1,14,15
 333 422 333 422 277 379.5 c 128,-1,16
 221 337 221 337 221 271 c 2,17,-1
 221 0 l 1,18,-1
 64 0 l 1,19,-1
 64 271 l 2,20,21
 64 388 64 388 143 466.5 c 128,-1,22
 222 545 222 545 365 572 c 1,23,-1
 128 1024 l 1,0,-1
358 878 m 1,24,-1
 512 585 l 1,25,-1
 666 878 l 1,26,-1
 358 878 l 1,24,-1
EndSplineSet
EndChar

StartChar: uni046C
Encoding: 1132 1132 340
Width: 1024
VWidth: 0
Flags: MW
LayerCount: 2
Fore
SplineSet
64 1280 m 1,0,-1
 234 1280 l 1,1,-1
 234 768 l 1,2,-1
 518 768 l 1,3,-1
 320 1280 l 1,4,-1
 992 1280 l 1,5,-1
 785 746 l 1,6,7
 884 708 884 708 938 612.5 c 128,-1,8
 992 517 992 517 992 378 c 2,9,-1
 992 0 l 1,10,-1
 846 0 l 1,11,-1
 846 378 l 2,12,13
 846 461 846 461 815.5 517.5 c 128,-1,14
 785 574 785 574 729 597 c 1,15,-1
 729 0 l 1,16,-1
 583 0 l 1,17,-1
 583 597 l 1,18,19
 527 574 527 574 496.5 517.5 c 128,-1,20
 466 461 466 461 466 378 c 2,21,-1
 466 0 l 1,22,-1
 320 0 l 1,23,-1
 320 378 l 2,24,25
 320 442 320 442 338 500 c 128,-1,26
 356 558 356 558 374.5 584.5 c 2,27,-1
 393 611 l 1,28,-1
 234 611 l 1,29,-1
 234 0 l 1,30,-1
 64 0 l 1,31,-1
 64 1280 l 1,0,-1
510 1144 m 1,32,-1
 656 768 l 1,33,-1
 802 1144 l 1,34,-1
 510 1144 l 1,32,-1
EndSplineSet
EndChar

StartChar: uni046D
Encoding: 1133 1133 341
Width: 1024
VWidth: 0
Flags: MW
LayerCount: 2
Fore
SplineSet
320 1024 m 1,0,-1
 992 1024 l 1,1,-1
 788 566 l 1,2,3
 885 535 885 535 938.5 458.5 c 128,-1,4
 992 382 992 382 992 271 c 2,5,-1
 992 0 l 1,6,-1
 846 0 l 1,7,-1
 846 271 l 2,8,9
 846 331 846 331 815.5 371.5 c 128,-1,10
 785 412 785 412 729 429 c 1,11,-1
 729 0 l 1,12,-1
 583 0 l 1,13,-1
 583 429 l 1,14,15
 527 412 527 412 496.5 371.5 c 128,-1,16
 466 331 466 331 466 271 c 2,17,-1
 466 0 l 1,18,-1
 320 0 l 1,19,-1
 320 271 l 2,20,21
 320 317 320 317 341 359 c 128,-1,22
 362 401 362 401 382.5 420 c 2,23,-1
 403 439 l 1,24,-1
 221 439 l 1,25,-1
 221 0 l 1,26,-1
 64 0 l 1,27,-1
 64 1024 l 1,28,-1
 221 1024 l 1,29,-1
 221 585 l 1,30,-1
 516 585 l 1,31,-1
 320 1024 l 1,0,-1
521 888 m 1,32,-1
 656 585 l 1,33,-1
 791 888 l 1,34,-1
 521 888 l 1,32,-1
EndSplineSet
EndChar

StartChar: uni046E
Encoding: 1134 1134 342
Width: 1024
VWidth: 0
Flags: MW
LayerCount: 2
Fore
SplineSet
226 1536 m 1,0,-1
 364 1536 l 1,1,-1
 512 1280 l 1,2,-1
 660 1536 l 1,3,-1
 798 1536 l 1,4,-1
 634 1252 l 1,5,6
 737 1212 737 1212 792.5 1133.5 c 128,-1,7
 848 1055 848 1055 848 946 c 0,8,9
 848 893 848 893 830.5 849 c 128,-1,10
 813 805 813 805 788 780 c 128,-1,11
 763 755 763 755 738 737.5 c 128,-1,12
 713 720 713 720 695.5 714 c 2,13,-1
 678 708 l 2,14,15
 683 707 683 707 691.5 704.5 c 128,-1,16
 700 702 700 702 724 692 c 128,-1,17
 748 682 748 682 770.5 669 c 128,-1,18
 793 656 793 656 820 633.5 c 128,-1,19
 847 611 847 611 866 584 c 128,-1,20
 885 557 885 557 898.5 518 c 128,-1,21
 912 479 912 479 912 434 c 0,22,23
 912 279 912 279 804.5 189 c 128,-1,24
 697 99 697 99 512 99 c 0,25,26
 406 99 406 99 344 72.5 c 128,-1,27
 282 46 282 46 282 0 c 0,28,29
 282 -56 282 -56 330.5 -77.5 c 128,-1,30
 379 -99 379 -99 504 -99 c 2,31,-1
 864 -99 l 1,32,-1
 864 -256 l 1,33,-1
 504 -256 l 2,34,35
 284 -256 284 -256 198 -200 c 128,-1,36
 112 -144 112 -144 112 0 c 0,37,38
 112 119 112 119 219.5 187.5 c 128,-1,39
 327 256 327 256 512 256 c 0,40,41
 619 256 619 256 680.5 304 c 128,-1,42
 742 352 742 352 742 434 c 0,43,44
 742 535 742 535 661.5 573 c 128,-1,45
 581 611 581 611 419 611 c 2,46,-1
 224 611 l 1,47,-1
 224 768 l 1,48,-1
 419 768 l 2,49,50
 549 768 549 768 613.5 806.5 c 128,-1,51
 678 845 678 845 678 946 c 0,52,53
 678 1028 678 1028 608.5 1075.5 c 128,-1,54
 539 1123 539 1123 419 1123 c 2,55,-1
 160 1123 l 1,56,-1
 160 1272 l 1,57,58
 239 1284 239 1284 369 1287 c 1,59,-1
 226 1536 l 1,0,-1
EndSplineSet
EndChar

StartChar: uni046F
Encoding: 1135 1135 343
Width: 1024
VWidth: 0
Flags: MW
LayerCount: 2
Fore
SplineSet
226 1280 m 1,0,-1
 364 1280 l 1,1,-1
 512 1024 l 1,2,-1
 660 1280 l 1,3,-1
 798 1280 l 1,4,-1
 642 1009 l 1,5,6
 848 956 848 956 848 768 c 0,7,8
 848 728 848 728 830.5 695.5 c 128,-1,9
 813 663 813 663 788 644.5 c 128,-1,10
 763 626 763 626 738 613 c 128,-1,11
 713 600 713 600 695.5 595.5 c 2,12,-1
 678 591 l 1,13,14
 688 589 688 589 703.5 585.5 c 128,-1,15
 719 582 719 582 759.5 566 c 128,-1,16
 800 550 800 550 830.5 529 c 128,-1,17
 861 508 861 508 886.5 469 c 128,-1,18
 912 430 912 430 912 384 c 0,19,20
 912 230 912 230 810 164.5 c 128,-1,21
 708 99 708 99 512 99 c 0,22,23
 406 99 406 99 344 72.5 c 128,-1,24
 282 46 282 46 282 0 c 0,25,26
 282 -56 282 -56 330.5 -77.5 c 128,-1,27
 379 -99 379 -99 504 -99 c 2,28,-1
 864 -99 l 1,29,-1
 864 -256 l 1,30,-1
 504 -256 l 2,31,32
 284 -256 284 -256 198 -200 c 128,-1,33
 112 -144 112 -144 112 0 c 0,34,35
 112 119 112 119 219.5 187.5 c 128,-1,36
 327 256 327 256 512 256 c 0,37,38
 625 256 625 256 683.5 285.5 c 128,-1,39
 742 315 742 315 742 384 c 128,-1,40
 742 453 742 453 659.5 482.5 c 128,-1,41
 577 512 577 512 419 512 c 2,42,-1
 224 512 l 1,43,-1
 224 669 l 1,44,-1
 419 669 l 2,45,46
 678 669 678 669 678 768 c 128,-1,47
 678 867 678 867 419 867 c 2,48,-1
 160 867 l 1,49,-1
 160 1016 l 1,50,51
 239 1028 239 1028 369 1031 c 1,52,-1
 226 1280 l 1,0,-1
EndSplineSet
EndChar

StartChar: uni0474
Encoding: 1140 1140 348
Width: 1024
VWidth: 0
Flags: MW
LayerCount: 2
Fore
SplineSet
1024 1123 m 1,0,1
 944 1123 944 1123 927.5 1110.5 c 128,-1,2
 911 1098 911 1098 891 1024 c 2,3,-1
 614 0 l 1,4,-1
 410 0 l 1,5,-1
 32 1280 l 1,6,-1
 209 1280 l 1,7,-1
 482 354 l 1,8,-1
 512 177 l 1,9,-1
 534 354 l 1,10,-1
 727 1068 l 2,11,12
 736 1102 736 1102 740.5 1117 c 128,-1,13
 745 1132 745 1132 753.5 1159 c 128,-1,14
 762 1186 762 1186 768.5 1198 c 128,-1,15
 775 1210 775 1210 786 1228.5 c 128,-1,16
 797 1247 797 1247 808 1255 c 128,-1,17
 819 1263 819 1263 834.5 1272 c 128,-1,18
 850 1281 850 1281 869 1284.5 c 128,-1,19
 888 1288 888 1288 911 1288 c 0,20,21
 942 1288 942 1288 970.5 1284 c 128,-1,22
 999 1280 999 1280 1011.5 1276 c 2,23,-1
 1024 1272 l 1,24,-1
 1024 1123 l 1,0,1
EndSplineSet
EndChar

StartChar: uni0475
Encoding: 1141 1141 349
Width: 1024
VWidth: 0
Flags: MW
LayerCount: 2
Fore
SplineSet
992 867 m 1,0,1
 958 867 958 867 944.5 867 c 128,-1,2
 931 867 931 867 912 860.5 c 128,-1,3
 893 854 893 854 888 849 c 128,-1,4
 883 844 883 844 871 822 c 128,-1,5
 859 800 859 800 853.5 782 c 128,-1,6
 848 764 848 764 834 718 c 2,7,-1
 614 0 l 1,8,-1
 410 0 l 1,9,-1
 64 1024 l 1,10,-1
 243 1024 l 1,11,-1
 469 354 l 1,12,-1
 512 177 l 1,13,-1
 545 354 l 1,14,-1
 672 768 l 2,15,16
 686 813 686 813 693 834.5 c 128,-1,17
 700 856 700 856 712.5 890.5 c 128,-1,18
 725 925 725 925 734.5 941 c 128,-1,19
 744 957 744 957 758.5 978.5 c 128,-1,20
 773 1000 773 1000 788.5 1009 c 128,-1,21
 804 1018 804 1018 824.5 1025 c 128,-1,22
 845 1032 845 1032 870 1032 c 0,23,24
 903 1032 903 1032 933.5 1028 c 128,-1,25
 964 1024 964 1024 978 1020 c 2,26,-1
 992 1016 l 1,27,-1
 992 867 l 1,0,1
EndSplineSet
EndChar

StartChar: uni0478
Encoding: 1144 1144 350
Width: 1024
VWidth: 0
Flags: MW
LayerCount: 2
Fore
SplineSet
284 1288 m 0,0,1
 403.623050342 1288 403.623050342 1288 451.239967945 1220.37276735 c 128,-1,2
 498.768438113 1152.87115087 498.768438113 1152.87115087 507.914615609 960.438175158 c 0,3,4
 512 874.482848391 512 874.482848391 512 640 c 0,5,6
 512 312.621856424 512 312.621856424 499.218998911 212.664194144 c 0,7,8
 481.103112926 70.9834603329 481.103112926 70.9834603329 417.557282944 25.2966918709 c 0,9,10
 371.244838624 -8 371.244838624 -8 284 -8 c 0,11,12
 164.376949658 -8 164.376949658 -8 116.760032055 59.6272326532 c 128,-1,13
 69.2315618875 127.128849127 69.2315618875 127.128849127 60.0853843913 319.561824842 c 0,14,15
 56 405.517151609 56 405.517151609 56 640 c 0,16,17
 56 967.378143576 56 967.378143576 68.7810010895 1067.33580586 c 0,18,19
 86.8968870745 1209.01653967 86.8968870745 1209.01653967 150.442717056 1254.70330813 c 0,20,21
 196.755161376 1288 196.755161376 1288 284 1288 c 0,0,1
284 1160 m 128,-1,23
 220 1160 220 1160 206 1058.5 c 128,-1,24
 192 957 192 957 192 640 c 128,-1,25
 192 323 192 323 206 221.5 c 128,-1,26
 220 120 220 120 284 120 c 128,-1,27
 348 120 348 120 362 221.5 c 128,-1,28
 376 323 376 323 376 640 c 128,-1,29
 376 957 376 957 362 1058.5 c 128,-1,22
 348 1160 348 1160 284 1160 c 128,-1,23
512 1024 m 1,30,-1
 643 1024 l 1,31,-1
 730 640 l 1,32,-1
 752 512 l 1,33,-1
 774 640 l 1,34,-1
 861 1024 l 1,35,-1
 992 1024 l 1,36,-1
 753 -28 l 2,37,38
 743 -74 743 -74 737 -97 c 128,-1,39
 731 -120 731 -120 721 -153 c 128,-1,40
 711 -186 711 -186 701.5 -201.5 c 128,-1,41
 692 -217 692 -217 678 -234 c 128,-1,42
 664 -251 664 -251 645.5 -257.5 c 128,-1,43
 627 -264 627 -264 604 -264 c 0,44,45
 579 -264 579 -264 556 -260 c 128,-1,46
 533 -256 533 -256 522.5 -252 c 2,47,-1
 512 -248 l 1,48,-1
 512 -128 l 1,49,50
 539 -128 539 -128 549.5 -128 c 128,-1,51
 560 -128 560 -128 574 -122.5 c 128,-1,52
 588 -117 588 -117 592 -113 c 128,-1,53
 596 -109 596 -109 604 -89.5 c 128,-1,54
 612 -70 612 -70 615.5 -54.5 c 128,-1,55
 619 -39 619 -39 628 0 c 2,56,-1
 686 256 l 1,57,-1
 512 1024 l 1,30,-1
EndSplineSet
EndChar

StartChar: uni0479
Encoding: 1145 1145 351
Width: 1024
VWidth: 0
Flags: MW
LayerCount: 2
Fore
SplineSet
284 1032 m 128,-1,1
 444 1032 444 1032 478 934.5 c 128,-1,2
 512 837 512 837 512 512 c 128,-1,3
 512 187 512 187 478 89.5 c 128,-1,4
 444 -8 444 -8 284 -8 c 128,-1,5
 124 -8 124 -8 90 89.5 c 128,-1,6
 56 187 56 187 56 512 c 128,-1,7
 56 837 56 837 90 934.5 c 128,-1,0
 124 1032 124 1032 284 1032 c 128,-1,1
284 904 m 128,-1,9
 220 904 220 904 206 830.5 c 128,-1,10
 192 757 192 757 192 512 c 128,-1,11
 192 267 192 267 206 193.5 c 128,-1,12
 220 120 220 120 284 120 c 128,-1,13
 348 120 348 120 362 193.5 c 128,-1,14
 376 267 376 267 376 512 c 128,-1,15
 376 757 376 757 362 830.5 c 128,-1,8
 348 904 348 904 284 904 c 128,-1,9
512 1024 m 1,16,-1
 643 1024 l 1,17,-1
 730 640 l 1,18,-1
 752 512 l 1,19,-1
 774 640 l 1,20,-1
 861 1024 l 1,21,-1
 992 1024 l 1,22,-1
 753 -28 l 2,23,24
 743 -74 743 -74 737 -97 c 128,-1,25
 731 -120 731 -120 721 -153 c 128,-1,26
 711 -186 711 -186 701.5 -201.5 c 128,-1,27
 692 -217 692 -217 678 -234 c 128,-1,28
 664 -251 664 -251 645.5 -257.5 c 128,-1,29
 627 -264 627 -264 604 -264 c 0,30,31
 579 -264 579 -264 556 -260 c 128,-1,32
 533 -256 533 -256 522.5 -252 c 2,33,-1
 512 -248 l 1,34,-1
 512 -128 l 1,35,36
 539 -128 539 -128 549.5 -128 c 128,-1,37
 560 -128 560 -128 574 -122.5 c 128,-1,38
 588 -117 588 -117 592 -113 c 128,-1,39
 596 -109 596 -109 604 -89.5 c 128,-1,40
 612 -70 612 -70 615.5 -54.5 c 128,-1,41
 619 -39 619 -39 628 0 c 2,42,-1
 686 256 l 1,43,-1
 512 1024 l 1,16,-1
EndSplineSet
EndChar

StartChar: uni047A
Encoding: 1146 1146 352
Width: 1024
VWidth: 0
Flags: MW
LayerCount: 2
Fore
SplineSet
512 1388 m 128,-1,1
 567 1388 567 1388 610.5 1356 c 128,-1,2
 654 1324 654 1324 672 1274 c 1,3,4
 821 1229 821 1229 898.5 1077 c 128,-1,5
 976 925 976 925 976 640 c 128,-1,6
 976 355 976 355 898.5 203 c 128,-1,7
 821 51 821 51 672 6 c 1,8,9
 654 -44 654 -44 610.5 -76 c 128,-1,10
 567 -108 567 -108 512 -108 c 128,-1,11
 457 -108 457 -108 413.5 -76 c 128,-1,12
 370 -44 370 -44 352 6 c 1,13,14
 203 51 203 51 125.5 203 c 128,-1,15
 48 355 48 355 48 640 c 128,-1,16
 48 925 48 925 125.5 1077 c 128,-1,17
 203 1229 203 1229 352 1274 c 1,18,19
 370 1324 370 1324 413.5 1356 c 128,-1,0
 457 1388 457 1388 512 1388 c 128,-1,1
382 1108 m 1,20,21
 226 1018 226 1018 226 640 c 128,-1,22
 226 262 226 262 382 172 c 1,23,24
 433 233 433 233 512 233 c 128,-1,25
 591 233 591 233 642 172 c 1,26,27
 798 262 798 262 798 640 c 128,-1,28
 798 1018 798 1018 642 1108 c 1,29,30
 591 1047 591 1047 512 1047 c 128,-1,31
 433 1047 433 1047 382 1108 c 1,20,21
EndSplineSet
EndChar

StartChar: uni047B
Encoding: 1147 1147 353
Width: 1024
VWidth: 0
Flags: MW
LayerCount: 2
Fore
SplineSet
512 1132 m 128,-1,1
 567 1132 567 1132 610.5 1101 c 128,-1,2
 654 1070 654 1070 672 1020 c 1,3,4
 805 981 805 981 874.5 859 c 128,-1,5
 944 737 944 737 944 512 c 128,-1,6
 944 287 944 287 874.5 165 c 128,-1,7
 805 43 805 43 672 4 c 1,8,9
 654 -46 654 -46 610.5 -77 c 128,-1,10
 567 -108 567 -108 512 -108 c 128,-1,11
 457 -108 457 -108 413.5 -77 c 128,-1,12
 370 -46 370 -46 352 4 c 1,13,14
 219 43 219 43 149.5 165 c 128,-1,15
 80 287 80 287 80 512 c 128,-1,16
 80 737 80 737 149.5 859 c 128,-1,17
 219 981 219 981 352 1020 c 1,18,19
 370 1070 370 1070 413.5 1101 c 128,-1,0
 457 1132 457 1132 512 1132 c 128,-1,1
380 853 m 1,20,21
 250 781 250 781 250 512 c 128,-1,22
 250 243 250 243 380 171 c 1,23,24
 431 233 431 233 512 233 c 128,-1,25
 593 233 593 233 644 171 c 1,26,27
 774 243 774 243 774 512 c 128,-1,28
 774 781 774 781 644 853 c 1,29,30
 593 791 593 791 512 791 c 128,-1,31
 431 791 431 791 380 853 c 1,20,21
EndSplineSet
EndChar

StartChar: uni047C
Encoding: 1148 1148 354
Width: 1024
VWidth: 0
Flags: MW
LayerCount: 2
Fore
SplineSet
428 1536 m 0,0,1
 475 1536 475 1536 520 1518.5 c 128,-1,2
 565 1501 565 1501 597.5 1480 c 128,-1,3
 630 1459 630 1459 684 1441.5 c 128,-1,4
 738 1424 738 1424 800 1424 c 1,5,-1
 800 1312 l 1,6,7
 736 1312 736 1312 687.5 1323.5 c 128,-1,8
 639 1335 639 1335 609.5 1351.5 c 128,-1,9
 580 1368 580 1368 555 1384.5 c 128,-1,10
 530 1401 530 1401 498.5 1412.5 c 128,-1,11
 467 1424 467 1424 428 1424 c 0,12,13
 403 1424 403 1424 387 1418.5 c 128,-1,14
 371 1413 371 1413 362.5 1405.5 c 128,-1,15
 354 1398 354 1398 349.5 1380.5 c 128,-1,16
 345 1363 345 1363 344.5 1351 c 128,-1,17
 344 1339 344 1339 344 1312 c 1,18,-1
 224 1312 l 1,19,20
 224 1433 224 1433 276 1484.5 c 128,-1,21
 328 1536 328 1536 428 1536 c 0,0,1
400 1296 m 1,22,-1
 624 1296 l 1,23,-1
 624 1040 l 1,24,-1
 522 1040 l 1,25,-1
 522 1194 l 1,26,-1
 400 1194 l 1,27,-1
 400 1296 l 1,22,-1
341 1288 m 1,28,-1
 341 1131 l 1,29,30
 273 1131 273 1131 246.5 1022 c 128,-1,31
 220 913 220 913 220 640 c 0,32,33
 220 366 220 366 246.5 253.5 c 128,-1,34
 273 141 273 141 341 141 c 0,35,36
 388 141 388 141 407.5 170.5 c 128,-1,37
 427 200 427 200 427 256 c 1,38,-1
 597 256 l 1,39,40
 597 200 597 200 616.5 170.5 c 128,-1,41
 636 141 636 141 683 141 c 0,42,43
 751 141 751 141 777.5 253.5 c 128,-1,44
 804 366 804 366 804 640 c 0,45,46
 804 913 804 913 777.5 1022 c 128,-1,47
 751 1131 751 1131 683 1131 c 1,48,-1
 683 1288 l 1,49,50
 794 1288 794 1288 857 1225 c 128,-1,51
 920 1162 920 1162 948 1023 c 128,-1,52
 976 884 976 884 976 640 c 0,53,54
 976 277 976 277 911.5 130.5 c 128,-1,55
 847 -16 847 -16 683 -16 c 0,56,57
 645 -16 645 -16 613 -6 c 128,-1,58
 581 4 581 4 563 18.5 c 128,-1,59
 545 33 545 33 533 47 c 128,-1,60
 521 61 521 61 516.5 71 c 2,61,-1
 512 81 l 1,62,63
 511 77 511 77 507.5 70.5 c 128,-1,64
 504 64 504 64 491 47.5 c 128,-1,65
 478 31 478 31 460.5 18 c 128,-1,66
 443 5 443 5 411 -5.5 c 128,-1,67
 379 -16 379 -16 341 -16 c 0,68,69
 177 -16 177 -16 112.5 130.5 c 128,-1,70
 48 277 48 277 48 640 c 0,71,72
 48 884 48 884 76 1023 c 128,-1,73
 104 1162 104 1162 167 1225 c 128,-1,74
 230 1288 230 1288 341 1288 c 1,28,-1
EndSplineSet
EndChar

StartChar: uni047D
Encoding: 1149 1149 355
Width: 1024
VWidth: 0
Flags: MW
LayerCount: 2
Fore
SplineSet
428 1536 m 0,0,1
 475 1536 475 1536 520 1518.5 c 128,-1,2
 565 1501 565 1501 597.5 1480 c 128,-1,3
 630 1459 630 1459 684 1441.5 c 128,-1,4
 738 1424 738 1424 800 1424 c 1,5,-1
 800 1312 l 1,6,7
 736 1312 736 1312 687.5 1323.5 c 128,-1,8
 639 1335 639 1335 609.5 1351.5 c 128,-1,9
 580 1368 580 1368 555 1384.5 c 128,-1,10
 530 1401 530 1401 498.5 1412.5 c 128,-1,11
 467 1424 467 1424 428 1424 c 0,12,13
 403 1424 403 1424 387 1418.5 c 128,-1,14
 371 1413 371 1413 362.5 1405.5 c 128,-1,15
 354 1398 354 1398 349.5 1380.5 c 128,-1,16
 345 1363 345 1363 344.5 1351 c 128,-1,17
 344 1339 344 1339 344 1312 c 1,18,-1
 224 1312 l 1,19,20
 224 1433 224 1433 276 1484.5 c 128,-1,21
 328 1536 328 1536 428 1536 c 0,0,1
400 1296 m 1,22,-1
 624 1296 l 1,23,-1
 624 1040 l 1,24,-1
 522 1040 l 1,25,-1
 522 1194 l 1,26,-1
 400 1194 l 1,27,-1
 400 1296 l 1,22,-1
384 1032 m 1,28,-1
 384 875 l 1,29,30
 292 875 292 875 256 794 c 128,-1,31
 220 713 220 713 220 512 c 0,32,33
 220 310 220 310 247 225.5 c 128,-1,34
 274 141 274 141 341 141 c 0,35,36
 388 141 388 141 407.5 170.5 c 128,-1,37
 427 200 427 200 427 256 c 1,38,-1
 597 256 l 1,39,40
 597 200 597 200 616.5 170.5 c 128,-1,41
 636 141 636 141 683 141 c 0,42,43
 750 141 750 141 777 225.5 c 128,-1,44
 804 310 804 310 804 512 c 0,45,46
 804 713 804 713 768 794 c 128,-1,47
 732 875 732 875 640 875 c 1,48,-1
 640 1032 l 1,49,50
 828 1032 828 1032 902 916.5 c 128,-1,51
 976 801 976 801 976 512 c 0,52,53
 976 222 976 222 911.5 103 c 128,-1,54
 847 -16 847 -16 683 -16 c 0,55,56
 645 -16 645 -16 613 -6 c 128,-1,57
 581 4 581 4 563 18.5 c 128,-1,58
 545 33 545 33 533 47 c 128,-1,59
 521 61 521 61 516.5 71 c 2,60,-1
 512 81 l 1,61,62
 511 77 511 77 507.5 70.5 c 128,-1,63
 504 64 504 64 491 47.5 c 128,-1,64
 478 31 478 31 460.5 18 c 128,-1,65
 443 5 443 5 411 -5.5 c 128,-1,66
 379 -16 379 -16 341 -16 c 0,67,68
 177 -16 177 -16 112.5 103 c 128,-1,69
 48 222 48 222 48 512 c 0,70,71
 48 801 48 801 122 916.5 c 128,-1,72
 196 1032 196 1032 384 1032 c 1,28,-1
EndSplineSet
EndChar

StartChar: uni047E
Encoding: 1150 1150 356
Width: 1024
VWidth: 0
Flags: MW
LayerCount: 2
Fore
SplineSet
128 1536 m 1,0,-1
 896 1536 l 1,1,-1
 806 1280 l 1,2,-1
 774 1280 l 1,3,-1
 726 1416 l 1,4,-1
 576 1416 l 1,5,-1
 528 1280 l 1,6,-1
 496 1280 l 1,7,-1
 448 1416 l 1,8,-1
 298 1416 l 1,9,-1
 250 1280 l 1,10,-1
 218 1280 l 1,11,-1
 128 1536 l 1,0,-1
384 1288 m 1,12,-1
 384 1131 l 1,13,14
 292 1131 292 1131 256 1022 c 128,-1,15
 220 913 220 913 220 640 c 0,16,17
 220 366 220 366 246.5 253.5 c 128,-1,18
 273 141 273 141 341 141 c 0,19,20
 388 141 388 141 407.5 226 c 128,-1,21
 427 311 427 311 427 475 c 2,22,-1
 427 640 l 1,23,-1
 597 640 l 1,24,-1
 597 475 l 2,25,26
 597 311 597 311 616.5 226 c 128,-1,27
 636 141 636 141 683 141 c 0,28,29
 751 141 751 141 777.5 253.5 c 128,-1,30
 804 366 804 366 804 640 c 0,31,32
 804 913 804 913 768 1022 c 128,-1,33
 732 1131 732 1131 640 1131 c 1,34,-1
 640 1288 l 1,35,36
 768 1288 768 1288 840 1225 c 128,-1,37
 912 1162 912 1162 944 1023 c 128,-1,38
 976 884 976 884 976 640 c 0,39,40
 976 277 976 277 911.5 130.5 c 128,-1,41
 847 -16 847 -16 683 -16 c 0,42,43
 635 -16 635 -16 600 12 c 128,-1,44
 565 40 565 40 549 80 c 128,-1,45
 533 120 533 120 523.5 160 c 128,-1,46
 514 200 514 200 513 228 c 2,47,-1
 512 256 l 1,48,49
 512 250 512 250 511.5 240.5 c 128,-1,50
 511 231 511 231 508 202.5 c 128,-1,51
 505 174 505 174 499 148.5 c 128,-1,52
 493 123 493 123 480 91.5 c 128,-1,53
 467 60 467 60 449.5 37.5 c 128,-1,54
 432 15 432 15 404 -0.5 c 128,-1,55
 376 -16 376 -16 341 -16 c 0,56,57
 177 -16 177 -16 112.5 130.5 c 128,-1,58
 48 277 48 277 48 640 c 0,59,60
 48 884 48 884 80 1023 c 128,-1,61
 112 1162 112 1162 184 1225 c 128,-1,62
 256 1288 256 1288 384 1288 c 1,12,-1
EndSplineSet
EndChar

StartChar: uni047F
Encoding: 1151 1151 357
Width: 1024
VWidth: 0
Flags: MW
LayerCount: 2
Fore
SplineSet
128 1408 m 1,0,-1
 896 1408 l 1,1,-1
 806 1152 l 1,2,-1
 774 1152 l 1,3,-1
 726 1288 l 1,4,-1
 576 1288 l 1,5,-1
 528 1152 l 1,6,-1
 496 1152 l 1,7,-1
 448 1288 l 1,8,-1
 298 1288 l 1,9,-1
 250 1152 l 1,10,-1
 218 1152 l 1,11,-1
 128 1408 l 1,0,-1
32 1024 m 1,12,-1
 192 1024 l 1,13,-1
 337 216 l 1,14,-1
 451 851 l 1,15,-1
 420 1024 l 1,16,-1
 568 1024 l 1,17,-1
 713 216 l 1,18,19
 718 227 718 227 725.5 247.5 c 128,-1,20
 733 268 733 268 752.5 330.5 c 128,-1,21
 772 393 772 393 787 455 c 128,-1,22
 802 517 802 517 814.5 604 c 128,-1,23
 827 691 827 691 827 768 c 0,24,25
 827 838 827 838 819.5 902 c 128,-1,26
 812 966 812 966 804 995 c 2,27,-1
 796 1024 l 1,28,-1
 953 1024 l 1,29,30
 984 926 984 926 984 768 c 0,31,32
 984 686 984 686 964 576.5 c 128,-1,33
 944 467 944 467 915.5 370 c 128,-1,34
 887 273 887 273 858.5 187 c 128,-1,35
 830 101 830 101 810 50.5 c 2,36,-1
 790 0 l 1,37,-1
 604 0 l 1,38,-1
 512 512 l 1,39,-1
 420 0 l 1,40,-1
 216 0 l 1,41,-1
 32 1024 l 1,12,-1
EndSplineSet
EndChar

StartChar: uni0480
Encoding: 1152 1152 358
Width: 1024
VWidth: 0
Flags: MW
LayerCount: 2
Fore
SplineSet
665 1288 m 0,0,1
 729 1288 729 1288 786.5 1284 c 128,-1,2
 844 1280 844 1280 870 1276 c 2,3,-1
 896 1272 l 1,4,-1
 896 1123 l 1,5,-1
 665 1123 l 2,6,7
 491 1123 491 1123 390.5 993.5 c 128,-1,8
 290 864 290 864 290 640 c 0,9,10
 290 380 290 380 385.5 268.5 c 128,-1,11
 481 157 481 157 665 157 c 2,12,-1
 768 157 l 1,13,-1
 768 -256 l 1,14,-1
 598 -256 l 1,15,-1
 598 -6 l 1,16,17
 481 2 481 2 394 40.5 c 128,-1,18
 307 79 307 79 242.5 154.5 c 128,-1,19
 178 230 178 230 145 351.5 c 128,-1,20
 112 473 112 473 112 640 c 0,21,22
 112 940 112 940 260.5 1114 c 128,-1,23
 409 1288 409 1288 665 1288 c 0,0,1
EndSplineSet
EndChar

StartChar: uni0481
Encoding: 1153 1153 359
Width: 1024
VWidth: 0
Flags: MW
LayerCount: 2
Fore
SplineSet
642 1032 m 0,0,1
 703 1032 703 1032 758.5 1028 c 128,-1,2
 814 1024 814 1024 839 1020 c 2,3,-1
 864 1016 l 1,4,-1
 864 867 l 1,5,-1
 642 867 l 2,6,7
 475 867 475 867 378.5 771.5 c 128,-1,8
 282 676 282 676 282 512 c 0,9,10
 282 321 282 321 374 239 c 128,-1,11
 466 157 466 157 642 157 c 2,12,-1
 768 157 l 1,13,-1
 768 -256 l 1,14,-1
 598 -256 l 1,15,-1
 598 -7 l 1,16,17
 485 -2 485 -2 398.5 27.5 c 128,-1,18
 312 57 312 57 246 117 c 128,-1,19
 180 177 180 177 146 276.5 c 128,-1,20
 112 376 112 376 112 512 c 0,21,22
 112 751 112 751 257.5 891.5 c 128,-1,23
 403 1032 403 1032 642 1032 c 0,0,1
EndSplineSet
EndChar

StartChar: uni0482
Encoding: 1154 1154 360
Width: 1024
VWidth: 0
Flags: MW
LayerCount: 2
Fore
SplineSet
592 1280 m 1,0,-1
 768 1280 l 1,1,-1
 667 894 l 1,2,-1
 956 818 l 1,3,-1
 916 666 l 1,4,-1
 627 742 l 1,5,-1
 562 495 l 1,6,-1
 851 419 l 1,7,-1
 811 267 l 1,8,-1
 522 343 l 1,9,-1
 432 0 l 1,10,-1
 256 0 l 1,11,-1
 357 386 l 1,12,-1
 68 462 l 1,13,-1
 108 614 l 1,14,-1
 397 538 l 1,15,-1
 462 785 l 1,16,-1
 173 861 l 1,17,-1
 213 1013 l 1,18,-1
 502 937 l 1,19,-1
 592 1280 l 1,0,-1
EndSplineSet
EndChar

StartChar: uni0483
Encoding: 1155 1155 361
Width: 1024
VWidth: 0
Flags: MW
LayerCount: 2
Fore
SplineSet
768 1448 m 128,-1,1
 814 1448 814 1448 847 1415 c 128,-1,2
 880 1382 880 1382 880 1336 c 128,-1,3
 880 1290 880 1290 847 1257 c 128,-1,4
 814 1224 814 1224 768 1224 c 2,5,-1
 368 1224 l 1,6,7
 368 1178 368 1178 335 1145 c 128,-1,8
 302 1112 302 1112 256 1112 c 128,-1,9
 210 1112 210 1112 177 1145 c 128,-1,10
 144 1178 144 1178 144 1224 c 128,-1,11
 144 1270 144 1270 177 1303 c 128,-1,12
 210 1336 210 1336 256 1336 c 2,13,-1
 656 1336 l 1,14,15
 656 1382 656 1382 689 1415 c 128,-1,0
 722 1448 722 1448 768 1448 c 128,-1,1
EndSplineSet
EndChar

StartChar: uni0484
Encoding: 1156 1156 362
Width: 1024
VWidth: 0
Flags: MW
LayerCount: 2
Fore
SplineSet
224 1280 m 1,0,1
 286 1280 286 1280 340 1297.5 c 128,-1,2
 394 1315 394 1315 426.5 1336 c 128,-1,3
 459 1357 459 1357 504 1374.5 c 128,-1,4
 549 1392 549 1392 596 1392 c 0,5,6
 696 1392 696 1392 748 1340.5 c 128,-1,7
 800 1289 800 1289 800 1168 c 1,8,-1
 680 1168 l 1,9,10
 680 1195 680 1195 679.5 1207 c 128,-1,11
 679 1219 679 1219 674.5 1236.5 c 128,-1,12
 670 1254 670 1254 661.5 1261.5 c 128,-1,13
 653 1269 653 1269 637 1274.5 c 128,-1,14
 621 1280 621 1280 596 1280 c 0,15,16
 557 1280 557 1280 525.5 1268.5 c 128,-1,17
 494 1257 494 1257 469 1240.5 c 128,-1,18
 444 1224 444 1224 414.5 1207.5 c 128,-1,19
 385 1191 385 1191 336.5 1179.5 c 128,-1,20
 288 1168 288 1168 224 1168 c 1,21,-1
 224 1280 l 1,0,1
EndSplineSet
EndChar

StartChar: uni0487
Encoding: 1159 1159 363
Width: 1024
VWidth: 0
Flags: MW
LayerCount: 2
Fore
SplineSet
992 1264 m 1,0,-1
 992 1152 l 1,1,2
 884 1152 884 1152 802 1167 c 128,-1,3
 720 1182 720 1182 670 1203 c 128,-1,4
 620 1224 620 1224 577.5 1245 c 128,-1,5
 535 1266 535 1266 481.5 1281 c 128,-1,6
 428 1296 428 1296 362 1296 c 0,7,8
 265 1296 265 1296 208.5 1257.5 c 128,-1,9
 152 1219 152 1219 152 1152 c 1,10,-1
 32 1152 l 1,11,12
 32 1271 32 1271 120.5 1339.5 c 128,-1,13
 209 1408 209 1408 362 1408 c 0,14,15
 428 1408 428 1408 488.5 1393 c 128,-1,16
 549 1378 549 1378 599 1357 c 128,-1,17
 649 1336 649 1336 702 1315 c 128,-1,18
 755 1294 755 1294 830 1279 c 128,-1,19
 905 1264 905 1264 992 1264 c 1,0,-1
EndSplineSet
EndChar

